<?xml version="1.0" encoding="UTF-8"?>
<svg id="Layer_2" xmlns="http://www.w3.org/2000/svg" viewBox="0 0 364.14 12.95">
  <defs>
    <style>
      .cls-1 {
        fill: #fff;
      }
    </style>
  </defs>
  <g id="Layer_1-2" data-name="Layer_1">
    <g>
      <path class="cls-1" d="M364.05,9.13c.19-.34.08-1.13-.44-.97l-.38,1.32.82-.35Z"/>
      <path class="cls-1" d="M360.5,6.68c-.62.64-1.34,1.77-.93,2.99.61-1.27.76-.74,1.43-2.26.53-.15.92.42.83.91.19-.34.82.29,1.11-.54-.69-1.03-1.56-1.07-2.47-.22-.2-.29,0-.64.04-.88Z"/>
      <path class="cls-1" d="M308.88,4.62l.33.16c-.09-.09-.2-.13-.33-.16Z"/>
      <path class="cls-1" d="M276.9,3.89c.24-.03.35-.16.36-.28-.23.09-.41.17-.36.28Z"/>
      <path class="cls-1" d="M271.43,2.43c.12.04.22.06.32.09-.12-.12-.25-.19-.32-.09Z"/>
      <path class="cls-1" d="M308.88,4.62l-.85-.42c-.06.43.44.32.85.42Z"/>
      <path class="cls-1" d="M353.38,9.87c.18-.06.33-.19.46-.35-.15.06-.29.11-.44.14,0,.07-.01.13-.03.21Z"/>
      <path class="cls-1" d="M322.98,3.54h.26c.08-.15.15-.33.22-.54l-.48.54Z"/>
      <path class="cls-1" d="M333.8,3.34c-.24-.05-.33,1.08-.42,1.57.14-.46.32-.68.53-.77,0-.21-.03-.47-.11-.8Z"/>
      <path class="cls-1" d="M350.96,5.32l.3-.15c-.08.05-.21.09-.3.15Z"/>
      <path class="cls-1" d="M315.23,3.3c-.02-.17-.06-.31-.1-.4,0,.14.04.27.1.4Z"/>
      <path class="cls-1" d="M12.59,11.75c0-.08,0-.13,0-.2-.06.11-.08.19,0,.2Z"/>
      <path class="cls-1" d="M.05,6.18l.17-.06c.02-.21.04-.42.04-.63l-.21.69Z"/>
      <path class="cls-1" d="M261.44.99s.03.01.04.02c.26-.13.11-.11-.04-.02Z"/>
      <path class="cls-1" d="M169.7,1.82c1.04,1-1.69,1.29-.13,2.41-.15-.44,1.42-1.75.13-2.41Z"/>
      <path class="cls-1" d="M353.1,9.73c-.15.01-.29.02-.44.01.2.04.34.03.44-.01Z"/>
      <path class="cls-1" d="M169.57,4.23h0s.16.11.16.11c-.07-.05-.1-.08-.16-.11Z"/>
      <path class="cls-1" d="M238.41,1.67c.05.2.14.35.23.49,0-.12-.06-.26-.23-.49Z"/>
      <path class="cls-1" d="M255.57,3.27l-.42-.15c.17.1.3.14.42.15Z"/>
      <path class="cls-1" d="M229.51,3.25c-.23-.09-.31-.24-.62-.09.03.06.06.1.1.14.11-.15.27-.23.53-.05Z"/>
      <path class="cls-1" d="M220.24,3.26c.05.09.11.15.17.23.09-.02.2-.04.29-.06l-.46-.17Z"/>
      <path class="cls-1" d="M40.77,11.21c-.2-.32-.33-.67-.43-1.01.14.8-1.22,1.08.43,1.01Z"/>
      <path class="cls-1" d="M353.38,9.24c-.05.28-.13.42-.28.48.11-.01.21-.04.31-.06.03-.17.03-.33-.03-.42Z"/>
      <path class="cls-1" d="M229.13,12.12l-1.47-.17c.41.11.95.17,1.47.17Z"/>
      <path class="cls-1" d="M107.27,11.05l-.34.13c.13.03.25,0,.34-.13Z"/>
      <path class="cls-1" d="M223.29,12.12c-.26-.4-.54-.63-.83-.78-.06.09-.13.16-.17.29l1,.49Z"/>
      <path class="cls-1" d="M40.34,10.19s0,.01,0,.01c0,0,0,0,0-.01Z"/>
      <path class="cls-1" d="M30.63,12.86c1.4.03.66-1.45.96-2.29,1.68-.42.78,1.09,1.35,1.84,1.05-.39,1.85-1.75,2.63-1.69.06.24.21.33.03.64,1.11-1.17,3.28-.06,4.57-1.53.1.13.14.25.17.37-.21-.74-.24-1.49-.2-2.03.63-.03,1.17-.93,1.4.03-.39-.03-.42.36-.6.66l.66-.42c.59,1.39-.9.48-.9,1.51,1.29-.45,2.78-1.6,3.77-1.21.21,1.36-2.3.46-.99,1.67l-1.52-.52c1.16,2.14-.93-.15.14,2.14,2.01.39,2.24-.69,4.24-.3.45-.75-.15-1.12.3-1.87,2.84-1.36,2.24,3.42,4.33,1.61.54-.91.75-2.62,2.24-1.71l-.51,1.54c1.94.15,1.11-2.21,3.14-1.17-.36.6-1.53.51-1.23.69,1.32,1.21.93-.87,1.94-.87l.21,1.36c2.07-.21,4.34-1.2,6.63-1.44-.13.4-.52.83.02,1.25,2.89-.68,6.16.17,8.95.97l1.06-1.17c.25.01.46.53.19.76,1.09.45.06-.75.58-1.21.62-.08.82.67.42,1.03,1.92-1,5.46-2.14,7.48-.89l-.39.35c1.57.48,1.77-2.41,3.23-1.31l-.28.21c3.41.51,7.18-.57,9.78,1.21.49-1.69,3.38.75,3.6-1.6,1.95,1.17,1.39,1.59,4.13,2.38.73.11,1.09-1.47,2-1.72l.02,1.23,1.23-1.29.65,1.47.85-.32c-.34-.07-.72-.55-.67-.91,1.33-.56,3.24.86,3.27,1.49l3.14-1.04c-.07.5-.6.67-1.01.98,1.68-1.26.3,1.3,1.84.15-.21-.28.11-.73.15-.98.77.75,2.51.75,3.8.44l-.25.85c2.33.22,4.91-.41,7.52-.39-.94-.4-.72-1.87.04-2.01l.31,1.3c.49-.81-.8-.49.22-1.48.98.15.66,1.48.1,1.91l1.19-.45c.07.39-.21.59-.28,1.09.49-.81,2.05,1.31,2.75-.1l.07.39c2.61.01,3.8-.44,5.93-.5.04-1.13.87-.88,1.51-1.78,1.56.36,3.3,1.24,5.18,1.15,1.32-.56.39-.95.98-1.62.1,1.02,1.98.93,1,1.67,2.26-.17,2.89-.21,5.75-1.04-.31-.42-.66-.6-.48-.95.52-.17,1.18.43,1.11.92l-.14.11c3.21-1.54,7.41,2.99,9.97.85l-.14.11,2.65-1.11c1.22.18-.73.77.17,1.4,2.86-1.71,4.52.25,6.87-.89,1.82,3.02,6.47-.21,8.93,1.72l-.14-.71c.64-.7.77.41,1.24.57-.07-.55-.69-.64-.29-1.03,5.39-.86,11.12,1.04,16.65,1.68,2.02.19,1.15-3.68,3.69-1.98l-.72,1.32c4.08-1.58,8.34.05,12.33-1.29-.24.3-.24.7-.63.7.84.96,3.12.05,3.13-.74.62.09.14.71.53,1.11.85.57,2.12-1.23,2.57-.27.08.16-.24.31-.39.39.55-.46,2.57.12,2.04-.99,1.5.53,2.87-.49,4.06.16.78-1.24,2.56.6,2.81-1.16-.11,1.81,2.63,1.46,3.57.61-.32.55.82.57.45,1.32,1.08-.03,2.07-.36,1.88-1.29,1.99,2.16,4-1.74,5.12,1.03,3.21-.97,6.18-1.63,9.07-2.05-.1,1.8-3.19.18-3.07,2.07,2.74-.74,4.32-2.29,7.04-1.86.7.25-.4.78-.64,1.09,2.74-.74,5.29.16,7.73-.82,0,.17-.27.35-.52.49.48-.06,1.12.27,1.06-.56l-.47.22c-.77-1.19,1.91-2.49,1.99-3.12-.81,2.35,2.41.59,1.11,3.56.32-.15.71-.54.64-1.09.47.16.62.48.14,1.1,1.72-.45,1.11-1.32,2.67-1.3,0,.4-.32.55-.48,1.02.79-.77,1.58-1.55,2.9-1.21-.08.24.07.55-.32.54,2.26-.12,3.85-2.06,6.33-1.31-.73,1.73.84.57.98,2.06l1.33-.45-.54-.72c1.17.03,2.2-1.06,3.21-.57l-.87.62,2.19-.28-1.24-.57c1.18-.77-.13-1.89,1.43-1.47-.32.15,1.17.02,1.78.9,0,0,0,0,0,0,.58-.48,1.17-.98,2.04-.61.22.48-.18,1.65-.03,1.97.57-1.25,2.74-.35,3.46-1.68-.24.31-.25,1.1-.17,1.26l.48-1.01c.54.32.62.48.53,1.11,1.63.19-.52-1.89,1.42-1.08-.15.08-.08.23-.4.39,1.94.43,3.75-.64,5.53-.14.53,1.5-1.56.37-.96,1.64,2.57-.27,5.32-1.8,7.81-1.45l-.46-.17c.34-2.12,1.85,1.05,3.11.05-.31.16-.4,1.18-.32.94,1.7.34,3.48-.52,6.07-1.19l-.32.54c1,.49,2.64.28,3.73.53.32-.54.94-.46.57-1.25,3.34,3.1,6.38-1.66,9.35.92-.35,0-.85.48-.56.48l2.53-.5c-.2-.92-.33-.56-.86-1.28.32-.55,1.03-.97,1.66-.97-1.14.61,0,1.48.5,2-.08-.28.09-.6.04-.88,1.32,1.64.22-1.86,2.02-.75l-.1.49c.67-.25,1.3-.89,2.02-.75.3,1.07-.72.5-.76,1.38,1.02-.06,2.02-2.03,2.94-.96-.43.3-1.06.3-1.49.6,1.01,1.26,1.12.94,1.87,1.14l-.07-.03,1.73.57-.44-.34c1.28-2.79,2.6-.51,4.33-2.33-1.67,1.73-.28,1-.41,2.21.44.34,1.11.71.92,1.05.81-.98,1.36.77,2.51-.66.05.39.87.04.69,1.02,1.06-.31-.25-.68-.16-1.17,1.63-1.33,3.84,1.62,6.18-.21,2.02-.75,2.4-2.07,4.28-2.72.63.62-.52,1.42-.52,1.42,1.02.57,1.79.47,2.76.02-.2.34,0,.63.3,1.07.77-.1.52-1.42,1.54-.85-.17.44-.4,1.13-.77,1.57.91-.36,1.81-1.09,2.75-1.44.25.68-.57,1.03-.9,1.48,1.06-.31,2.75-.62,3.07-1.69l-.68-.38c.39-.05.2.92-.09,1.12-.91.84-1.31-.37-1.36-.76l.67-.25c-.69-2.29-2.7.37-4.05.23l.56-1.66-1.39,1.38c-.3-.43-.5-1.36.17-1.61-.97-.82-.86.59-1.69-.33-.09-.14-.05-.22.03-.29l-.95.5c.19-.35-.16-1.17.42-.93-1.7-.96-2.74,1.25-3.38-.01l.14-.1c-2.36.56-.23,1.22-2,2.66l-1.19-3.01-.23,1.22c-.24-.04-.72-.14-.64-.62-.91.84.15.53-.37,1.32-1.17-1.11-3.23.52-3.49-1.42-.42.93,1.12.72-.13,1.36-.36-2.09-1.45.36-2.52-.6.33-1.08,1.34-.51.27-1.47-.65,1.83-2.08-.4-2.99-.05-.04,1.45-1.96.61-3.48,1.09.1-.49-2.85-.8-4.26-1.32l.04-.24c-.27,1.47-1.73,1.19-2.78,1.5.04-.88.23-1.23.81-1.62h-.99c-.23.48-.55.73-1.19.89l.25-1.1c-1.32.06-2.67,1.29-4.37.56-.1,1.02,1.36,2.85-.45,3.54-.07-.55-.13-1.5.34-1.73-.15.07-.55.46-.86.22l.72-.93c-.78-.41-.41.78-1.03.69.01-.79-.46-.56-.37-1.19.16-.08.54.33.78.02-.7-.14-1.55-.61-1.82-1.21.06.45,0,1.06-.51,1.17-1.32.06-.45-.95-1.23-1.36-.32.55-1.17-.02-1.19,1.16-.39,0-.46-.56-.61-.88-.69.52-3.2.15-2.43,1.4l.18.08s-.07.03-.11.05h0,0c-2.25,1.17-4.67-.67-6.9-.16v-.4c-1.33.45-2.96.27-3.91,1.12-.39,0-.93-.72-.76-1.19-1.02.3-1.13.74-2.6.09,1.02-.69-.35-.61,1.05-.5-1.32-.34-1.62-.97-3.04.11.48-1.01-.99-1.27-1.62-.97l.93.72c-.71.15-1.32.06-1.95-.03l.34-1.33c-2.7-1.62-4.88,2.75-6.94.04-.72.93,1.47.66.83,1.74-1.24-.18-2.54-2.09-2.93-2.09-1.7-.74-1.59,1.94-3.37,1.44.23.47.44,1.74-.89,2.19-1.25-.18-1.53-1.99-.74-2.37.3-.04.44.11.43.27.4-.17.93-.38.44-.89l-.16.47c-.62-.48-2.33-.43-1.93-1.21-.94.45-.4.78.29,1.02-1.6-.69-2.49-.02-4.14-.48.26.26.5.82.24.81-2.41-.59-1.06.9-2.7,1.11-.93-.72.33-1.73-1.31-1.12-1-.49-.21-1.26.19-1.65-1.5.92-2.8-.6-3.65-.77l.79-.38c-.47.23-.86.22-1.25.22l.45.95c-.46-.17-.86-.17-.85-.56-.48.62.37,1.58-.58,2.43-.62-.48-1.88.52-2.09-.74,1.94.43-.21-1.27,1.43-1.47-.32.15-.7.14-1.17-.02-.07-.14.07-.26.19-.33-1.86-1.13-.85,1.42-2.78,1.4.24-.71-.45-1.35-.76-1.2.78.01.37,1.18-.34,1.73-1.24-.55-1.34.41-1.99.35l.74.26c-.25.71-.87.62-1.73.84-.07-.55.78-.38.47-.62-.96,1.25-2.16-1.29-3.49-.45-.62-.48-.06-1.33-.6-1.66-1.49.92-1.62-.97-3.19-.21.45.95.53.72-.57,1.65l2.58-.67-1.66,1.39c.78.01,1.64-.6,2.11-.44-.79.78-.71.54-.34,1.33-1.07-1.43-2.11.83-3.35-.13l.04-2.36c-1.85-1.05-3.29,1.21-5.7.62l.77.41c-.32.94-1.49.13-2.26.51.07-.79-.41-1.08-.75-1.57.04.59-1.76-.05-1.98,1.52l-1.07-1.04c-1.94-.43-2.22,2.25-4.08,1.98.56-.86-.29-1.42.96-2.03-.62,0-1.18-.15-1.19.39-.36-.49-1.73,1.06-2.3.31-.26.35-.35,1.17-1.05,1.11-.08-.16,0-.39,0-.39,0,.39-1.1.53-.48,1.4-1.92-2.46-5.37.18-7.04-1.94-1.36.26-3,.52-4.24.58.08-.24,0-.39.24-.31-1.7-.73-1.05,2.27-2.99,1.45-.99-1.28,1.03-.69.41-1.17-.27-2.6-2.34.35-3.65-1.16l.32-.15c-1-.88-2.43.98-4.06.8,0,0,.08-.23,0-.39-1.11,1.33-3.22,1.76-4.79,2.13.49-1.02.71-.54.41-1.57-.7.15.21,1.66-1.2,1.95-.46-.56-1.47-1.04-1.6-2.15l1.32-.06c-.68-1.43-1.71.05-2.41-.2l.09-.62c-2.03.2-2.06,1.77-4.24,1.66l.23.47c-1.19,1.56-1-.88-2.19.28l-.36-1.58c-.79.38-2.75,1.53-4.16,1.82.8-1.17,2.45-1.77,3.47-2.46-.78-.01-2.65.12-3.05.9.31-.15.71-.54,1.02-.3-.96,1.24-2.21,1.85-3.77,1.82.28-3.06-4.05-.77-5.17-3.15-2.75,1.13-5.45-.48-8.65-.3,1.13,2.38-.93.07-.74,2.51-.75.16-1.03.12-1.1-.04l-2.26-1.46c-.54-.71.71-.54.64-1.09-1.63-.19-.68-1.04-1.76-1.69.22.87-.57,1.25-1.5.92l1.31,1.13c-2.28,1.3-1.97-2.05-4.27-.76l.73-.77c-1.18.45-4.35-.02-5.51,1.95-.21-.28-.48-.95.03-1.13-2.82-.29-6.27,2.09-8.46.88l.21-.6c-.53.17-.92,1.12-1.57.52.03-.25.21-.6-.03-.63-.28.21-1.4,1.05-2.09.7l.6-.67c-2.75-.78-4.22,1.64-6.52,2.05,0-1.76-2.16-2.33-3.24-2.62l.04-.25c-3.2-.22-5.44,1.46-8.4,2.15-1.84-1.91-6.23-.8-9.19-1.87.45.32-.07,1.37-.6,1.55-.69-.36-1.92,1.22-1.81-.39l.25.03c-.52-1.58-1.95-1.16-3.06-1.21l-.18,2.11c-2.91-3.07-7.63,1.13-9.22-1.62-.7.53-1.57.52-2.27,1.05l.04-1.13c-1.95-.29-2.92-.43-5.33-.16l.49-.81c-1.36-.07-1.71,3.27-2.97,3.33l-.38-1.69c-2.37.03-4.77-1.46-7.11.08.04-.25.11-.74.49-.8-1.12-.04-4.31-1.14-3.91,1.18-.03-1.51-2.44-.15-3.72.52l.2-1.11c-1.08,1.42-1.11,1.81-2.62,2.21-.36-.15-.31-.89.16-.61-1.19-.58-.93,1.06-2.37.46l.54-.71c-1.23-.09-1.13.3-1.8,1.13-.77.45-2.32-.28-2.51-1.29-.17.61-.84,1.44-1.56,1.15-.1-.38.17-.62.3-.73-2.05-.76-3.05,1.3-4.46.2-.03-.37-.12-.55-.24-.67,1.63.03,2.94.09,2.82.17,0-1.03-1.31-1.21-.27-2.63-1.06.77-2.86,2.46-4.14,1.97-.06-.1-.12-.2-.17-.36l.13-.12c-.3-.1-.56,0-.81.17-.41-.17-.67-.29-1.06-.31-.15-.85-1.51-.46-2.16-.5.05,1.12-.8.94,0,1.87-.1-.08.12-.13.56-.18.1-.03.21-.05.28-.12-.01.03-.03.07-.04.1.43-.03.99-.06,1.63-.08-.52.57-1.06,1.05-1.78.43-.34.72-.71,1.47-.92,1.81-.9-1.57-2.63-2.42-2.87-3.38-2,.63-4.72.42-5.97,2.53-.57.27-.65-.61-.87-.94.33-.21.72-.18.9-.48-1.14.54-3.37.21-3.64,1.69-1.43-.67.81-1.36-1.16-1.12l.27-.45c-3.88-2.36-6.3,3.77-10.6.74.3.19.45.27.51.52-4.9-1.34-10.1,1.25-14.93-.86-1.37-.43-1.52.52-2.36,1.23l-.3-1.21-1.43,1.39c-2.03,1.02-3.52-2.96-6.1-1.03l.33.81c-.92-.15-2.93.48-2.78-.46-.09.15-.3.85-.66.42l-.03-.63-2.27,1.08c-1.76-.46.28-2.51-2.29-2.63-.96.24-2.72,1.84-2.36,2.26.39.03.99.39,1.01,1.03l-.87.33c-.16,1.86-.83,3.77,1.31,5.07l1.49-1.14.48.9-1.26.06c.71.85,1.17.1,1.67-.42.12.48.33.82.63,1l1.47-1.78c.18.73-.66,1.45.33,1.85.69-.83-.66-1.63.48-2.18.72.85.51,1.54,1.35.81.12.48-.06.79-.39,1,.75-.58,1.98-.24,2.36-1.23.75,1.04,2.52-.27,2.45,1.49.23-.42,1.32-1.38,2-1.46-1.25,2.11,2.57.12,2.24,2.39.93-1.9,3.35-.84,4.99-1.9-.09.15-.27.46-.42.36.92.16,1.19.73,1.79,1.09.12-1.57,1.56-1.93,2.34-2.89,1.13,1.51-.69,1.84-.33,3.29-.06-1.27,1.97-1.27,1.58-2.33.87.94.75.45,1.19,1.75.15-1.96.81-.33,1.53-1.54,1.25.97.32,1.84,1.7,1.24.66.6-.57,1.29-.57,1.29ZM63.41,9.47v.02c-.28.03-.52.05-.68.06.14-.02.34-.04.68-.09ZM66.17,9.45c-.34-.04-.75-.05-1.19-.04-.1-.39,0-.79.29-.77-.15.26.5.48.91.81ZM60.34,1.66c.44-.16.58.06.64.29-.21.02-.45.06-.76.13-.01.04-.04.09-.05.14.04-.21.09-.42.17-.56Z"/>
      <path class="cls-1" d="M59.56,3.13c-.06.03-.1.07-.18.08.09.1.17.18.26.25.05-.12.11-.24.15-.35-.08,0-.16,0-.23.02Z"/>
      <path class="cls-1" d="M309.27,4.8l-.06-.03s.09.09.12.16c-.04-.05-.04-.09-.06-.13Z"/>
      <polygon class="cls-1" points="104.21 11.6 104.2 11.32 103.96 11.57 104.21 11.6"/>
      <path class="cls-1" d="M324.44,8.66c.03.1.09.2.2.29,0-.07-.09-.17-.2-.29Z"/>
      <path class="cls-1" d="M330.99,8.91l.93.4c-.4-.23-.69-.34-.93-.4Z"/>
      <path class="cls-1" d="M336.03,9.47c.06-.2.08-.35.1-.48,0,0,0,0-.01,0l-.09.49Z"/>
      <path class="cls-1" d="M255.92,10.79c-.07,0-.13.02-.19.05-.46.22-.15.13.19-.05Z"/>
      <path class="cls-1" d="M279.76,8.16c-.25.2-.5.4-.77.53.42.09.75.11.77-.53Z"/>
      <path class="cls-1" d="M229.29,12.14s0,0,0-.02c-.06,0-.11,0-.16,0l.16.02Z"/>
      <path class="cls-1" d="M277.88,8.67c.42.22.78.18,1.11.02-.35-.08-.76-.19-1.11-.02Z"/>
      <path class="cls-1" d="M357.87,9.98l.24.05c0-.07.01-.13.03-.18l-.27.13Z"/>
      <path class="cls-1" d="M358.14,9.84l.27-.13c-.12,0-.23,0-.27.13Z"/>
      <path class="cls-1" d="M358.98,9.43l-.57.28c.2,0,.44.04.57-.28Z"/>
      <path class="cls-1" d="M351.2,9.46l-.08.41c.04-.08.07-.22.08-.41Z"/>
      <path class="cls-1" d="M349.18,9.58c.48.09,1.21.87,1.89.61l.06-.32c-.32.61-1.49-.98-1.95-.29Z"/>
      <path class="cls-1" d="M340.71,4.54l1.7.33c-.3-.43-.69-1.02.09-1.12-2.14-1.3.44.97-1.78.8Z"/>
      <path class="cls-1" d="M335.45,3.91c.91-.2-.01-.63.04-.88-.58.4-.72.5-.04.88Z"/>
      <path class="cls-1" d="M297.39,3.9l.09-1.02c-.7.15,0,.4-.09,1.02Z"/>
      <polygon class="cls-1" points="290.11 9.19 290.79 9.83 291.12 8.89 290.11 9.19"/>
      <polygon class="cls-1" points="285.81 1.9 286.12 1.76 284.95 2.13 285.81 1.9"/>
      <path class="cls-1" d="M221.89,2.27l.21,1.26c.48-.23.58-1.64-.21-1.26Z"/>
      <path class="cls-1" d="M194.29,3.55c-.3-.63-1.08-1.04-1.56-.42.62.09,1.24.58,1.56.42Z"/>
      <polygon class="cls-1" points="111.53 1.5 112.08 1.07 111.03 1.43 111.53 1.5"/>
    </g>
  </g>
</svg>