<?xml version="1.0" encoding="UTF-8" standalone="no"?>
<!DOCTYPE svg PUBLIC "-//W3C//DTD SVG 1.1//EN" "http://www.w3.org/Graphics/SVG/1.1/DTD/svg11.dtd">
<svg width="100%" height="100%" viewBox="0 0 1920 1080" version="1.1" xmlns="http://www.w3.org/2000/svg" xmlns:xlink="http://www.w3.org/1999/xlink" xml:space="preserve" xmlns:serif="http://www.serif.com/" style="fill-rule:evenodd;clip-rule:evenodd;stroke-linejoin:round;stroke-miterlimit:2;">
    <g transform="matrix(3.60112,0,0,3.27804,58.0234,187.763)">
        <g transform="matrix(1,0,0,1,149.523,108.831)">
            <path d="M0,-45.314C-0.552,-46.591 -1.379,-47.986 -2.487,-48.75C-6.012,-51.181 -10.02,-51.192 -14.114,-50.491C-16.543,-50.075 -19.104,-48.867 -21.345,-50.991C-22.229,-51.829 -22.868,-52.942 -23.806,-53.699C-27.809,-56.936 -37.932,-57.759 -40.751,-51.333C-41.092,-50.558 -41.972,-49.991 -42.66,-49.393C-43.803,-48.399 -44.791,-48.061 -46.311,-49.187C-48.686,-50.943 -51.203,-52.868 -53.97,-53.667C-61.788,-55.927 -68.969,-52.738 -76.165,-50.24C-76.243,-50.211 -76.315,-50.166 -76.384,-50.12C-79.946,-47.752 -83.563,-45.455 -87.051,-42.982C-88.822,-41.726 -90.727,-40.399 -91.928,-38.667C-94.033,-35.636 -95.833,-32.356 -97.406,-29.015C-99.204,-25.2 -103.045,-22.617 -103.601,-18.01C-103.92,-15.364 -105.145,-12.826 -105.973,-10.241C-106.116,-9.791 -106.205,-9.278 -106.485,-8.923C-108.134,-6.827 -109.83,-4.77 -111.511,-2.7L-111.511,0.275C-110.788,-0.043 -109.978,-0.245 -109.363,-0.704C-107.984,-1.734 -106.592,-3.917 -105.403,-3.791C-102.764,-3.512 -102.869,-5.577 -101.835,-6.647C-101.22,-7.284 -100.812,-8.282 -100.08,-8.602C-97.862,-9.574 -95.536,-10.295 -93.133,-11.155C-92.855,-8.91 -92.506,-7.212 -95.342,-6.008C-97.697,-5.01 -99.48,-2.676 -101.481,-0.894C-101.746,-0.658 -101.952,-0.169 -101.917,0.177C-101.644,2.942 -97.54,5.016 -95.846,3.022C-93.568,0.34 -91.059,0.216 -88.016,0.682C-86.767,0.872 -85.957,1.074 -85.892,2.477C-85.774,5.006 -85.698,7.541 -85.411,10.052C-85.314,10.912 -84.564,12.445 -84.234,12.413C-81.652,12.166 -79.08,11.698 -76.549,11.107C-75.596,10.884 -74.736,10.195 -73.88,9.648C-73.387,9.334 -72.989,8.875 -72.548,8.481C-72.976,8.069 -73.335,7.485 -73.845,7.283C-75.359,6.688 -76.964,6.322 -78.472,5.716C-79.584,5.268 -80.602,4.588 -81.662,4.01C-81.569,3.789 -81.478,3.57 -81.387,3.352C-80.761,3.306 -80.131,3.187 -79.512,3.226C-75.485,3.475 -71.543,3.061 -67.933,1.208C-65.367,-0.111 -62.222,-1.234 -60.669,-3.388C-57.587,-7.667 -47.313,-10.681 -41.678,-7.117C-39.728,-5.883 -37.682,-4.774 -35.592,-3.791C-32.912,-2.531 -30.887,-0.972 -30.881,2.345C-30.877,3.847 -29.573,4.358 -28.776,3.128C-27.349,0.933 -25.34,1.385 -23.331,1.171C-22.14,1.046 -20.891,0.496 -19.888,-0.182C-18.437,-1.161 -17.134,-2.375 -15.865,-3.59C-15.074,-4.35 -14.464,-5.294 -13.771,-6.156C-13.971,-6.309 -14.173,-6.461 -14.375,-6.615C-17.548,-5.558 -20.665,-4.252 -23.917,-3.542C-25.683,-3.155 -27.988,-3.231 -29.502,-4.071C-32.738,-5.866 -35.846,-8.048 -38.561,-10.549C-40.154,-12.012 -41.4,-14.281 -41.874,-16.392C-42.436,-18.908 -42.006,-21.64 -42.006,-23.955C-40.321,-24.927 -38.944,-25.834 -37.469,-26.542C-35.021,-27.716 -33.498,-29.621 -32.516,-32.068C-30.885,-36.127 -29.808,-40.234 -30.85,-44.658C-30.963,-45.136 -30.429,-45.818 -30.066,-46.314C-29.984,-46.425 -29.321,-46.23 -29.004,-46.041C-25.383,-43.896 -21.819,-41.655 -18.152,-39.589C-16.488,-38.652 -14.636,-38.046 -13.046,-37.364C-12.792,-39.226 -12.546,-40.68 -12.416,-42.144C-12.342,-42.958 -12.159,-44.002 -12.561,-44.571C-13.341,-45.678 -14.245,-46.788 -12.733,-47.6C-12.248,-47.86 -10.73,-46.702 -9.996,-45.907C-9.029,-44.861 -8.41,-43.506 -7.568,-42.337C-6.258,-40.52 -4.885,-38.749 -3.425,-36.809C-1.753,-36.989 0.508,-37.331 2.78,-37.439C3.984,-37.498 5.272,-36.853 6.401,-37.089C7.203,-37.255 7.8,-38.368 8.489,-39.059C7.85,-39.501 7.227,-40.297 6.571,-40.325C3.141,-40.468 1.273,-42.365 0,-45.314" style="fill:white;fill-rule:nonzero;"/>
        </g>
        <g transform="matrix(1,0,0,1,72.4599,-28.6364)">
            <g transform="matrix(1,0,0,1,0,-3295.84)">
                <path d="M233.081,3390.62L233.794,3390.62L233.794,3405.4L233.081,3405.4L233.081,3390.62ZM231.08,3390.94C231.627,3391 232.105,3391.09 232.517,3391.21C232.602,3391.9 232.663,3392.64 232.698,3393.41C232.734,3394.18 232.751,3394.97 232.751,3395.76L232.751,3399.62C232.751,3401.85 232.641,3403.74 232.421,3405.31L229.834,3405.71L229.834,3405.81L237.872,3405.81L237.872,3405.71L235.242,3405.31C235.15,3404.62 235.072,3403.7 235.008,3402.55C234.944,3401.4 234.912,3400.36 234.912,3399.43L234.912,3395.89C234.912,3395.7 234.919,3395.34 234.934,3394.82C234.948,3394.3 234.969,3393.73 234.998,3393.12C235.026,3392.51 235.068,3391.87 235.125,3391.21C235.7,3391.06 236.236,3390.95 236.733,3390.89C237.23,3390.83 237.78,3390.79 238.383,3390.79C239.086,3390.79 239.76,3390.85 240.406,3390.96L241.194,3393.47L241.321,3393.47L241.077,3390.03C240.338,3390.1 239.735,3390.15 239.267,3390.18C238.798,3390.21 238.283,3390.23 237.723,3390.23L228.482,3390.23C228.22,3390.23 227.886,3390.2 227.482,3390.15C227.077,3390.1 226.768,3390.06 226.555,3390.05L226.321,3393.54L226.47,3393.54L227.237,3391.01C227.989,3390.88 228.752,3390.81 229.526,3390.81C230.015,3390.83 230.533,3390.87 231.08,3390.94" style="fill:white;fill-rule:nonzero;"/>
            </g>
            <g transform="matrix(1,0,0,1,0,-3295.64)">
                <path d="M245.378,3405.2L244.644,3405.2L244.644,3390.44L245.378,3390.44L245.378,3405.2ZM256.961,3390.42L257.706,3390.42L257.706,3405.2L256.961,3405.2L256.961,3390.42ZM249.594,3405.51L246.804,3405.13C246.691,3404.62 246.611,3403.92 246.565,3403.02C246.519,3402.12 246.496,3401.34 246.496,3400.66C246.496,3399.53 246.51,3398.69 246.538,3398.16L256.588,3398.16C256.63,3398.74 256.659,3399.29 256.673,3399.82C256.687,3400.34 256.687,3400.79 256.673,3401.16C256.638,3402.6 256.521,3403.93 256.322,3405.13L253.554,3405.51L253.554,3405.61L261.315,3405.61L261.315,3405.51L259.122,3405.13C258.902,3404.07 258.792,3402.47 258.792,3400.33L258.792,3396.76C258.792,3395.59 258.818,3394.39 258.871,3393.14C258.925,3391.89 259.008,3391.01 259.122,3390.48L261.294,3390.13L261.294,3390.03L253.554,3390.03L253.554,3390.13L256.375,3390.48C256.439,3390.97 256.488,3391.38 256.524,3391.73C256.559,3392.08 256.593,3392.54 256.625,3393.11C256.657,3393.68 256.673,3394.25 256.673,3394.82C256.673,3395.78 256.645,3396.6 256.588,3397.29C255.843,3397.4 255.019,3397.48 254.118,3397.52C253.217,3397.56 252.252,3397.59 251.222,3397.59C249.15,3397.59 247.596,3397.49 246.559,3397.29C246.517,3396.41 246.496,3395.68 246.496,3395.08C246.496,3394.39 246.522,3393.56 246.575,3392.57C246.629,3391.58 246.694,3390.9 246.772,3390.51L249.594,3390.13L249.594,3390.03L241.854,3390.03L241.854,3390.13L244.026,3390.48C244.082,3390.78 244.138,3391.24 244.19,3391.86C244.244,3392.49 244.281,3393.12 244.303,3393.76C244.324,3394.39 244.334,3394.77 244.334,3394.88L244.334,3398.81C244.334,3399.43 244.317,3400.21 244.281,3401.12C244.246,3402.04 244.199,3402.87 244.143,3403.61C244.086,3404.34 244.033,3404.85 243.983,3405.13L241.832,3405.51L241.832,3405.61L249.594,3405.61L249.594,3405.51Z" style="fill:white;fill-rule:nonzero;"/>
            </g>
            <g transform="matrix(1,0,0,1,0,-3295.5)">
                <path d="M265.108,3390.3L265.849,3390.3L265.849,3405.19L265.108,3405.19L265.108,3390.3ZM264.689,3392.41C264.732,3393.09 264.764,3393.75 264.786,3394.38C264.807,3395.01 264.817,3395.5 264.817,3395.85L264.817,3398.55C264.817,3398.93 264.81,3399.38 264.796,3399.88C264.782,3400.39 264.757,3401.01 264.721,3401.76C264.685,3402.51 264.644,3403.18 264.598,3403.78C264.551,3404.39 264.499,3404.83 264.441,3405.13L261.874,3405.5L261.874,3405.61L273.443,3405.61L273.679,3402.25L273.529,3402.25L272.67,3404.84C272.111,3404.9 271.423,3404.93 270.607,3404.93C269.189,3404.93 268.044,3404.8 267.17,3404.54C267.113,3404.06 267.073,3403.49 267.052,3402.82C267.03,3402.16 267.012,3401.32 266.998,3400.3C266.962,3399.51 266.991,3398.7 267.084,3397.87C267.857,3397.78 268.717,3397.74 269.662,3397.74C270.414,3397.74 271.101,3397.77 271.724,3397.85L272.229,3399.78L272.412,3399.78L272.412,3395.2L272.229,3395.2L271.746,3397.03C270.886,3397.12 270.052,3397.17 269.243,3397.17C268.935,3397.17 268.215,3397.14 267.084,3397.07C267.026,3396.49 266.998,3395.74 266.998,3394.81C266.998,3393.32 267.069,3391.99 267.213,3390.83C268.058,3390.64 269.171,3390.54 270.553,3390.54C271.313,3390.54 271.996,3390.56 272.605,3390.61L273.378,3393.23L273.55,3393.23L273.282,3389.89L261.842,3389.89L261.842,3389.99L264.506,3390.37C264.585,3391.05 264.646,3391.73 264.689,3392.41" style="fill:white;fill-rule:nonzero;"/>
            </g>
            <g transform="matrix(1,0,0,1,126.199,123.881)">
                <path d="M0,5.73L0.883,5.73L0.883,10.551L0,10.88L0,5.73ZM-3.464,12.25C-4.131,12.329 -4.659,12.369 -5.045,12.369C-7.117,12.369 -8.917,11.956 -10.445,11.131C-11.973,10.305 -13.145,9.192 -13.962,7.792C-14.779,6.391 -15.187,4.874 -15.187,3.24C-15.187,1.845 -14.948,0.534 -14.469,-0.691C-13.99,-1.916 -13.315,-2.974 -12.441,-3.865C-11.567,-4.757 -10.531,-5.448 -9.332,-5.94C-8.133,-6.432 -6.823,-6.678 -5.4,-6.678C-4.926,-6.678 -4.395,-6.651 -3.807,-6.599L-3.807,-6.493L-4.268,-6.493C-5.848,-6.493 -7.269,-6.263 -8.529,-5.802C-9.789,-5.341 -10.836,-4.693 -11.67,-3.859C-12.504,-3.025 -13.139,-2.037 -13.573,-0.895C-14.008,0.246 -14.225,1.493 -14.225,2.845C-14.225,3.943 -14.035,5.041 -13.653,6.138C-13.271,7.236 -12.654,8.246 -11.802,9.168C-10.95,10.09 -9.831,10.819 -8.443,11.354C-7.056,11.89 -5.396,12.154 -3.464,12.145L-3.464,12.25ZM-4.057,5.348L-0.658,5.809C-0.474,6.494 -0.382,7.438 -0.382,8.641C-0.382,9.511 -0.474,10.336 -0.658,11.117C-1.115,11.188 -1.521,11.251 -1.877,11.308C-2.233,11.365 -2.577,11.412 -2.911,11.447C-3.245,11.482 -3.57,11.499 -3.886,11.499C-5.098,11.499 -6.243,11.269 -7.324,10.808C-8.403,10.347 -9.35,9.704 -10.162,8.878C-10.974,8.053 -11.602,7.105 -12.045,6.033C-12.489,4.962 -12.711,3.825 -12.711,2.622C-12.711,1.559 -12.553,0.519 -12.236,-0.5C-11.92,-1.519 -11.418,-2.447 -10.728,-3.286C-10.039,-4.124 -9.128,-4.792 -7.995,-5.288C-6.862,-5.784 -5.528,-6.032 -3.991,-6.032C-3.262,-6.032 -2.584,-5.997 -1.956,-5.927C-1.328,-5.857 -0.764,-5.775 -0.263,-5.683C0.237,-5.591 0.654,-5.501 0.988,-5.413L1.831,-2.476L2.015,-2.476L1.831,-6.875C1.278,-6.822 0.558,-6.796 -0.329,-6.796C-1.287,-6.796 -2.301,-6.831 -3.372,-6.902C-3.741,-6.919 -4.035,-6.932 -4.255,-6.941C-4.474,-6.95 -4.656,-6.959 -4.801,-6.968C-4.946,-6.976 -5.146,-6.981 -5.4,-6.981C-7.025,-6.981 -8.48,-6.706 -9.767,-6.157C-11.053,-5.609 -12.14,-4.853 -13.027,-3.892C-13.914,-2.93 -14.585,-1.837 -15.042,-0.612C-15.499,0.613 -15.727,1.897 -15.727,3.24C-15.727,4.382 -15.521,5.515 -15.108,6.639C-14.695,7.763 -14.061,8.784 -13.204,9.701C-12.348,10.619 -11.262,11.35 -9.944,11.895C-8.627,12.439 -7.104,12.711 -5.374,12.711C-4.329,12.711 -3.365,12.627 -2.483,12.461C-1.6,12.294 -0.841,12.105 -0.204,11.895C0.432,11.684 1.256,11.381 2.265,10.986C2.257,10.195 2.287,9.3 2.358,8.299C2.428,7.298 2.52,6.477 2.634,5.835L4.742,5.348L4.742,5.19L-4.057,5.19L-4.057,5.348Z" style="fill:white;fill-rule:nonzero;"/>
            </g>
            <g transform="matrix(1,0,0,1,148.077,117.52)">
                <path d="M0,18.453L-6.836,2.08L-6.401,0.974L0.883,18.453L0,18.453ZM-6.942,12.17C-7.565,12.17 -8.221,12.157 -8.911,12.13C-9.6,12.104 -10.204,12.056 -10.722,11.986C-10.608,11.705 -10.379,11.123 -10.037,10.24C-9.695,9.358 -9.365,8.526 -9.049,7.744C-8.733,6.963 -8.38,6.124 -7.989,5.229C-7.598,4.333 -7.284,3.652 -7.047,3.187C-6.388,4.399 -5.659,5.92 -4.86,7.751C-4.061,9.582 -3.495,10.994 -3.161,11.986C-4.145,12.109 -5.405,12.17 -6.942,12.17M0.053,13.092L-5.651,-0.514L-6.691,-0.514L-12.79,15.002C-13.282,16.232 -13.822,17.355 -14.41,18.374L-16.833,18.835L-16.833,18.967L-9.47,18.967L-9.47,18.835L-12.921,18.374C-12.86,17.961 -12.73,17.448 -12.533,16.833C-12.335,16.218 -12.129,15.626 -11.914,15.055C-11.699,14.484 -11.416,13.755 -11.064,12.868L-2.806,12.868C-2.376,13.623 -1.982,14.513 -1.627,15.536C-1.271,16.558 -1.027,17.505 -0.896,18.374L-4.478,18.835L-4.478,18.967L4.821,18.967L4.821,18.835L2.634,18.374C1.651,16.627 0.79,14.866 0.053,13.092" style="fill:white;fill-rule:nonzero;"/>
            </g>
            <g transform="matrix(1,0,0,1,0,-3246.31)">
                <path d="M158.246,3382.28L157.324,3382.28L157.324,3364L158.246,3364L158.246,3382.28ZM167.98,3381.59C167.716,3381.66 167.26,3381.75 166.61,3381.84C165.96,3381.92 165.249,3381.97 164.476,3381.97C162.877,3381.97 161.328,3381.73 159.826,3381.26C159.686,3379.78 159.616,3378.36 159.616,3377L159.616,3371.34C159.616,3370.26 159.655,3369 159.734,3367.55C159.813,3366.11 159.91,3364.96 160.024,3364.11L163.29,3363.65L163.29,3363.51L153.333,3363.51L153.333,3363.65L156.599,3364.11C156.678,3364.56 156.742,3365.15 156.79,3365.86C156.838,3366.57 156.88,3367.4 156.916,3368.34C156.95,3369.28 156.968,3370.12 156.968,3370.85L156.968,3374.17C156.968,3374.64 156.946,3375.46 156.902,3376.61C156.858,3377.76 156.799,3378.87 156.725,3379.95C156.65,3381.03 156.56,3381.78 156.454,3382.2L153.306,3382.67L153.306,3382.8L168.928,3382.8L169.547,3377.99L169.349,3377.99L167.98,3381.59Z" style="fill:white;fill-rule:nonzero;"/>
            </g>
            <g transform="matrix(1,0,0,1,0,-3246.31)">
                <path d="M175.105,3382.28L174.183,3382.28L174.183,3364L175.105,3364L175.105,3382.28ZM184.839,3381.59C184.576,3381.66 184.119,3381.75 183.469,3381.84C182.819,3381.92 182.108,3381.97 181.335,3381.97C179.737,3381.97 178.187,3381.73 176.686,3381.26C176.545,3379.78 176.475,3378.36 176.475,3377L176.475,3371.34C176.475,3370.26 176.515,3369 176.594,3367.55C176.673,3366.11 176.769,3364.96 176.884,3364.11L180.15,3363.65L180.15,3363.51L170.192,3363.51L170.192,3363.65L173.459,3364.11C173.538,3364.56 173.601,3365.15 173.65,3365.86C173.698,3366.57 173.74,3367.4 173.775,3368.34C173.81,3369.28 173.828,3370.12 173.828,3370.85L173.828,3374.17C173.828,3374.64 173.806,3375.46 173.762,3376.61C173.718,3377.76 173.658,3378.87 173.584,3379.95C173.509,3381.03 173.419,3381.78 173.314,3382.2L170.166,3382.67L170.166,3382.8L185.788,3382.8L186.407,3377.99L186.209,3377.99L184.839,3381.59Z" style="fill:white;fill-rule:nonzero;"/>
            </g>
            <g transform="matrix(1,0,0,1,206.862,122.84)">
                <path d="M0,7.864C-0.457,9.023 -1.078,10.004 -1.864,10.808C-2.65,11.611 -3.548,12.228 -4.557,12.658C-5.567,13.089 -6.634,13.33 -7.758,13.383L-7.758,13.238C-6.423,13.106 -5.277,12.759 -4.32,12.197C-3.363,11.635 -2.588,10.924 -1.995,10.063C-1.403,9.203 -0.973,8.263 -0.705,7.245C-0.437,6.226 -0.303,5.159 -0.303,4.044C-0.303,2.341 -0.531,0.883 -0.988,-0.329C-1.444,-1.541 -2.048,-2.504 -2.799,-3.22C-3.549,-3.936 -4.355,-4.463 -5.216,-4.801C-6.076,-5.139 -6.933,-5.339 -7.784,-5.4L-7.784,-5.532C-6.713,-5.505 -5.679,-5.29 -4.682,-4.886C-3.686,-4.482 -2.779,-3.885 -1.963,-3.095C-1.146,-2.305 -0.5,-1.314 -0.026,-0.125C0.448,1.065 0.685,2.437 0.685,3.991C0.685,5.414 0.457,6.705 0,7.864M-8.43,12.895C-9.668,12.895 -10.869,12.568 -12.032,11.914C-13.196,11.26 -14.149,10.255 -14.891,8.898C-15.633,7.541 -16.003,5.879 -16.003,3.912C-16.003,2.086 -15.663,0.501 -14.983,-0.843C-14.302,-2.186 -13.385,-3.214 -12.23,-3.925C-11.075,-4.636 -9.817,-4.992 -8.456,-4.992C-7.516,-4.992 -6.605,-4.829 -5.723,-4.504C-4.841,-4.179 -4.052,-3.67 -3.358,-2.976C-2.542,-2.16 -1.923,-1.207 -1.501,-0.118C-1.08,0.971 -0.869,2.428 -0.869,4.255C-0.869,5.59 -1.069,6.799 -1.468,7.884C-1.868,8.968 -2.423,9.881 -3.135,10.623C-3.846,11.365 -4.654,11.929 -5.558,12.316C-6.463,12.702 -7.42,12.895 -8.43,12.895M-9.049,13.383C-10.805,13.33 -12.417,12.852 -13.883,11.947C-15.349,11.043 -16.497,9.868 -17.327,8.424C-18.157,6.979 -18.572,5.493 -18.572,3.965C-18.572,2.718 -18.324,1.528 -17.828,0.395C-17.332,-0.737 -16.64,-1.747 -15.753,-2.634C-14.866,-3.521 -13.839,-4.223 -12.671,-4.741C-11.503,-5.26 -10.304,-5.523 -9.075,-5.532L-9.075,-5.4C-10.34,-5.286 -11.501,-4.961 -12.559,-4.425C-13.617,-3.89 -14.519,-3.192 -15.266,-2.331C-16.012,-1.47 -16.583,-0.491 -16.978,0.606C-17.373,1.704 -17.571,2.85 -17.571,4.044C-17.571,5.493 -17.231,6.894 -16.55,8.246C-15.87,9.598 -14.875,10.731 -13.567,11.644C-12.258,12.558 -10.753,13.089 -9.049,13.238L-9.049,13.383ZM-0.309,-2.529C-1.183,-3.538 -2.305,-4.355 -3.675,-4.979C-5.045,-5.602 -6.665,-5.914 -8.535,-5.914C-10.072,-5.914 -11.499,-5.646 -12.816,-5.11C-14.133,-4.574 -15.264,-3.835 -16.207,-2.891C-17.152,-1.947 -17.872,-0.878 -18.368,0.316C-18.864,1.511 -19.112,2.745 -19.112,4.018C-19.112,5.458 -18.721,6.933 -17.94,8.443C-17.158,9.954 -15.946,11.22 -14.304,12.243C-12.662,13.267 -10.66,13.778 -8.298,13.778C-6.665,13.778 -5.183,13.493 -3.852,12.922C-2.522,12.351 -1.407,11.589 -0.507,10.636C0.393,9.684 1.074,8.632 1.535,7.482C1.996,6.332 2.226,5.159 2.226,3.965C2.226,2.92 2.022,1.829 1.614,0.692C1.205,-0.445 0.564,-1.519 -0.309,-2.529" style="fill:white;fill-rule:nonzero;"/>
            </g>
            <g transform="matrix(1,0,0,1,224.038,127.595)">
                <path d="M0,-1.554C-0.632,-0.79 -1.328,-0.274 -2.088,-0.006C-2.847,0.261 -3.473,0.395 -3.965,0.395L-4.202,0.395L-4.202,0.237C-3.579,0.176 -2.95,-0.013 -2.318,-0.329C-1.686,-0.645 -1.142,-1.155 -0.685,-1.857C-0.229,-2.56 0,-3.446 0,-4.518C0,-5.457 -0.189,-6.335 -0.567,-7.152C-0.944,-7.969 -1.504,-8.634 -2.246,-9.148C-2.988,-9.661 -3.855,-9.944 -4.847,-9.997L-4.847,-10.129L-4.373,-10.129C-3.118,-10.129 -2.088,-9.854 -1.284,-9.306C-0.481,-8.757 0.092,-8.065 0.435,-7.231C0.777,-6.397 0.948,-5.563 0.948,-4.728C0.948,-3.376 0.632,-2.318 0,-1.554M-8.733,8.351L-9.655,8.351L-9.655,-9.944L-8.733,-9.944L-8.733,8.351ZM0.948,-8.838C0.413,-9.374 -0.268,-9.775 -1.093,-10.043C-1.919,-10.311 -3.065,-10.445 -4.531,-10.445L-13.672,-10.445L-13.646,-10.287L-10.379,-9.826C-10.274,-9.053 -10.186,-7.975 -10.116,-6.592C-10.046,-5.209 -10.011,-3.96 -10.011,-2.845L-10.011,0.316C-10.011,0.887 -10.03,1.754 -10.07,2.918C-10.109,4.081 -10.156,5.076 -10.208,5.901C-10.261,6.727 -10.335,7.508 -10.432,8.246L-13.62,8.706L-13.672,8.891L-3.807,8.891L-3.662,8.733L-6.955,8.246C-7.043,7.789 -7.109,7.223 -7.152,6.547C-7.196,5.87 -7.238,5.069 -7.278,4.143C-7.317,3.216 -7.337,2.621 -7.337,2.358L-7.337,-3.925C-7.337,-4.487 -7.302,-5.466 -7.231,-6.862C-7.161,-8.259 -7.095,-9.132 -7.034,-9.484C-6.463,-9.624 -5.809,-9.694 -5.071,-9.694C-3.543,-9.694 -2.389,-9.141 -1.607,-8.035C-0.826,-6.928 -0.435,-5.747 -0.435,-4.491C-0.435,-3.411 -0.689,-2.513 -1.199,-1.798C-1.708,-1.082 -2.382,-0.555 -3.22,-0.217C-4.059,0.121 -4.97,0.29 -5.954,0.29C-6.331,0.29 -6.612,0.281 -6.797,0.264L-6.797,0.395C-5.989,0.553 -5.089,0.632 -4.096,0.632C-2.841,0.632 -1.723,0.367 -0.744,-0.165C0.235,-0.696 0.995,-1.403 1.534,-2.285C2.074,-3.168 2.345,-4.127 2.345,-5.163C2.345,-5.857 2.224,-6.531 1.982,-7.185C1.741,-7.839 1.396,-8.39 0.948,-8.838" style="fill:white;fill-rule:nonzero;"/>
            </g>
            <g transform="matrix(1,0,0,1,0,-3246.31)">
                <path d="M231.243,3364.03L232.165,3364.03L232.165,3382.28L231.243,3382.28L231.243,3364.03ZM227.226,3363.65L230.493,3364.11C230.756,3365.99 230.888,3368.43 230.888,3371.44L230.888,3373.66C230.888,3375.14 230.85,3376.66 230.776,3378.21C230.701,3379.76 230.589,3381.08 230.44,3382.18L227.226,3382.67L227.226,3382.8L237.184,3382.8L237.184,3382.67L233.917,3382.2C233.856,3381.78 233.792,3381.15 233.726,3380.31C233.66,3379.47 233.608,3378.43 233.568,3377.22C233.529,3376 233.509,3375.13 233.509,3374.59L233.509,3371.68C233.509,3370.82 233.526,3369.9 233.562,3368.92C233.596,3367.94 233.636,3367.11 233.68,3366.42C233.724,3365.73 233.794,3364.96 233.891,3364.11L237.184,3363.65L237.184,3363.51L227.226,3363.51L227.226,3363.65Z" style="fill:white;fill-rule:nonzero;"/>
            </g>
            <g transform="matrix(1,0,0,1,257.324,118.823)">
                <path d="M0,16.557L-15.912,-1.132L-14.805,-1.132L0,15.319L0,16.557ZM-3.583,-1.488L-0.382,-1.001C-0.18,0.334 -0.079,2.024 -0.079,4.07L-0.079,9.76C-0.079,10.226 -0.088,10.722 -0.106,11.249C-0.123,11.776 -0.158,12.342 -0.211,12.948C-0.905,12.281 -1.469,11.714 -1.903,11.249C-2.338,10.784 -2.946,10.125 -3.728,9.273L-9.629,2.713C-10.173,2.108 -10.794,1.383 -11.493,0.54C-12.191,-0.303 -12.759,-1.023 -13.198,-1.62L-19.85,-1.62L-19.85,-1.488L-17.426,-1.001L-15.674,0.29C-15.604,1.027 -15.556,1.772 -15.53,2.523C-15.503,3.273 -15.49,4.031 -15.49,4.795L-15.49,11.249C-15.49,12.162 -15.512,13.203 -15.556,14.37C-15.6,15.538 -15.674,16.438 -15.78,17.071L-19.02,17.532L-19.02,17.663L-11.012,17.663L-11.012,17.532L-14.357,17.044C-14.533,15.499 -14.621,14.169 -14.621,13.053L-14.621,4.716C-14.621,3.68 -14.559,2.564 -14.436,1.37C-13.593,2.125 -12.575,3.14 -11.38,4.413L-3.319,13.396C-2.002,14.88 -0.672,16.474 0.671,18.177L0.804,18.177L0.804,3.741C0.804,1.827 0.887,0.255 1.053,-0.974L4.255,-1.488L4.255,-1.62L-3.583,-1.62L-3.583,-1.488Z" style="fill:white;fill-rule:nonzero;"/>
            </g>
            <g transform="matrix(1,0,0,1,278.793,123.881)">
                <path d="M0,5.73L0.883,5.73L0.883,10.551L0,10.88L0,5.73ZM-3.464,12.25C-4.131,12.329 -4.659,12.369 -5.045,12.369C-7.117,12.369 -8.917,11.956 -10.445,11.131C-11.973,10.305 -13.145,9.192 -13.962,7.792C-14.779,6.391 -15.187,4.874 -15.187,3.24C-15.187,1.845 -14.948,0.534 -14.469,-0.691C-13.99,-1.916 -13.315,-2.974 -12.441,-3.865C-11.567,-4.757 -10.531,-5.448 -9.332,-5.94C-8.133,-6.432 -6.823,-6.678 -5.401,-6.678C-4.926,-6.678 -4.395,-6.651 -3.807,-6.599L-3.807,-6.493L-4.268,-6.493C-5.848,-6.493 -7.269,-6.263 -8.529,-5.802C-9.789,-5.341 -10.836,-4.693 -11.67,-3.859C-12.504,-3.025 -13.139,-2.037 -13.573,-0.895C-14.008,0.246 -14.225,1.493 -14.225,2.845C-14.225,3.943 -14.035,5.041 -13.653,6.138C-13.271,7.236 -12.654,8.246 -11.802,9.168C-10.95,10.09 -9.831,10.819 -8.443,11.354C-7.056,11.89 -5.396,12.154 -3.464,12.145L-3.464,12.25ZM-4.057,5.348L-0.658,5.809C-0.474,6.494 -0.382,7.438 -0.382,8.641C-0.382,9.511 -0.474,10.336 -0.658,11.117C-1.115,11.188 -1.521,11.251 -1.877,11.308C-2.233,11.365 -2.577,11.412 -2.911,11.447C-3.245,11.482 -3.57,11.499 -3.886,11.499C-5.098,11.499 -6.243,11.269 -7.324,10.808C-8.403,10.347 -9.35,9.704 -10.162,8.878C-10.974,8.053 -11.602,7.105 -12.045,6.033C-12.489,4.962 -12.711,3.825 -12.711,2.622C-12.711,1.559 -12.553,0.519 -12.236,-0.5C-11.921,-1.519 -11.418,-2.447 -10.728,-3.286C-10.039,-4.124 -9.128,-4.792 -7.995,-5.288C-6.862,-5.784 -5.528,-6.032 -3.991,-6.032C-3.262,-6.032 -2.584,-5.997 -1.956,-5.927C-1.328,-5.857 -0.764,-5.775 -0.263,-5.683C0.237,-5.591 0.654,-5.501 0.988,-5.413L1.831,-2.476L2.015,-2.476L1.831,-6.875C1.278,-6.822 0.558,-6.796 -0.329,-6.796C-1.287,-6.796 -2.301,-6.831 -3.372,-6.902C-3.741,-6.919 -4.035,-6.932 -4.255,-6.941C-4.474,-6.95 -4.656,-6.959 -4.801,-6.968C-4.946,-6.976 -5.146,-6.981 -5.401,-6.981C-7.025,-6.981 -8.48,-6.706 -9.767,-6.157C-11.053,-5.609 -12.14,-4.853 -13.027,-3.892C-13.914,-2.93 -14.585,-1.837 -15.042,-0.612C-15.499,0.613 -15.727,1.897 -15.727,3.24C-15.727,4.382 -15.521,5.515 -15.108,6.639C-14.695,7.763 -14.061,8.784 -13.204,9.701C-12.348,10.619 -11.262,11.35 -9.944,11.895C-8.627,12.439 -7.104,12.711 -5.374,12.711C-4.329,12.711 -3.365,12.627 -2.483,12.461C-1.6,12.294 -0.841,12.105 -0.204,11.895C0.432,11.684 1.256,11.381 2.265,10.986C2.257,10.195 2.287,9.3 2.358,8.299C2.428,7.298 2.52,6.477 2.634,5.835L4.742,5.348L4.742,5.19L-4.057,5.19L-4.057,5.348Z" style="fill:white;fill-rule:nonzero;"/>
            </g>
            <g transform="matrix(1,0,0,1,310.432,123.881)">
                <path d="M0,5.73L0.883,5.73L0.883,10.551L0,10.88L0,5.73ZM-3.464,12.25C-4.131,12.329 -4.659,12.369 -5.045,12.369C-7.117,12.369 -8.917,11.956 -10.445,11.131C-11.973,10.305 -13.145,9.192 -13.962,7.792C-14.779,6.391 -15.187,4.874 -15.187,3.24C-15.187,1.845 -14.948,0.534 -14.469,-0.691C-13.99,-1.916 -13.315,-2.974 -12.44,-3.865C-11.567,-4.757 -10.531,-5.448 -9.332,-5.94C-8.133,-6.432 -6.823,-6.678 -5.4,-6.678C-4.926,-6.678 -4.395,-6.651 -3.806,-6.599L-3.806,-6.493L-4.268,-6.493C-5.848,-6.493 -7.269,-6.263 -8.529,-5.802C-9.789,-5.341 -10.836,-4.693 -11.67,-3.859C-12.504,-3.025 -13.139,-2.037 -13.573,-0.895C-14.008,0.246 -14.225,1.493 -14.225,2.845C-14.225,3.943 -14.034,5.041 -13.652,6.138C-13.271,7.236 -12.654,8.246 -11.802,9.168C-10.95,10.09 -9.831,10.819 -8.443,11.354C-7.056,11.89 -5.396,12.154 -3.464,12.145L-3.464,12.25ZM-4.057,5.348L-0.658,5.809C-0.474,6.494 -0.382,7.438 -0.382,8.641C-0.382,9.511 -0.474,10.336 -0.658,11.117C-1.115,11.188 -1.521,11.251 -1.877,11.308C-2.233,11.365 -2.577,11.412 -2.911,11.447C-3.245,11.482 -3.57,11.499 -3.886,11.499C-5.098,11.499 -6.243,11.269 -7.324,10.808C-8.403,10.347 -9.35,9.704 -10.162,8.878C-10.974,8.053 -11.602,7.105 -12.045,6.033C-12.489,4.962 -12.711,3.825 -12.711,2.622C-12.711,1.559 -12.553,0.519 -12.236,-0.5C-11.92,-1.519 -11.418,-2.447 -10.728,-3.286C-10.039,-4.124 -9.128,-4.792 -7.995,-5.288C-6.862,-5.784 -5.528,-6.032 -3.991,-6.032C-3.262,-6.032 -2.584,-5.997 -1.956,-5.927C-1.328,-5.857 -0.764,-5.775 -0.263,-5.683C0.237,-5.591 0.654,-5.501 0.988,-5.413L1.831,-2.476L2.015,-2.476L1.831,-6.875C1.278,-6.822 0.558,-6.796 -0.329,-6.796C-1.287,-6.796 -2.301,-6.831 -3.372,-6.902C-3.741,-6.919 -4.035,-6.932 -4.255,-6.941C-4.474,-6.95 -4.656,-6.959 -4.801,-6.968C-4.946,-6.976 -5.146,-6.981 -5.4,-6.981C-7.025,-6.981 -8.48,-6.706 -9.767,-6.157C-11.053,-5.609 -12.14,-4.853 -13.027,-3.892C-13.914,-2.93 -14.585,-1.837 -15.042,-0.612C-15.499,0.613 -15.727,1.897 -15.727,3.24C-15.727,4.382 -15.521,5.515 -15.108,6.639C-14.695,7.763 -14.061,8.784 -13.204,9.701C-12.348,10.619 -11.262,11.35 -9.944,11.895C-8.627,12.439 -7.104,12.711 -5.374,12.711C-4.329,12.711 -3.365,12.627 -2.483,12.461C-1.6,12.294 -0.841,12.105 -0.204,11.895C0.432,11.684 1.256,11.381 2.265,10.986C2.257,10.195 2.288,9.3 2.358,8.299C2.428,7.298 2.52,6.477 2.634,5.835L4.742,5.348L4.742,5.19L-4.057,5.19L-4.057,5.348Z" style="fill:white;fill-rule:nonzero;"/>
            </g>
            <g transform="matrix(1,0,0,1,335.445,122.84)">
                <path d="M0,7.864C-0.457,9.023 -1.078,10.004 -1.864,10.808C-2.65,11.611 -3.548,12.228 -4.557,12.658C-5.567,13.089 -6.634,13.33 -7.758,13.383L-7.758,13.238C-6.423,13.106 -5.277,12.759 -4.32,12.197C-3.363,11.635 -2.588,10.924 -1.995,10.063C-1.403,9.203 -0.973,8.263 -0.705,7.245C-0.437,6.226 -0.303,5.159 -0.303,4.044C-0.303,2.341 -0.531,0.883 -0.988,-0.329C-1.444,-1.541 -2.048,-2.504 -2.799,-3.22C-3.549,-3.936 -4.355,-4.463 -5.216,-4.801C-6.076,-5.139 -6.933,-5.339 -7.784,-5.4L-7.784,-5.532C-6.713,-5.505 -5.679,-5.29 -4.682,-4.886C-3.686,-4.482 -2.779,-3.885 -1.963,-3.095C-1.146,-2.305 -0.5,-1.314 -0.026,-0.125C0.448,1.065 0.685,2.437 0.685,3.991C0.685,5.414 0.457,6.705 0,7.864M-8.43,12.895C-9.668,12.895 -10.869,12.568 -12.032,11.914C-13.196,11.26 -14.149,10.255 -14.891,8.898C-15.633,7.541 -16.003,5.879 -16.003,3.912C-16.003,2.086 -15.663,0.501 -14.983,-0.843C-14.302,-2.186 -13.385,-3.214 -12.23,-3.925C-11.075,-4.636 -9.817,-4.992 -8.456,-4.992C-7.516,-4.992 -6.605,-4.829 -5.723,-4.504C-4.841,-4.179 -4.052,-3.67 -3.358,-2.976C-2.542,-2.16 -1.923,-1.207 -1.501,-0.118C-1.08,0.971 -0.869,2.428 -0.869,4.255C-0.869,5.59 -1.069,6.799 -1.468,7.884C-1.868,8.968 -2.423,9.881 -3.135,10.623C-3.846,11.365 -4.654,11.929 -5.558,12.316C-6.463,12.702 -7.42,12.895 -8.43,12.895M-9.049,13.383C-10.805,13.33 -12.417,12.852 -13.883,11.947C-15.349,11.043 -16.497,9.868 -17.327,8.424C-18.157,6.979 -18.572,5.493 -18.572,3.965C-18.572,2.718 -18.324,1.528 -17.828,0.395C-17.332,-0.737 -16.64,-1.747 -15.753,-2.634C-14.866,-3.521 -13.839,-4.223 -12.671,-4.741C-11.503,-5.26 -10.304,-5.523 -9.075,-5.532L-9.075,-5.4C-10.34,-5.286 -11.501,-4.961 -12.559,-4.425C-13.617,-3.89 -14.519,-3.192 -15.266,-2.331C-16.012,-1.47 -16.583,-0.491 -16.978,0.606C-17.373,1.704 -17.571,2.85 -17.571,4.044C-17.571,5.493 -17.231,6.894 -16.55,8.246C-15.87,9.598 -14.875,10.731 -13.567,11.644C-12.258,12.558 -10.753,13.089 -9.049,13.238L-9.049,13.383ZM-0.309,-2.529C-1.183,-3.538 -2.305,-4.355 -3.675,-4.979C-5.045,-5.602 -6.665,-5.914 -8.535,-5.914C-10.072,-5.914 -11.499,-5.646 -12.816,-5.11C-14.133,-4.574 -15.264,-3.835 -16.207,-2.891C-17.152,-1.947 -17.872,-0.878 -18.368,0.316C-18.864,1.511 -19.112,2.745 -19.112,4.018C-19.112,5.458 -18.721,6.933 -17.94,8.443C-17.158,9.954 -15.946,11.22 -14.304,12.243C-12.662,13.267 -10.66,13.778 -8.298,13.778C-6.665,13.778 -5.183,13.493 -3.852,12.922C-2.522,12.351 -1.407,11.589 -0.507,10.636C0.393,9.684 1.074,8.632 1.535,7.482C1.996,6.332 2.226,5.159 2.226,3.965C2.226,2.92 2.022,1.829 1.614,0.692C1.205,-0.445 0.564,-1.519 -0.309,-2.529" style="fill:white;fill-rule:nonzero;"/>
            </g>
            <g transform="matrix(1,0,0,1,358.785,122.84)">
                <path d="M0,7.864C-0.457,9.023 -1.078,10.004 -1.864,10.808C-2.65,11.611 -3.548,12.228 -4.557,12.658C-5.567,13.089 -6.634,13.33 -7.758,13.383L-7.758,13.238C-6.423,13.106 -5.277,12.759 -4.32,12.197C-3.363,11.635 -2.588,10.924 -1.995,10.063C-1.403,9.203 -0.973,8.263 -0.705,7.245C-0.437,6.226 -0.303,5.159 -0.303,4.044C-0.303,2.341 -0.531,0.883 -0.988,-0.329C-1.444,-1.541 -2.048,-2.504 -2.799,-3.22C-3.549,-3.936 -4.355,-4.463 -5.216,-4.801C-6.076,-5.139 -6.933,-5.339 -7.784,-5.4L-7.784,-5.532C-6.713,-5.505 -5.679,-5.29 -4.682,-4.886C-3.686,-4.482 -2.779,-3.885 -1.963,-3.095C-1.146,-2.305 -0.5,-1.314 -0.026,-0.125C0.448,1.065 0.685,2.437 0.685,3.991C0.685,5.414 0.457,6.705 0,7.864M-8.43,12.895C-9.668,12.895 -10.869,12.568 -12.032,11.914C-13.196,11.26 -14.149,10.255 -14.891,8.898C-15.633,7.541 -16.003,5.879 -16.003,3.912C-16.003,2.086 -15.663,0.501 -14.983,-0.843C-14.302,-2.186 -13.385,-3.214 -12.23,-3.925C-11.075,-4.636 -9.817,-4.992 -8.456,-4.992C-7.516,-4.992 -6.605,-4.829 -5.723,-4.504C-4.841,-4.179 -4.052,-3.67 -3.358,-2.976C-2.542,-2.16 -1.923,-1.207 -1.501,-0.118C-1.08,0.971 -0.869,2.428 -0.869,4.255C-0.869,5.59 -1.069,6.799 -1.468,7.884C-1.868,8.968 -2.423,9.881 -3.135,10.623C-3.846,11.365 -4.654,11.929 -5.558,12.316C-6.463,12.702 -7.42,12.895 -8.43,12.895M-9.049,13.383C-10.805,13.33 -12.417,12.852 -13.883,11.947C-15.349,11.043 -16.497,9.868 -17.327,8.424C-18.157,6.979 -18.572,5.493 -18.572,3.965C-18.572,2.718 -18.324,1.528 -17.828,0.395C-17.332,-0.737 -16.64,-1.747 -15.753,-2.634C-14.866,-3.521 -13.839,-4.223 -12.671,-4.741C-11.503,-5.26 -10.305,-5.523 -9.075,-5.532L-9.075,-5.4C-10.34,-5.286 -11.501,-4.961 -12.559,-4.425C-13.617,-3.89 -14.519,-3.192 -15.266,-2.331C-16.012,-1.47 -16.583,-0.491 -16.978,0.606C-17.373,1.704 -17.571,2.85 -17.571,4.044C-17.571,5.493 -17.231,6.894 -16.55,8.246C-15.87,9.598 -14.875,10.731 -13.567,11.644C-12.258,12.558 -10.753,13.089 -9.049,13.238L-9.049,13.383ZM-0.309,-2.529C-1.183,-3.538 -2.305,-4.355 -3.675,-4.979C-5.045,-5.602 -6.665,-5.914 -8.535,-5.914C-10.072,-5.914 -11.499,-5.646 -12.816,-5.11C-14.133,-4.574 -15.264,-3.835 -16.207,-2.891C-17.152,-1.947 -17.872,-0.878 -18.368,0.316C-18.864,1.511 -19.112,2.745 -19.112,4.018C-19.112,5.458 -18.721,6.933 -17.94,8.443C-17.158,9.954 -15.946,11.22 -14.304,12.243C-12.662,13.267 -10.66,13.778 -8.298,13.778C-6.665,13.778 -5.183,13.493 -3.852,12.922C-2.522,12.351 -1.407,11.589 -0.507,10.636C0.393,9.684 1.074,8.632 1.535,7.482C1.996,6.332 2.226,5.159 2.226,3.965C2.226,2.92 2.022,1.829 1.614,0.692C1.205,-0.445 0.564,-1.519 -0.309,-2.529" style="fill:white;fill-rule:nonzero;"/>
            </g>
            <g transform="matrix(1,0,0,1,372.971,121.588)">
                <path d="M0,10.393C0,11.113 -0.222,11.811 -0.665,12.487C-1.109,13.164 -1.75,13.708 -2.589,14.121C-3.427,14.534 -4.382,14.722 -5.453,14.687L-5.453,14.542C-4.523,14.534 -3.712,14.334 -3.023,13.943C-2.334,13.552 -1.807,13.047 -1.443,12.428C-1.078,11.809 -0.896,11.166 -0.896,10.498C-0.896,9.524 -1.291,8.641 -2.081,7.851C-2.371,7.552 -2.742,7.238 -3.194,6.909C-3.647,6.58 -4.25,6.158 -5.005,5.645C-5.761,5.131 -6.325,4.734 -6.698,4.453C-7.071,4.172 -7.473,3.825 -7.903,3.412C-8.878,2.437 -9.365,1.393 -9.365,0.277C-9.365,-0.618 -9.128,-1.422 -8.654,-2.133C-8.18,-2.845 -7.534,-3.393 -6.718,-3.78C-5.901,-4.166 -5.01,-4.359 -4.044,-4.359L-3.622,-4.359L-3.622,-4.228C-5.308,-4.183 -6.571,-3.744 -7.409,-2.91C-8.248,-2.076 -8.667,-1.176 -8.667,-0.21C-8.667,0.888 -8.206,1.893 -7.284,2.806C-6.907,3.166 -6.31,3.625 -5.493,4.183C-4.676,4.74 -3.868,5.294 -3.069,5.842C-2.27,6.391 -1.717,6.819 -1.409,7.127C-0.874,7.662 -0.505,8.185 -0.303,8.694C-0.101,9.204 0,9.77 0,10.393M-2.575,4.4C-3.467,3.82 -4.301,3.272 -5.078,2.754C-5.855,2.236 -6.467,1.706 -6.915,1.166C-7.363,0.626 -7.587,0.031 -7.587,-0.618C-7.587,-1.242 -7.421,-1.802 -7.087,-2.298C-6.753,-2.794 -6.285,-3.185 -5.684,-3.47C-5.082,-3.755 -4.404,-3.898 -3.649,-3.898C-2.744,-3.898 -1.682,-3.63 -0.461,-3.095L0.369,-0.052L0.54,-0.052L0.461,-4.557C0.338,-4.539 0.222,-4.524 0.112,-4.511C0.002,-4.498 -0.145,-4.489 -0.329,-4.484C-0.514,-4.48 -0.711,-4.473 -0.922,-4.465C-1.168,-4.465 -1.612,-4.493 -2.252,-4.55C-2.894,-4.607 -3.499,-4.636 -4.07,-4.636C-5.326,-4.636 -6.384,-4.388 -7.244,-3.892C-8.105,-3.395 -8.742,-2.774 -9.154,-2.028C-9.567,-1.281 -9.774,-0.531 -9.774,0.225C-9.774,0.909 -9.642,1.531 -9.379,2.089C-9.115,2.646 -8.716,3.201 -8.18,3.755C-7.556,4.378 -6.553,5.155 -5.17,6.086C-3.787,7.017 -2.802,7.781 -2.213,8.378C-1.625,8.975 -1.331,9.708 -1.331,10.578C-1.331,10.999 -1.423,11.432 -1.607,11.875C-1.791,12.319 -2.057,12.716 -2.404,13.067C-2.751,13.418 -3.199,13.708 -3.748,13.936C-4.296,14.165 -4.9,14.279 -5.559,14.279C-6.05,14.288 -6.632,14.222 -7.304,14.081C-7.976,13.941 -8.562,13.756 -9.062,13.528L-10.063,10.288L-10.248,10.288L-10.037,14.924C-10.002,14.924 -9.888,14.915 -9.695,14.898C-9.501,14.88 -9.359,14.867 -9.266,14.858C-9.174,14.85 -9.045,14.845 -8.878,14.845C-8.518,14.845 -7.954,14.876 -7.185,14.937C-6.417,14.999 -5.765,15.029 -5.229,15.029C-3.71,15.029 -2.472,14.744 -1.515,14.174C-0.558,13.603 0.123,12.907 0.527,12.086C0.93,11.265 1.133,10.468 1.133,9.695C1.133,8.325 0.61,7.118 -0.435,6.073C-0.971,5.537 -1.684,4.979 -2.575,4.4" style="fill:white;fill-rule:nonzero;"/>
            </g>
            <g transform="matrix(1,0,0,1,0,-3246.31)">
                <path d="M379.926,3382.28L379.017,3382.28L379.017,3364.03L379.926,3364.03L379.926,3382.28ZM389.344,3378.68L388.29,3381.85C387.605,3381.93 386.762,3381.97 385.761,3381.97C384.023,3381.97 382.617,3381.81 381.546,3381.48C381.476,3380.89 381.428,3380.19 381.401,3379.38C381.375,3378.57 381.353,3377.54 381.336,3376.29C381.292,3375.32 381.327,3374.32 381.441,3373.3C382.389,3373.2 383.443,3373.14 384.602,3373.14C385.524,3373.14 386.367,3373.19 387.131,3373.27L387.75,3375.64L387.974,3375.64L387.974,3370.03L387.75,3370.03L387.157,3372.27C386.104,3372.39 385.081,3372.44 384.088,3372.44C383.711,3372.44 382.828,3372.41 381.441,3372.33C381.37,3371.61 381.336,3370.69 381.336,3369.55C381.336,3367.72 381.423,3366.1 381.599,3364.67C382.635,3364.44 384.001,3364.32 385.695,3364.32C386.626,3364.32 387.465,3364.34 388.211,3364.4L389.159,3367.61L389.37,3367.61L389.041,3363.51L375.013,3363.51L375.013,3363.65L378.28,3364.11C378.376,3364.94 378.451,3365.78 378.503,3366.61C378.556,3367.44 378.596,3368.25 378.622,3369.03C378.649,3369.8 378.662,3370.4 378.662,3370.82L378.662,3374.14C378.662,3374.61 378.653,3375.15 378.635,3375.77C378.618,3376.39 378.587,3377.16 378.543,3378.08C378.499,3378.99 378.449,3379.82 378.392,3380.56C378.334,3381.3 378.271,3381.85 378.201,3382.2L375.052,3382.67L375.052,3382.8L389.238,3382.8L389.528,3378.68L389.344,3378.68Z" style="fill:white;fill-rule:nonzero;"/>
            </g>
        </g>
    </g>
</svg>
