<?xml version="1.0" standalone="no"?>
<!DOCTYPE svg PUBLIC "-//W3C//DTD SVG 20010904//EN"
 "http://www.w3.org/TR/2001/REC-SVG-20010904/DTD/svg10.dtd">
<svg version="1.0" xmlns="http://www.w3.org/2000/svg"
 width="640.000000pt" height="640.000000pt" viewBox="0 0 640.000000 640.000000"
 preserveAspectRatio="xMidYMid meet">
<metadata>
Created by potrace 1.14, written by Peter Selinger 2001-2017
</metadata>
<g transform="translate(0.000000,640.000000) scale(0.100000,-0.100000)"
fill="#000000" stroke="none">
<path d="M0 3200 l0 -3200 957 0 c742 0 960 3 972 13 12 9 13 9 7 0 -5 -10 17
-13 99 -13 98 0 105 1 90 16 -9 9 -14 23 -11 31 3 8 6 17 6 19 0 3 4 3 8 0 5
-3 9 2 9 10 0 12 -9 15 -34 12 -39 -5 -42 4 -8 26 23 15 25 15 25 1 0 -9 5
-13 10 -10 6 3 16 0 24 -8 8 -7 25 -13 38 -11 12 1 32 3 42 3 11 1 16 4 13 7
-3 4 -2 15 3 24 8 15 6 17 -10 13 -14 -4 -20 0 -20 10 0 9 -4 19 -10 22 -6 3
-7 -1 -4 -9 4 -11 0 -16 -12 -16 -11 0 -28 -3 -39 -6 -34 -9 -26 34 12 63 35
27 76 26 54 -1 -10 -12 -8 -13 9 -9 27 7 36 23 19 34 -9 6 -10 9 -2 9 6 0 15
9 18 20 4 13 15 20 32 20 19 0 24 4 19 16 -3 9 -3 21 1 27 8 13 10 19 12 44 0
9 4 13 8 10 10 -11 33 14 33 35 0 17 -5 20 -30 14 -17 -3 -30 -2 -30 3 0 12
60 35 86 33 15 -1 25 7 33 27 11 26 16 28 62 25 28 -1 47 2 43 7 -3 5 0 9 5 9
6 0 11 -4 11 -9 0 -5 14 -3 30 5 17 9 30 19 30 24 0 5 7 7 15 4 9 -4 15 0 15
7 0 9 3 10 8 4 12 -16 32 -16 38 0 5 12 10 10 25 -10 17 -20 18 -27 7 -45 -7
-11 -21 -20 -30 -20 -28 0 -21 -17 9 -23 28 -5 77 19 67 34 -3 5 2 6 10 3 17
-7 20 -16 9 -28 -15 -15 -10 -36 8 -36 12 0 19 7 19 18 0 10 15 26 35 36 19
10 33 23 32 29 -1 6 22 23 52 39 l54 29 214 -1 c185 -1 216 -3 233 -18 11 -9
20 -21 20 -27 0 -5 -4 -4 -8 3 -10 14 -42 6 -43 -12 0 -6 -2 -28 -3 -48 -2
-36 -1 -37 18 -20 11 10 8 1 -9 -21 -15 -21 -30 -35 -34 -32 -3 3 0 10 8 14
10 7 9 10 -3 14 -9 4 -16 11 -16 17 0 6 5 8 10 5 6 -3 10 2 10 12 0 16 -1 16
-17 1 -13 -14 -14 -20 -3 -32 11 -15 7 -20 -12 -17 -5 0 -8 -4 -8 -9 0 -6 -5
-10 -11 -10 -5 0 -7 5 -3 12 4 7 3 8 -4 4 -6 -4 -9 -13 -5 -21 5 -13 -7 -20
-29 -16 -12 2 -9 -17 3 -21 5 -2 7 -11 4 -21 -4 -9 -12 -14 -18 -10 -6 4 -7 1
-2 -7 6 -10 11 -9 21 4 8 11 14 13 19 7 3 -6 2 -11 -3 -11 -4 0 -16 -15 -25
-32 -10 -18 -16 -26 -14 -18 6 20 -12 52 -24 45 -5 -4 -9 -12 -9 -18 0 -7 4
-6 11 3 9 13 10 13 6 0 -2 -8 -13 -14 -23 -13 -13 1 -20 -4 -20 -17 0 -10 3
-17 7 -14 4 2 12 -3 18 -10 10 -12 8 -14 -11 -10 -20 5 -21 4 -5 -6 20 -13 23
-32 3 -24 -11 4 -13 0 -9 -17 4 -14 2 -20 -4 -16 -6 4 -14 -1 -17 -10 -4 -10
-4 -14 0 -10 4 4 13 2 21 -5 7 -6 16 -8 20 -5 3 4 12 -1 20 -11 8 -9 11 -11 7
-3 -5 10 -1 12 17 7 18 -4 17 -3 -5 8 -19 9 -25 16 -17 21 7 4 15 4 18 1 3 -3
16 4 27 17 23 24 56 34 56 17 0 -5 -8 -10 -17 -11 -15 0 -14 -2 4 -11 12 -6
23 -16 25 -24 2 -10 7 -10 22 2 19 13 19 14 2 14 -16 0 -17 2 -5 17 12 15 12
16 -6 9 -17 -6 -18 -5 -7 6 11 11 16 9 29 -7 15 -20 15 -20 8 3 -5 16 -2 22 9
22 9 0 23 11 31 24 21 32 41 39 42 15 1 -11 -2 -17 -6 -15 -4 3 -13 1 -19 -3
-18 -11 -5 -36 18 -38 11 -1 18 2 15 7 -3 5 -3 21 1 36 7 26 8 26 20 9 18 -24
18 -39 0 -32 -10 4 -13 1 -9 -8 4 -12 10 -11 34 6 26 19 33 31 30 52 -2 12 17
8 26 -5 4 -7 9 -21 10 -31 2 -15 0 -16 -16 -7 -12 6 -22 6 -25 1 -4 -5 0 -11
6 -14 7 -2 9 -8 5 -13 -4 -5 -11 -3 -15 3 -5 7 -11 7 -20 -3 -11 -12 -8 -14
13 -14 22 0 25 -3 20 -20 -4 -12 0 -26 10 -36 9 -9 14 -23 11 -31 -3 -8 -1
-11 4 -8 6 3 10 13 10 21 0 8 5 14 11 14 6 0 8 -8 4 -19 -3 -10 1 -24 10 -31
14 -11 17 -10 22 8 3 12 12 22 19 22 8 0 14 5 14 11 0 5 -4 8 -9 4 -5 -3 -13
0 -17 6 -4 7 -3 9 3 6 6 -4 19 1 29 9 18 15 18 15 -4 11 -18 -4 -21 -3 -12 8
6 7 8 19 5 27 -4 9 0 18 8 21 9 3 14 -1 13 -11 -1 -10 6 -16 17 -16 9 1 17 -2
17 -8 0 -5 4 -7 9 -4 4 3 6 -5 4 -18 -3 -13 -15 -29 -28 -36 -13 -7 -27 -20
-30 -29 -4 -11 0 -10 17 5 27 25 48 21 48 -9 0 -18 2 -19 10 -7 5 8 12 12 15
8 8 -7 -15 -50 -32 -61 -16 -10 -17 -27 -1 -27 6 0 9 3 5 6 -5 5 28 44 38 44
3 0 5 -7 5 -15 0 -8 -4 -15 -10 -15 -5 0 -10 -6 -10 -12 1 -7 9 -3 19 9 24 28
31 29 31 3 0 -11 7 -20 15 -20 8 0 12 6 9 14 -3 7 2 16 11 20 11 4 14 2 9 -7
-5 -9 -4 -9 7 0 19 18 39 16 40 -4 0 -12 2 -13 6 -5 3 7 0 19 -7 27 -6 8 -9
19 -5 25 3 5 1 10 -4 10 -6 0 -11 5 -11 11 0 8 5 8 15 -1 8 -7 13 -16 10 -20
-3 -4 3 -14 13 -21 15 -12 16 -12 6 1 -6 8 -10 25 -9 37 1 13 -2 23 -7 23 -4
0 -7 10 -7 23 1 16 2 18 6 5 2 -10 9 -18 14 -18 11 0 1 22 -25 55 -14 18 -15
18 -16 3 0 -10 -5 -18 -10 -18 -6 0 -9 6 -8 12 5 23 22 27 42 10 18 -16 18
-16 7 5 -6 12 -7 24 -2 27 5 3 15 -8 22 -25 12 -30 13 -30 20 -10 5 11 6 28 3
36 -4 8 -1 15 4 15 6 0 14 -9 17 -20 4 -11 11 -18 16 -15 20 13 8 -15 -13 -29
-12 -9 -19 -16 -15 -16 4 0 -1 -10 -13 -22 -24 -26 -27 -50 -4 -41 8 3 13 12
10 19 -3 8 -1 14 3 14 5 0 12 -8 15 -17 5 -12 10 -13 18 -5 12 12 61 -5 52
-19 -3 -5 -1 -9 4 -9 6 0 13 8 17 18 3 9 5 17 4 17 -1 0 3 10 10 23 7 12 17
20 22 16 8 -4 8 0 0 13 -12 24 3 45 27 36 10 -4 13 -2 8 5 -5 8 -2 10 8 6 9
-4 18 1 22 10 3 9 12 16 20 16 8 0 14 6 14 13 0 7 9 23 19 34 11 12 17 24 13
28 -4 4 2 5 13 3 14 -2 20 2 19 15 -1 9 3 17 9 17 6 0 2 7 -9 15 -19 15 -19
15 1 8 18 -6 19 -5 5 12 -8 10 -10 16 -4 12 7 -4 16 15 25 56 7 34 13 67 14
73 0 6 8 19 18 29 10 10 14 21 9 24 -23 15 4 81 27 67 12 -8 8 -52 -5 -49 -5
1 -10 -10 -10 -23 -2 -18 3 -24 18 -24 10 0 17 4 13 9 -3 5 0 13 6 16 5 4 8
14 5 22 -3 8 -1 11 4 8 6 -3 10 1 10 9 0 9 7 16 15 16 16 0 36 39 28 53 -3 4
-11 3 -19 -4 -9 -7 -14 -8 -14 -1 0 6 12 15 27 20 16 6 21 11 13 12 -10 1 -9
4 5 10 19 8 19 9 1 9 -15 1 -17 6 -12 31 4 24 2 30 -12 30 -15 0 -15 2 -2 10
10 6 11 10 3 10 -24 0 -28 -2 -25 -12 2 -6 -4 -18 -13 -28 -14 -16 -14 -18 0
-23 8 -4 15 -13 15 -20 0 -15 -46 -44 -55 -35 -11 11 -14 48 -4 48 6 0 7 5 3
11 -3 6 0 15 7 20 10 6 11 9 2 9 -7 0 -13 5 -13 11 0 5 4 8 9 5 5 -3 11 3 14
14 3 11 1 23 -4 26 -15 9 -10 31 8 38 19 8 40 -8 24 -18 -6 -4 -11 -13 -11
-19 0 -7 5 -4 11 5 5 10 14 18 19 18 5 0 21 5 37 12 15 6 31 11 35 10 4 -1 18
12 32 28 l25 30 3 -28 c2 -23 8 -28 36 -30 24 -2 32 -7 28 -17 -4 -10 3 -14
24 -12 15 1 26 5 23 10 -6 10 9 9 26 -2 20 -13 48 3 57 31 10 33 27 46 49 37
11 -4 34 -8 52 -8 26 -1 31 -4 27 -18 -5 -17 -5 -17 9 0 15 18 42 23 51 8 3
-4 -3 -16 -14 -26 -24 -21 -26 -37 -5 -29 8 4 15 12 15 20 0 8 7 14 16 14 8 0
13 -4 10 -9 -12 -20 34 -18 51 2 10 11 12 17 6 13 -7 -4 -13 -5 -13 -2 0 3 16
13 36 22 22 10 33 22 30 30 -3 8 -1 14 4 14 6 0 10 -4 10 -10 0 -5 5 -10 11
-10 5 0 7 6 3 13 -5 9 -4 9 6 0 11 -10 11 -18 2 -38 -7 -15 -8 -24 -3 -21 5 3
11 0 14 -8 4 -9 14 -12 27 -9 11 3 19 8 16 10 -3 3 1 12 9 20 16 15 21 48 6
39 -4 -3 -16 3 -26 14 -10 11 -26 20 -35 20 -9 0 -22 11 -28 25 -7 15 -8 25
-2 25 6 0 10 5 10 10 0 6 -5 9 -11 8 -6 -2 -13 6 -14 17 -2 11 -7 30 -10 43
-6 16 -3 22 9 22 9 0 25 9 37 21 16 16 18 23 8 35 -10 12 -13 12 -25 -3 -8
-11 -13 -13 -14 -5 0 6 0 15 -1 19 0 4 9 11 21 15 12 4 19 4 15 -1 -11 -19 17
-23 30 -5 7 11 17 15 21 11 5 -4 4 -11 -1 -15 -6 -4 -11 -13 -13 -21 -3 -16
49 -6 60 12 5 8 8 6 8 -6 0 -15 3 -16 23 -6 20 11 21 11 8 -5 -8 -9 -21 -16
-30 -15 -29 3 -42 -1 -37 -10 4 -5 1 -11 -4 -13 -6 -2 -12 -13 -13 -26 0 -12
-7 -22 -13 -22 -16 0 -26 -28 -11 -33 7 -3 1 -10 -13 -16 l-25 -12 25 6 c14 4
31 7 38 7 9 1 8 6 -3 18 -14 16 -14 18 0 24 9 3 21 3 27 0 5 -3 15 2 22 12 8
10 15 13 19 7 8 -13 83 23 79 37 -1 6 5 10 15 10 14 0 14 3 -3 22 -16 20 -17
21 -1 9 14 -11 21 -11 29 -3 19 19 25 14 20 -18 -3 -22 0 -30 11 -30 8 0 18
-6 20 -12 3 -8 6 -6 6 5 1 9 -5 17 -12 17 -9 0 -14 14 -14 44 0 39 3 44 25 44
24 0 45 19 36 34 -3 4 -14 8 -24 8 -14 0 -18 7 -18 30 1 17 5 33 10 36 4 3 6
10 2 15 -3 5 0 8 7 7 6 -2 14 3 17 11 3 9 0 11 -8 6 -8 -5 -18 -1 -26 10 -7
10 -20 15 -28 12 -9 -4 -18 -2 -22 4 -4 6 -11 5 -21 -3 -9 -7 -23 -13 -32 -13
-9 0 -16 -6 -16 -12 0 -7 -4 -13 -10 -12 -5 1 -9 5 -8 10 2 4 -6 13 -17 19
-21 11 -27 1 -9 -17 8 -8 7 -13 -2 -18 -8 -5 -10 -4 -5 3 4 7 1 12 -9 12 -9 0
-14 -4 -11 -9 3 -4 -3 -16 -14 -26 -11 -10 -20 -16 -21 -14 -7 33 -3 50 12 54
18 6 16 33 -4 46 -5 4 -5 9 2 13 6 4 15 -2 19 -15 5 -14 11 -18 16 -11 3 6 2
14 -4 17 -8 5 -7 11 1 21 6 8 8 14 3 14 -5 0 -2 5 6 10 13 8 13 10 -1 10 -27
0 -31 50 -5 71 25 22 42 24 49 7 4 -9 6 -10 6 -1 1 6 -6 19 -15 27 -8 9 -11
16 -5 16 6 0 11 7 11 16 0 8 5 12 10 9 6 -3 10 0 10 7 0 8 31 61 69 119 90
136 150 246 220 399 57 125 57 125 89 122 28 -3 32 -1 29 17 -2 12 -9 27 -17
34 -8 7 -10 8 -7 1 7 -12 -19 -41 -28 -32 -2 2 8 41 22 86 18 55 32 82 43 82
13 0 13 1 0 10 -13 9 -13 11 0 20 22 14 26 13 27 -12 1 -12 11 -31 23 -42 17
-17 20 -18 14 -3 -3 9 -11 17 -17 17 -6 0 -2 7 9 16 18 15 18 15 0 10 -14 -5
-17 -2 -12 10 3 8 6 18 6 20 0 3 5 2 12 -2 7 -5 8 -3 3 5 -4 7 -16 11 -26 8
-11 -3 -16 -1 -13 5 4 6 0 14 -7 19 -9 6 -10 12 -4 17 6 4 10 16 10 26 0 11 7
22 15 24 13 5 13 3 0 -14 -14 -17 -14 -18 2 -6 14 11 21 11 41 -2 13 -9 27
-13 32 -9 4 5 6 0 2 -9 -3 -9 0 -19 9 -22 13 -5 19 6 15 27 -1 5 3 6 9 2 6 -4
10 5 10 22 0 26 -3 28 -44 29 -33 0 -43 -3 -39 -13 4 -9 0 -11 -11 -7 -10 4
-15 13 -12 20 3 8 1 14 -4 14 -6 0 -10 14 -10 30 0 17 4 30 9 30 4 0 7 -11 6
-25 -2 -14 1 -25 7 -25 6 0 8 7 5 15 -4 8 -2 17 3 20 5 3 12 -5 16 -19 3 -15
15 -26 30 -29 13 -2 21 0 18 5 -3 5 2 18 12 29 10 11 12 19 6 19 -7 0 -11 10
-11 23 1 15 3 17 6 5 2 -9 12 -16 21 -16 9 0 26 -3 37 -8 18 -7 18 -6 6 9 -12
15 -11 17 3 17 15 0 42 -45 37 -63 -1 -5 3 -6 9 -2 6 3 8 10 5 15 -3 5 -1 11
5 15 5 3 10 -1 10 -10 0 -9 9 -19 20 -22 11 -3 20 -12 20 -20 0 -8 5 -11 10
-8 6 4 8 11 4 16 -3 5 5 18 18 29 13 11 18 19 12 20 -6 0 -10 16 -9 35 1 43
-11 78 -25 70 -5 -3 -10 -1 -10 5 0 7 7 9 16 6 9 -3 20 -6 26 -6 6 0 7 -8 3
-17 -5 -15 -4 -16 7 -5 9 9 10 17 2 30 -13 20 -7 45 8 36 6 -4 5 -10 -3 -15
-10 -6 -11 -9 -1 -9 6 0 15 0 19 0 12 -1 11 25 -3 37 -8 8 -15 9 -19 3 -3 -6
-16 -8 -28 -6 -12 1 -16 1 -9 -1 6 -3 12 -9 12 -14 0 -6 -4 -7 -10 -4 -5 3
-10 1 -10 -5 0 -8 -6 -8 -20 0 -15 8 -20 8 -22 -2 0 -7 -2 -17 -3 -23 -2 -5
-3 -17 -4 -25 -1 -9 -4 -11 -9 -5 -4 6 -16 11 -27 12 -11 1 -38 4 -60 7 -49 6
-78 -8 -70 -34 12 -37 14 -64 9 -87 -11 -41 -23 -24 -19 26 4 46 3 49 -18 43
-12 -3 -25 -10 -29 -16 -5 -7 -8 -7 -8 2 0 8 9 16 20 19 19 5 24 14 21 40 -1
6 8 14 19 18 11 3 20 13 20 21 0 8 5 14 10 14 6 0 12 0 15 0 3 0 5 -3 4 -7 -1
-5 -5 -7 -10 -5 -5 1 -9 -2 -9 -8 0 -5 4 -10 9 -10 5 0 17 -3 25 -6 12 -5 15
-2 10 10 -4 10 0 18 10 22 9 3 16 10 16 15 0 4 -7 5 -17 2 -12 -5 -14 -3 -8 7
6 10 4 12 -9 7 -10 -4 -23 -7 -30 -7 -7 0 -18 -11 -24 -25 -7 -15 -20 -25 -32
-25 -12 0 -18 -4 -15 -10 3 -5 2 -10 -4 -10 -6 0 -8 12 -6 28 20 114 23 138
18 144 -2 5 1 8 8 8 8 0 9 3 0 13 -6 8 -8 16 -5 19 11 12 4 376 -11 506 -31
270 -105 536 -219 790 -41 92 -53 131 -53 168 0 27 2 41 4 31 3 -9 9 -15 14
-11 5 3 6 10 3 16 -5 8 -1 9 10 5 10 -4 15 -3 11 3 -3 6 1 10 9 10 16 0 18 20
3 31 -4 3 2 18 14 33 17 21 19 30 9 41 -10 12 -9 16 3 21 9 3 13 12 10 21 -5
12 -3 14 7 8 9 -6 12 -4 8 7 -4 8 0 15 7 15 11 0 11 -5 4 -20 -8 -14 -8 -22 1
-31 8 -8 10 -7 5 5 -4 11 1 18 17 23 36 9 40 7 33 -14 -5 -15 -3 -18 10 -14
12 5 14 14 10 38 -6 27 -5 29 7 15 7 -10 24 -20 38 -24 24 -7 24 -7 5 8 -20
15 -20 16 3 39 12 14 20 28 17 31 -3 4 1 3 7 -3 23 -19 31 -10 25 28 -4 22 -3
31 2 23 7 -11 11 -10 20 5 6 11 11 14 11 8 0 -5 -5 -15 -11 -21 -8 -8 -7 -13
1 -18 7 -4 16 -1 21 6 4 7 11 11 14 7 3 -3 -1 -13 -10 -22 -12 -12 -13 -16 -3
-17 8 0 6 -3 -4 -7 -15 -6 -13 -10 13 -24 16 -10 27 -14 24 -9 -8 14 6 42 17
35 6 -4 5 -10 -3 -15 -11 -7 -11 -9 -1 -9 7 0 11 -4 8 -8 -10 -17 -15 -62 -5
-57 5 4 9 17 9 30 0 13 5 27 12 31 7 5 9 2 5 -9 -4 -11 -1 -15 14 -12 10 2 19
-1 19 -6 0 -6 8 -9 18 -8 31 3 36 -1 18 -14 -16 -12 -16 -13 3 -13 11 0 17 4
15 8 -8 12 8 9 36 -7 20 -11 21 -14 7 -15 -21 0 -20 -31 1 -38 7 -2 11 2 10
10 -2 7 5 12 15 12 9 -1 17 3 17 9 0 6 3 8 6 4 4 -3 21 1 38 10 17 10 36 16
41 14 6 -1 5 3 -2 10 -10 10 -16 9 -30 -2 -15 -12 -15 -10 1 9 15 17 22 20 29
10 7 -10 10 -10 14 0 2 6 10 12 16 12 7 0 18 9 25 20 7 12 8 20 2 20 -5 0 -10
4 -10 10 0 5 7 6 17 3 11 -4 14 -3 9 6 -8 13 31 48 47 43 5 -1 6 2 3 7 -4 5 3
12 13 16 13 4 18 12 14 23 -5 14 -3 15 7 5 11 -10 16 -9 26 5 18 24 17 32 -3
26 -17 -5 -17 -5 0 6 16 10 17 36 17 303 0 202 -3 296 -11 304 -6 6 -8 17 -3
24 11 18 13 49 2 49 -4 0 -8 -8 -8 -17 -1 -16 -2 -16 -13 -2 -18 23 -47 31
-47 14 0 -8 -4 -15 -9 -15 -11 0 -2 38 10 46 5 3 9 0 9 -5 0 -6 9 -11 20 -11
25 0 25 8 3 27 -17 14 -17 14 0 9 18 -6 24 9 7 19 -6 4 -8 10 -5 15 3 5 1 11
-5 15 -6 4 -7 11 -4 17 5 7 2 9 -8 5 -12 -4 -15 1 -13 26 2 18 -2 38 -7 45 -7
8 -7 12 1 12 6 0 11 7 11 15 0 8 -7 15 -16 15 -10 0 -14 6 -11 14 4 10 1 13
-7 10 -8 -3 -17 -1 -20 4 -7 11 21 25 34 17 5 -3 12 -1 15 5 4 6 1 9 -7 8 -7
-2 -12 3 -10 11 2 11 0 12 -11 3 -16 -13 -37 2 -37 27 0 8 3 11 7 8 3 -4 12 1
18 10 11 14 15 15 28 4 21 -17 43 -5 26 15 -17 21 6 18 27 -3 17 -17 17 -17
11 -1 -3 10 -1 20 5 24 7 4 8 3 4 -4 -4 -7 -2 -12 3 -12 8 0 11 76 11 235 l0
235 -660 0 c-657 0 -660 0 -660 -20 0 -11 7 -23 15 -26 8 -4 15 -12 15 -20 0
-8 5 -14 11 -14 5 0 8 -4 4 -9 -3 -5 -1 -13 5 -16 8 -5 6 -15 -5 -32 -15 -23
-15 -26 0 -43 9 -10 15 -25 12 -32 -3 -8 -6 -6 -6 5 -1 11 -6 15 -13 11 -7 -5
-8 -2 -3 7 6 11 5 11 -5 2 -10 -9 -9 -15 2 -32 8 -12 18 -18 21 -14 4 3 7 1 7
-5 0 -6 -8 -13 -17 -15 -17 -4 -17 -5 0 -6 10 -1 17 -9 17 -20 0 -15 6 -18 33
-16 43 4 60 -11 46 -37 -6 -11 -7 -18 -2 -15 8 5 20 -10 40 -55 2 -4 -1 -10
-7 -13 -6 -4 -10 -3 -9 2 4 23 -3 40 -16 40 -9 0 -14 -6 -11 -14 3 -8 2 -11
-3 -8 -5 3 -12 1 -15 -4 -3 -5 4 -11 17 -15 18 -5 19 -8 7 -15 -9 -6 -19 -6
-27 0 -13 12 -33 4 -33 -13 0 -5 7 -8 15 -4 8 3 19 -3 25 -12 9 -16 11 -16 20
1 6 9 16 17 21 17 6 0 3 -7 -5 -16 -9 -8 -16 -20 -16 -25 0 -13 18 -11 22 2 2
7 9 5 17 -5 12 -14 12 -16 -1 -11 -12 5 -14 0 -11 -19 3 -16 1 -26 -6 -26 -7
0 -9 -4 -6 -10 4 -6 -1 -7 -12 -4 -14 4 -12 1 6 -15 13 -12 17 -21 10 -21 -7
0 -10 -3 -7 -6 9 -8 -22 -95 -32 -89 -4 3 -4 -14 2 -37 5 -24 14 -46 21 -50 9
-6 9 -8 -1 -8 -7 0 -10 -5 -7 -10 4 -6 10 -8 14 -6 4 3 8 -1 8 -9 0 -8 -5 -12
-10 -8 -5 3 -6 -4 -2 -17 6 -18 4 -22 -7 -17 -17 6 -72 -26 -62 -36 4 -4 13
-2 21 5 11 8 12 7 8 -5 -4 -8 -18 -18 -31 -21 -15 -4 -22 -11 -18 -18 5 -7 2
-9 -9 -5 -11 4 -14 2 -11 -8 3 -8 -3 -26 -15 -40 -14 -19 -19 -36 -15 -61 3
-25 -1 -41 -16 -56 l-20 -22 0 23 c0 12 -4 19 -10 16 -5 -3 -10 3 -10 14 0 12
-4 21 -10 21 -5 0 -10 -5 -10 -12 0 -6 -12 -1 -26 13 -18 16 -28 20 -31 12 -3
-7 -9 -13 -15 -13 -6 0 -8 7 -4 15 3 8 1 15 -4 15 -16 0 -6 60 10 61 9 0 6 4
-6 9 -12 5 -25 13 -28 18 -7 11 -56 3 -56 -9 0 -5 5 -9 10 -9 6 0 10 -4 10
-10 0 -5 -7 -10 -15 -10 -23 0 -47 -44 -40 -76 3 -16 2 -23 -1 -16 -7 14 -34
16 -34 2 0 -5 -7 -10 -16 -10 -8 0 -13 4 -9 9 3 5 1 12 -5 16 -5 3 -10 15 -10
26 0 11 5 17 10 14 6 -3 10 -1 10 4 0 6 11 11 25 11 50 0 24 15 -29 17 -30 1
-65 7 -78 14 -24 13 -99 16 -117 5 -11 -7 -101 40 -101 53 0 4 5 12 12 19 8 8
8 15 -2 27 -10 12 -16 13 -29 3 -11 -9 -11 -6 2 9 15 17 16 25 7 42 -12 23
-22 28 -14 7 5 -13 -24 -31 -34 -21 -3 3 0 5 7 5 7 0 10 4 7 9 -4 5 -17 8 -30
7 -19 -2 -23 1 -18 13 6 17 34 48 39 44 7 -6 4 9 -3 15 -4 4 -4 1 0 -5 5 -9 2
-11 -9 -6 -13 4 -14 8 -4 14 7 4 17 5 22 2 13 -8 58 38 50 51 -4 6 2 4 12 -4
10 -8 16 -10 12 -3 -10 17 3 45 19 39 18 -7 29 13 15 27 -9 9 -10 7 -5 -8 7
-17 6 -18 -8 -5 -18 17 -4 32 21 22 14 -5 14 -3 2 11 -7 9 -10 17 -6 17 4 0 1
8 -6 18 -7 9 -9 14 -5 10 18 -15 79 72 75 106 0 5 5 12 11 16 13 8 21 60 10
60 -4 0 -5 11 -3 24 3 14 19 31 38 42 19 10 32 22 29 26 -3 4 -2 8 3 8 4 0 8
13 8 29 0 21 -4 27 -15 23 -8 -2 -2 8 15 24 16 16 33 28 38 26 5 -1 6 2 3 7
-4 5 -1 13 4 16 6 4 10 17 8 28 -1 12 1 28 5 35 5 6 4 12 0 12 -5 0 -14 9 -21
20 -10 17 -10 20 4 20 8 0 13 -4 9 -9 -3 -5 -1 -12 5 -16 5 -3 10 -1 10 5 0 6
4 8 10 5 6 -3 7 1 4 9 -6 14 -244 16 -2385 16 l-2379 0 0 -3200z m4715 3160
c3 -5 1 -10 -4 -10 -6 0 -11 5 -11 10 0 6 2 10 4 10 3 0 8 -4 11 -10z m490
-192 c5 4 5 1 1 -5 -5 -9 -1 -13 12 -13 10 0 19 -7 19 -16 0 -11 -7 -14 -21
-10 -12 3 -25 6 -30 6 -4 0 -6 6 -3 14 3 7 0 20 -6 27 -10 11 -9 11 4 1 9 -6
20 -8 24 -4z m62 -64 c-3 -3 -12 -4 -19 -1 -8 3 -5 6 6 6 11 1 17 -2 13 -5z
m1033 -86 c7 -18 12 -44 11 -58 -2 -20 0 -23 10 -12 7 6 18 12 24 12 5 0 2 -5
-8 -11 -14 -8 -16 -14 -6 -25 7 -8 7 -14 1 -14 -22 0 -39 36 -44 98 -2 24 -11
2 -13 -33 -1 -19 2 -35 7 -35 4 0 8 -4 8 -10 0 -5 -7 -7 -15 -4 -8 4 -15 1
-15 -5 0 -6 -5 -11 -10 -11 -6 0 -10 8 -8 17 2 12 -7 21 -29 28 -31 10 -31 11
-10 28 14 12 24 14 33 6 8 -7 14 -7 19 1 3 5 -1 10 -9 10 -9 0 -16 4 -16 8 0
16 23 30 38 25 10 -4 13 -2 8 5 -4 7 -3 12 1 12 5 0 15 -15 23 -32z m66 -35
c-10 -11 -37 -12 -30 -2 3 5 12 9 21 9 9 0 13 -3 9 -7z m-106 -163 c0 -5 -2
-10 -4 -10 -3 0 -8 5 -11 10 -3 6 -1 10 4 10 6 0 11 -4 11 -10z m20 -230 c0
-5 -2 -10 -4 -10 -3 0 -8 5 -11 10 -3 6 -1 10 4 10 6 0 11 -4 11 -10z m-45
-20 c-3 -5 1 -10 9 -10 9 0 16 -7 16 -17 0 -15 -1 -15 -18 0 -10 10 -25 17
-33 18 -8 0 -6 4 6 9 27 11 27 11 20 0z m-1010 -51 c-4 -5 -12 -9 -18 -8 -9 0
-8 2 1 6 6 2 9 10 6 15 -4 7 -2 8 5 4 6 -4 9 -12 6 -17z m1135 -3 c14 -18 14
-18 -7 -6 -12 8 -19 18 -16 23 3 4 6 7 7 5 1 -2 8 -12 16 -22z m-1100 -36 c0
-5 -4 -10 -10 -10 -5 0 -10 5 -10 10 0 6 5 10 10 10 6 0 10 -4 10 -10z m-352
-25 c-3 -3 -9 2 -12 12 -6 14 -5 15 5 6 7 -7 10 -15 7 -18z m240 -31 c0 -15
-4 -22 -10 -16 -5 5 -6 16 -2 25 9 23 12 21 12 -9z m-288 -9 c-7 -8 -17 -15
-22 -15 -6 0 -5 7 2 15 7 8 17 15 22 15 6 0 5 -7 -2 -15z m290 -31 c0 -2 -7
-4 -15 -4 -8 0 -15 4 -15 10 0 5 7 7 15 4 8 -4 15 -8 15 -10z m-240 -4 c0 -5
-5 -10 -11 -10 -5 0 -7 5 -4 10 3 6 8 10 11 10 2 0 4 -4 4 -10z m-43 -39 c-1
-16 -4 -17 -15 -9 -10 9 -11 13 0 19 17 11 17 12 15 -10z m264 -4 c-13 -13
-26 -3 -16 12 3 6 11 8 17 5 6 -4 6 -10 -1 -17z m-40 -50 c-10 -9 -11 -8 -5 6
3 10 9 15 12 12 3 -3 0 -11 -7 -18z m-212 -481 c62 -62 72 -77 62 -90 -14 -17
1 -31 26 -22 10 4 14 2 10 -8 -3 -8 -2 -16 2 -18 5 -2 12 -14 16 -27 7 -22 5
-23 -16 -17 -31 9 -52 14 -62 15 -5 1 -6 5 -3 10 9 14 -20 21 -34 8 -9 -9 -11
-9 -7 -1 6 11 -19 29 -35 26 -9 -2 3 31 14 39 5 3 -9 29 -31 57 -23 28 -41 56
-41 62 0 5 -4 10 -10 10 -5 0 -10 5 -10 11 0 5 5 7 10 4 6 -3 10 -1 10 4 0 26
30 6 99 -63z m961 28 c0 -8 -5 -12 -10 -9 -6 4 -8 11 -5 16 9 14 15 11 15 -7z
m200 -4 c0 -5 -4 -10 -10 -10 -5 0 -10 5 -10 10 0 6 5 10 10 10 6 0 10 -4 10
-10z m40 -20 c0 -5 -2 -10 -4 -10 -3 0 -8 5 -11 10 -3 6 -1 10 4 10 6 0 11 -4
11 -10z m-530 -40 c-8 -5 -13 -10 -10 -11 3 0 13 -2 23 -5 9 -2 24 -5 32 -7
22 -5 27 -14 8 -14 -10 0 -23 4 -29 9 -8 6 -11 3 -10 -8 0 -9 -4 -19 -10 -21
-7 -2 -11 4 -10 14 0 10 -5 18 -11 19 -7 1 -16 2 -20 3 -11 2 28 31 41 31 6 0
4 -5 -4 -10z m234 -15 c-4 -8 -11 -15 -16 -15 -6 0 -5 6 2 15 7 8 14 15 16 15
2 0 1 -7 -2 -15z m236 -45 c0 -5 -5 -10 -11 -10 -5 0 -7 5 -4 10 3 6 8 10 11
10 2 0 4 -4 4 -10z m-1424 -72 c4 -7 3 -8 -4 -4 -22 13 -12 -11 11 -27 19 -14
20 -18 7 -26 -12 -9 -10 -11 10 -12 40 -2 64 2 78 14 10 8 16 7 21 -1 4 -7 15
-10 24 -6 10 3 17 1 17 -6 0 -6 -5 -8 -12 -4 -7 4 -8 3 -4 -4 9 -16 39 -15 55
1 7 6 12 8 11 2 -6 -28 0 -37 15 -25 16 13 39 4 29 -12 -5 -7 -2 -8 7 -2 21
13 49 15 49 3 0 -5 5 -7 12 -3 8 5 5 12 -10 24 -20 16 -20 17 -2 33 18 15 19
14 25 -4 4 -11 4 -23 1 -26 -3 -4 -1 -12 4 -18 8 -9 2 -16 -21 -25 -32 -14
-147 -22 -164 -12 -5 3 -26 5 -47 3 -22 -1 -38 2 -38 8 0 15 -30 14 -31 -1 0
-10 -2 -10 -6 0 -2 6 -11 12 -19 12 -9 0 -12 5 -9 10 8 13 -17 8 -27 -5 -5 -6
-11 -5 -17 4 -8 12 -10 12 -14 0 -2 -8 -2 -4 0 9 2 13 -2 25 -11 28 -8 3 -13
16 -11 30 3 30 15 45 15 18 0 -15 3 -14 22 9 25 31 24 31 34 15z m-1579 -60
c-3 -8 -6 -5 -6 6 -1 11 2 17 5 13 3 -3 4 -12 1 -19z m1668 12 c3 -5 -3 -10
-14 -10 -12 0 -21 5 -21 10 0 6 6 10 14 10 8 0 18 -4 21 -10z m869 -72 c-9
-14 -23 2 -17 18 4 12 8 13 14 3 4 -7 5 -17 3 -21z m-50 -9 c-3 -5 0 -9 7 -9
7 0 9 -3 6 -6 -7 -8 -37 14 -37 27 0 5 7 6 15 3 8 -4 12 -10 9 -15z m-219
-309 c32 -30 69 -110 116 -250 52 -156 52 -158 14 -192 -20 -17 -32 -37 -32
-53 0 -13 3 -22 8 -19 16 9 10 -3 -8 -17 -9 -8 -14 -9 -11 -4 4 6 3 17 -3 25
-7 12 -9 10 -9 -7 0 -17 -4 -21 -17 -16 -11 4 -14 3 -9 -5 4 -7 2 -12 -4 -12
-6 0 -8 -4 -5 -10 3 -5 1 -10 -5 -10 -7 0 -9 -7 -6 -15 4 -10 -2 -19 -17 -25
-12 -5 -16 -9 -8 -9 11 -1 11 -4 1 -16 -11 -13 -10 -14 4 -9 9 3 16 1 16 -5 0
-8 6 -7 21 1 18 11 23 11 26 0 6 -17 33 4 33 25 0 16 18 37 40 46 12 4 11 6
-2 6 -19 1 -26 31 -8 31 6 0 10 -5 10 -12 0 -6 3 -8 7 -5 3 4 -2 17 -13 29
-18 21 -18 22 0 8 16 -13 20 -12 32 5 14 18 14 18 16 -1 2 -33 3 -39 10 -50
16 -24 39 -255 41 -397 l1 -153 -27 -30 c-15 -16 -27 -34 -27 -39 0 -6 -9 -11
-20 -12 -13 -1 -18 2 -14 9 4 7 2 8 -4 4 -6 -4 -9 -13 -6 -21 4 -10 0 -12 -17
-8 -13 4 -20 2 -16 -3 3 -5 -3 -10 -14 -10 -14 0 -18 5 -13 21 6 20 6 20 -9 0
-12 -15 -13 -23 -4 -34 10 -12 9 -12 -12 -2 -16 9 -21 9 -16 2 4 -7 1 -19 -6
-27 -10 -13 -10 -17 2 -25 9 -5 10 -9 2 -9 -7 0 -16 6 -20 14 -9 15 -46 36
-63 36 -6 0 -10 -8 -8 -17 2 -10 -2 -18 -7 -18 -19 0 -57 -42 -46 -50 6 -3 9
-11 6 -16 -8 -12 15 -43 35 -48 8 -1 25 -4 36 -5 13 0 19 -6 17 -13 -3 -8 4
-13 18 -14 17 0 20 -2 9 -7 -19 -9 -19 -34 -1 -46 10 -6 11 -10 1 -16 -9 -6
-9 -13 -1 -28 7 -14 8 -23 1 -27 -5 -3 -10 1 -10 9 0 9 -5 16 -10 16 -7 0 -7
7 0 21 10 18 10 19 -8 10 -13 -7 -22 -7 -29 0 -7 7 -12 5 -17 -6 -4 -11 -2
-14 7 -9 9 5 9 4 0 -7 -18 -18 -16 -39 5 -55 23 -18 32 -17 32 2 0 10 6 14 14
11 8 -3 22 3 32 14 9 10 23 19 29 19 18 0 26 25 12 39 -8 8 -8 11 1 11 7 0 12
-4 12 -9 0 -12 70 -9 89 3 11 7 12 6 5 -5 -5 -8 -7 -22 -5 -33 2 -16 -2 -18
-30 -14 -29 5 -30 4 -14 -9 11 -7 23 -13 28 -13 30 0 -59 -266 -157 -465 -74
-150 -199 -350 -239 -382 -12 -10 -28 -30 -36 -45 -22 -42 -111 -139 -138
-149 -13 -5 -22 -13 -19 -17 3 -5 -8 -22 -24 -37 -17 -16 -30 -26 -30 -22 0 4
-14 0 -30 -8 -17 -9 -36 -13 -43 -9 -7 4 -9 3 -4 -1 4 -5 -3 -20 -15 -34 -13
-14 -16 -20 -6 -13 9 8 19 9 22 4 21 -34 -449 -355 -496 -340 -6 2 -22 -7 -35
-20 -13 -12 -28 -20 -33 -17 -6 3 -10 2 -10 -3 0 -5 -8 -12 -17 -15 -10 -2
-25 -8 -34 -11 -10 -5 -16 -2 -16 9 0 9 6 14 13 11 7 -3 24 4 37 14 13 11 28
16 32 12 5 -4 4 -1 0 7 -6 11 -4 13 8 8 13 -5 17 -1 17 14 0 13 4 18 12 13 7
-4 8 -3 4 5 -6 9 -11 9 -21 1 -8 -7 -20 -8 -26 -4 -7 4 -9 3 -5 -4 3 -6 2 -13
-4 -17 -5 -3 -10 3 -10 14 0 13 -7 21 -17 21 -15 0 -16 2 -3 10 9 6 17 5 21
-1 10 -17 80 17 73 34 -3 8 4 21 15 29 14 10 17 18 10 28 -6 11 -9 12 -9 2 0
-8 -5 -10 -12 -6 -8 5 -9 2 -5 -9 7 -19 -38 -47 -63 -39 -9 2 -7 -2 5 -12 11
-8 15 -16 9 -16 -6 0 -17 6 -23 14 -15 17 14 50 38 43 11 -2 16 3 17 19 1 17
-2 21 -15 17 -13 -4 -13 -3 -2 5 8 6 23 9 33 7 15 -3 16 -1 8 14 -5 10 -6 21
-2 25 3 4 -1 4 -10 1 -22 -9 -33 12 -16 32 8 10 8 14 1 10 -6 -4 -15 -3 -18 3
-4 6 -3 9 2 8 12 -4 48 25 56 45 3 9 2 17 -3 17 -6 0 -10 -7 -10 -16 0 -8 -4
-13 -10 -9 -12 8 9 55 26 55 6 0 15 8 18 17 5 13 9 14 15 5 4 -7 12 1 20 23 7
20 16 33 21 30 5 -3 12 0 15 6 4 5 14 8 22 5 8 -4 11 -2 7 5 -4 8 1 9 15 4 11
-3 21 -3 21 2 0 12 70 32 76 22 3 -5 12 -9 20 -9 8 0 12 5 9 10 -4 6 -11 8
-16 5 -5 -4 -9 5 -9 19 0 14 -4 26 -10 26 -5 0 -10 12 -10 28 -1 27 -1 27 -18
6 -9 -11 -20 -22 -24 -25 -8 -4 -37 31 -38 45 0 6 6 2 13 -8 17 -24 51 -11 37
14 -5 10 -17 26 -26 35 -9 9 -13 19 -10 23 4 3 11 0 15 -7 6 -9 11 -10 15 -2
4 6 2 11 -3 11 -6 0 -11 5 -11 10 0 20 18 10 31 -17 8 -16 22 -29 31 -29 14
-1 15 2 8 16 -16 29 -12 53 6 46 12 -4 15 -2 10 9 -3 8 -1 15 5 15 6 0 9 6 6
13 -2 6 4 28 14 48 10 20 15 39 12 43 -4 3 -1 6 5 6 7 0 12 6 12 14 0 8 7 16
15 20 8 3 12 12 9 20 -4 10 0 14 15 13 12 -1 21 -5 21 -11 0 -5 9 -1 20 9 24
22 27 9 4 -16 -18 -20 -10 -43 13 -35 8 3 11 1 8 -4 -3 -6 0 -10 7 -10 8 -1 4
-9 -9 -19 -27 -23 -30 -43 -5 -34 25 10 52 43 46 58 -3 7 2 15 11 19 11 4 14
2 9 -7 -5 -9 -4 -9 7 1 7 6 21 12 32 12 10 0 15 5 12 10 -3 6 1 13 9 16 8 3
18 16 22 27 4 12 13 27 21 32 12 9 11 15 -8 39 -15 19 -25 24 -32 17 -16 -16
-27 -13 -27 7 0 28 10 33 35 16 16 -10 25 -12 30 -5 3 6 1 11 -6 11 -8 0 -9 3
0 13 6 8 8 17 4 21 -10 10 17 25 34 19 7 -3 13 -11 13 -18 0 -8 9 -17 21 -20
11 -4 18 -13 15 -20 -4 -10 2 -11 27 -3 18 5 37 10 44 11 6 0 9 6 6 12 -5 15
23 45 43 45 8 0 14 -5 14 -11 0 -8 4 -9 13 0 8 6 16 9 18 6 3 -2 11 5 18 17
12 19 11 20 -6 13 -37 -15 -48 -17 -30 -5 24 15 12 33 -13 20 -16 -8 -18 -7
-14 4 3 9 -5 20 -22 29 -25 13 -32 13 -61 -2 -18 -9 -33 -22 -33 -28 0 -7 -13
-19 -30 -28 -26 -14 -30 -14 -30 -1 0 9 -6 13 -14 10 -9 -3 -17 3 -21 15 -3
11 -11 18 -18 15 -7 -2 -17 6 -22 18 -8 18 -18 23 -46 23 -28 1 -35 -3 -31
-14 4 -10 1 -12 -9 -6 -12 8 -12 6 0 -9 18 -22 23 -66 8 -66 -7 -1 -2 -6 9
-13 12 -7 20 -20 18 -30 -1 -12 2 -17 11 -13 9 3 13 -2 12 -13 -1 -19 -27 -49
-27 -31 0 23 -18 8 -24 -21 -6 -33 -29 -36 -34 -3 -7 41 -11 47 -27 34 -9 -8
-15 -8 -15 -2 0 6 6 13 13 15 9 4 9 7 -1 15 -10 7 -10 11 3 22 16 13 16 15 0
26 -18 14 -12 34 10 34 8 0 17 5 21 12 4 6 3 8 -4 4 -18 -11 -23 11 -6 28 13
13 13 20 4 31 -6 8 -9 19 -6 24 4 5 1 13 -5 17 -7 4 -9 3 -5 -4 3 -6 2 -13 -4
-17 -5 -3 -10 1 -10 9 0 19 -5 20 -30 6 -16 -8 -18 -8 -14 5 4 8 10 15 15 15
4 0 6 7 3 15 -5 12 -10 13 -20 4 -11 -9 -14 -9 -14 0 0 7 -5 9 -12 5 -9 -5 -9
-3 1 9 7 9 17 15 21 12 4 -3 8 7 8 21 0 32 34 66 53 52 10 -7 11 -11 2 -14 -8
-4 -9 -13 -3 -30 6 -16 6 -24 -1 -24 -6 0 -7 -5 -3 -11 3 -6 0 -15 -7 -20 -18
-11 -4 -23 17 -15 10 4 14 13 11 26 -3 11 0 20 6 20 7 0 5 5 -3 10 -13 8 -13
10 2 10 9 0 19 -8 21 -17 4 -17 5 -17 6 0 0 10 -9 22 -21 27 -18 7 -19 9 -5 9
9 1 17 9 17 19 0 14 -2 15 -10 2 -5 -8 -10 -10 -10 -4 0 21 27 47 43 41 12 -4
14 -2 10 11 -5 12 1 10 20 -7 15 -14 27 -19 27 -13 0 7 -4 12 -9 12 -13 0 -8
25 9 46 9 11 10 15 3 10 -7 -4 -13 -2 -13 3 0 6 6 11 14 11 8 0 17 7 20 16 3
8 2 13 -2 11 -4 -3 -15 6 -25 18 -22 31 -4 42 22 14 11 -12 24 -18 32 -14 8 5
10 4 5 -3 -4 -7 -2 -12 3 -12 6 0 11 -5 11 -11 0 -6 -7 -9 -14 -6 -10 4 -13 1
-9 -9 3 -7 0 -14 -6 -14 -6 0 -11 -5 -11 -12 0 -6 11 -1 25 12 14 13 25 20 25
15 0 -5 13 4 29 19 15 15 34 26 42 24 8 -2 13 3 11 10 -2 9 4 12 17 7 14 -4
20 0 25 17 11 41 8 51 -10 34 -8 -9 -21 -16 -27 -15 -7 0 -7 3 2 6 11 4 11 7
0 13 -7 5 -14 19 -16 32 -5 32 -37 62 -58 54 -9 -3 -13 -11 -9 -18 4 -9 2 -8
-7 1 -11 10 -11 15 -1 18 6 3 9 10 5 16 -4 7 0 8 13 3 43 -18 57 -19 52 -5 -3
8 -11 13 -17 12 -6 -2 -11 4 -11 13 0 13 3 14 14 5 15 -13 23 -6 21 19 -1 22
23 43 41 36 8 -3 17 1 20 9 9 22 24 18 24 -6 0 -11 4 -18 10 -14 5 3 6 13 3
23 -6 15 -5 16 13 2 17 -14 18 -14 6 2 -8 10 -22 20 -33 23 -11 4 -17 11 -14
16 9 14 27 11 19 -3 -4 -8 -3 -10 2 -5 5 5 10 13 10 18 1 5 2 13 3 18 0 5 11
13 23 17 l21 6 -23 13 c-17 9 -19 14 -9 18 10 4 9 6 -3 6 -10 1 -18 -3 -18 -9
0 -5 -5 -10 -11 -10 -6 0 -8 9 -4 20 5 15 3 18 -8 14 -9 -3 -18 -17 -22 -32
-5 -19 -9 -22 -13 -12 -3 8 -10 19 -16 23 -7 5 -3 6 8 3 14 -5 17 -2 12 9 -3
9 -2 14 3 11 5 -3 15 1 22 10 11 13 9 14 -12 9 -17 -4 -30 -1 -38 9 -8 9 -19
16 -25 16 -7 0 -22 9 -34 20 -17 17 -20 25 -12 40 15 28 13 32 -12 25 -16 -4
-19 -3 -10 3 13 9 4 25 -54 87 -14 15 -18 28 -13 37 7 10 9 10 9 -2 0 -10 9
-4 26 15 16 20 27 26 30 18 3 -7 12 -13 20 -13 8 0 14 -4 14 -9 0 -6 27 -20
61 -32 44 -16 63 -29 70 -46 11 -30 11 -33 -1 -33 -5 0 -10 6 -10 14 0 7 -9
16 -20 19 -22 6 -28 -8 -7 -16 9 -4 9 -8 -2 -15 -9 -7 -10 -12 -2 -16 6 -4 9
-12 6 -17 -3 -5 2 -6 12 -3 15 5 14 2 -4 -14 -13 -12 -18 -24 -13 -32 6 -9 11
-7 19 9 7 11 17 21 23 21 9 0 9 -3 0 -12 -17 -17 -15 -28 4 -28 9 0 12 -5 8
-12 -6 -10 -3 -9 8 0 20 16 57 1 59 -23 1 -8 2 -21 3 -27 1 -7 -5 -19 -14 -26
-13 -10 -13 -11 3 -6 19 7 24 -12 5 -19 -8 -3 -6 -6 4 -6 10 -1 22 8 28 19 7
14 7 20 0 20 -14 0 -13 29 3 43 20 19 37 19 30 -1 -4 -9 5 -3 20 13 19 22 26
26 27 13 0 -9 -6 -19 -12 -21 -12 -5 17 -11 36 -8 4 1 15 -6 23 -16 8 -10 12
-12 8 -5 -6 12 10 17 48 14 9 -1 17 3 17 9 0 6 8 9 18 7 12 -3 24 2 31 13 6
11 7 19 2 19 -6 0 -13 -5 -16 -10 -4 -6 -16 -8 -27 -4 -13 4 -18 2 -14 -4 3
-6 2 -13 -4 -17 -5 -3 -10 -2 -10 3 0 12 -34 11 -42 -2 -4 -6 -10 -7 -14 -3
-12 12 12 29 40 30 14 0 23 3 20 8 -3 5 -1 9 5 9 5 0 13 -4 16 -10 9 -14 25
-12 22 3 -1 6 4 11 11 9 8 -1 11 2 7 8 -5 8 -11 8 -20 0 -8 -7 -20 -8 -26 -4
-9 5 -8 9 5 14 10 3 16 9 14 12 -2 4 6 14 17 22 17 13 18 15 3 16 -9 0 -20 -9
-23 -20 -3 -11 -11 -20 -16 -20 -12 0 -11 7 2 32 8 14 8 23 0 31 -14 14 -14
27 -1 27 6 0 10 -6 10 -14 0 -8 7 -16 15 -20 8 -3 15 -1 15 3 0 5 -5 11 -12
13 -7 3 -8 10 -4 17 7 10 10 10 16 1 5 -8 10 -9 14 -2 4 6 -3 16 -14 22 -12 6
-19 17 -17 24 3 7 -10 28 -29 46 -19 18 -33 35 -30 37 3 3 12 -2 21 -11 19
-19 48 -21 43 -3 -3 6 -11 12 -19 12 -8 0 -15 12 -17 29 -3 19 0 26 8 21 9 -6
9 -2 1 14 -7 12 -9 26 -5 32 4 8 -6 10 -33 8 -30 -3 -39 -1 -36 8 3 7 9 10 14
7 5 -2 18 0 30 7 17 9 23 8 30 -2 5 -8 9 -9 9 -4 0 6 -9 18 -20 28 -11 9 -20
25 -21 34 0 16 -2 15 -9 -2 -5 -14 -3 -24 7 -32 13 -10 13 -12 -5 -10 -20 1
-62 57 -43 57 5 0 12 -6 14 -12 4 -10 6 -10 6 -1 2 22 -22 26 -37 7 -13 -16
-14 -17 -9 -1 9 24 -2 47 -22 47 -15 -1 -15 -2 1 -13 11 -9 14 -18 8 -27 -7
-12 -12 -12 -22 -2 -9 9 -9 12 1 12 7 0 9 5 6 10 -4 6 -12 7 -18 4 -8 -5 -8
-3 1 7 6 7 12 20 12 28 0 12 -2 13 -8 3 -12 -19 -42 -3 -42 22 1 20 2 20 14 3
13 -16 14 -16 27 0 9 11 10 14 2 9 -8 -4 -13 -1 -13 8 0 19 11 20 30 4 12 -11
12 -10 2 3 -7 9 -22 19 -33 22 -16 4 -19 2 -14 -13 5 -15 2 -18 -15 -15 -11 2
-24 6 -29 10 -5 3 -13 0 -17 -7 -4 -7 -4 -10 1 -6 12 11 32 -15 31 -41 -1 -13
5 -26 13 -29 9 -3 11 0 6 8 -5 9 -4 11 4 6 9 -6 9 -11 0 -22 -9 -11 -14 -10
-29 9 -14 17 -16 25 -7 36 8 9 2 8 -15 -3 -28 -18 -40 -34 -15 -20 6 4 8 3 4
-1 -4 -5 -20 -11 -35 -12 -19 -3 -23 -1 -13 6 7 5 10 14 7 20 -4 6 0 11 8 11
9 0 16 4 16 10 0 5 8 7 18 4 16 -5 16 -5 0 6 -9 6 -15 16 -12 23 2 7 -5 18
-16 25 -20 12 -21 11 -15 -21 5 -25 3 -36 -8 -40 -10 -4 -13 1 -9 18 4 22 1
24 -24 19 -27 -4 -27 -3 -11 10 12 10 15 16 7 21 -13 8 -13 8 -27 -19 -6 -10
-13 -14 -16 -9 -9 14 25 51 41 46 6 -3 12 3 12 12 0 15 2 16 17 4 15 -13 15
-12 4 9 -6 12 -9 28 -5 35 5 6 -1 5 -11 -3 -10 -8 -16 -10 -12 -3 4 6 1 18 -7
26 -12 11 -12 19 -2 43 7 16 21 54 31 84 10 30 39 107 64 170 39 96 52 118 81
138 45 30 118 27 155 -8z m-365 -610 c0 -5 -2 -10 -4 -10 -3 0 -8 5 -11 10 -3
6 -1 10 4 10 6 0 11 -4 11 -10z m205 -79 c-8 -14 -25 -14 -25 0 0 5 5 7 10 4
6 -3 10 -1 10 6 0 7 3 10 6 6 3 -3 3 -10 -1 -16z m35 -11 c0 -5 -4 -10 -10
-10 -5 0 -10 5 -10 10 0 6 5 10 10 10 6 0 10 -4 10 -10z m48 -29 c-7 -12 -18
-17 -27 -13 -14 6 -14 7 2 10 9 2 17 8 17 13 0 5 5 9 10 9 6 0 6 -7 -2 -19z
m-310 -38 c-12 -15 -22 -18 -14 -4 4 5 0 11 -6 14 -7 3 -3 4 9 4 17 -1 19 -4
11 -14z m302 -13 c0 -5 -2 -10 -4 -10 -3 0 -8 5 -11 10 -3 6 -1 10 4 10 6 0
11 -4 11 -10z m58 1 c8 -4 12 -20 10 -36 l-3 -28 -16 37 c-17 36 -15 42 9 27z
m-84 -17 c3 -8 2 -12 -4 -9 -6 3 -10 10 -10 16 0 14 7 11 14 -7z m-149 -4 c-3
-5 -11 -10 -16 -10 -6 0 -7 5 -4 10 3 6 11 10 16 10 6 0 7 -4 4 -10z m200 0
c3 -5 1 -10 -4 -10 -6 0 -11 5 -11 10 0 6 2 10 4 10 3 0 8 -4 11 -10z m-355
-12 c0 -10 3 -9 9 1 5 8 11 9 15 3 3 -5 -1 -12 -9 -16 -8 -3 -17 -1 -20 4 -3
5 -13 6 -22 3 -11 -4 -14 -3 -9 5 10 16 36 15 36 0z m365 -28 c-10 -11 -20
-18 -23 -15 -7 6 18 35 31 35 5 0 2 -9 -8 -20z m-34 -57 c-12 -20 -14 -14 -5
12 4 9 9 14 11 11 3 -2 0 -13 -6 -23z m86 -35 c-3 -8 -6 -5 -6 6 -1 11 2 17 5
13 3 -3 4 -12 1 -19z m-282 -26 c-3 -3 -11 0 -18 7 -9 10 -8 11 6 5 10 -3 15
-9 12 -12z m287 4 c3 2 8 -2 11 -9 5 -12 0 -13 -23 -4 -16 6 -26 15 -23 19 2
5 10 4 17 -1 7 -6 15 -8 18 -5z m-272 -25 c0 -5 -7 -11 -15 -15 -15 -5 -20 5
-8 17 9 10 23 9 23 -2z m178 -96 c-6 -13 -15 -22 -19 -19 -5 2 -1 14 9 24 22
26 24 25 10 -5z m-34 -24 c9 -12 8 -12 -11 -1 -13 8 -19 20 -15 29 5 13 6 13
10 0 3 -7 10 -20 16 -28z m56 1 c0 -10 -6 -26 -13 -36 -12 -16 -14 -16 -14 -2
0 9 4 16 9 16 4 0 8 9 8 20 0 11 2 20 5 20 3 0 5 -8 5 -18z m291 -101 c-7 -5
-11 -13 -8 -18 3 -5 -3 -9 -13 -10 -11 -1 -22 2 -25 8 -4 5 2 6 12 2 10 -3 15
-3 11 2 -8 8 24 37 32 29 2 -3 -2 -9 -9 -13z m-581 -59 c20 -24 25 -55 8 -49
-7 2 -22 0 -33 -6 -17 -8 -17 -6 3 13 22 21 22 23 6 41 -9 10 -13 19 -8 19 5
0 16 -8 24 -18z m580 -2 c0 -5 -5 -10 -11 -10 -5 0 -7 5 -4 10 3 6 8 10 11 10
2 0 4 -4 4 -10z m-250 -90 c0 -5 -4 -10 -10 -10 -5 0 -10 5 -10 10 0 6 5 10
10 10 6 0 10 -4 10 -10z m60 -4 c0 -2 -7 -7 -16 -10 -8 -3 -12 -2 -9 4 6 10
25 14 25 6z m170 -17 c0 -5 -4 -8 -10 -4 -5 3 -8 -7 -5 -24 3 -24 0 -29 -15
-28 -10 1 -18 4 -18 7 2 18 -4 21 -17 10 -12 -10 -15 -10 -15 4 0 9 3 15 8 15
19 -3 42 2 41 9 -3 16 2 22 16 22 8 0 15 -5 15 -11z m-96 -40 c-3 -5 6 -13 19
-18 27 -10 45 -31 28 -31 -6 0 -8 -6 -5 -13 3 -8 -2 -14 -10 -14 -11 0 -12 6
-5 24 5 15 5 22 0 18 -6 -3 -19 4 -29 15 -17 18 -20 19 -25 6 -4 -9 -14 -16
-24 -16 -17 -1 -16 -2 1 -15 20 -15 11 -21 -10 -7 -18 12 -12 42 8 42 10 0 21
6 24 14 3 8 12 12 20 9 8 -3 11 -9 8 -14z m516 -45 c0 -4 -3 -4 -7 -1 -3 4
-13 1 -22 -5 -13 -10 -14 -10 -4 1 6 7 9 21 5 30 -5 14 -4 14 11 -1 9 -9 17
-20 17 -24z m-100 22 c0 -3 -4 -8 -10 -11 -5 -3 -10 -1 -10 4 0 6 5 11 10 11
6 0 10 -2 10 -4z m150 -6 c11 -7 11 -10 2 -10 -7 0 -10 -5 -6 -12 5 -8 11 -6
19 5 13 19 30 24 19 6 -3 -6 5 -4 19 6 25 16 25 16 20 -5 -4 -13 0 -26 8 -32
11 -8 10 -9 -3 -4 -10 3 -18 0 -18 -6 0 -9 -3 -9 -12 0 -7 7 -18 12 -25 12
-21 0 -64 31 -57 41 7 11 15 11 34 -1z m-565 -20 c11 9 12 7 8 -10 -4 -16 -8
-18 -19 -9 -8 6 -14 17 -13 23 0 6 3 6 6 -2 4 -9 8 -10 18 -2z m530 -20 c-3
-5 -12 -10 -18 -10 -7 0 -6 4 3 10 19 12 23 12 15 0z m-103 -22 c-6 -6 -15 -8
-19 -4 -4 4 -1 11 7 16 8 5 17 7 19 4 3 -2 -1 -10 -7 -16z m248 1 c0 -11 -4
-18 -10 -14 -5 3 -7 12 -3 20 7 21 13 19 13 -6z m-77 -15 c-7 -19 -10 -18 -16
5 -3 13 -1 18 9 14 7 -2 10 -11 7 -19z m42 -24 c3 -5 1 -10 -4 -10 -6 0 -11 5
-11 10 0 6 2 10 4 10 3 0 8 -4 11 -10z m-5524 -53 c-10 -9 -11 -8 -5 6 3 10 9
15 12 12 3 -3 0 -11 -7 -18z m5329 -11 c0 -3 -4 -8 -10 -11 -5 -3 -10 -1 -10
4 0 6 5 11 10 11 6 0 10 -2 10 -4z m-1100 -16 c0 -5 -5 -10 -11 -10 -5 0 -7 5
-4 10 3 6 8 10 11 10 2 0 4 -4 4 -10z m-175 -10 c-3 -5 -12 -10 -18 -10 -7 0
-6 4 3 10 19 12 23 12 15 0z m80 -50 c3 -5 1 -10 -4 -10 -6 0 -11 5 -11 10 0
6 2 10 4 10 3 0 8 -4 11 -10z m35 -19 c0 -5 -9 -11 -20 -14 -22 -6 -28 8 -7
16 19 8 27 8 27 -2z m-80 -205 c0 -3 -4 -8 -10 -11 -5 -3 -10 -1 -10 4 0 6 5
11 10 11 6 0 10 -2 10 -4z m1103 -11 c-3 -9 -8 -14 -10 -11 -3 3 -2 9 2 15 9
16 15 13 8 -4z m-1113 -33 c0 -2 -4 0 -10 3 -5 3 -10 1 -10 -6 0 -18 -13 -2
-17 21 -3 19 -2 19 17 3 11 -10 20 -19 20 -21z m-77 8 c-4 -16 -8 -18 -19 -9
-16 13 -19 23 -4 14 6 -3 10 -1 10 4 0 6 4 11 9 11 5 0 7 -9 4 -20z m107 10
c0 -5 -2 -10 -4 -10 -3 0 -8 5 -11 10 -3 6 -1 10 4 10 6 0 11 -4 11 -10z m-19
-47 c-12 -20 -14 -14 -5 12 4 9 9 14 11 11 3 -2 0 -13 -6 -23z m-176 -13 c3
-5 1 -10 -4 -10 -6 0 -11 5 -11 10 0 6 2 10 4 10 3 0 8 -4 11 -10z m-20 -30
c-3 -5 -1 -11 5 -15 6 -3 13 1 16 9 3 9 14 16 23 16 15 -1 15 -2 0 -13 -9 -7
-15 -18 -13 -25 1 -7 0 -9 -2 -4 -3 5 -15 7 -28 5 -19 -4 -22 -1 -20 19 3 31
3 30 14 23 6 -4 8 -10 5 -15z m205 -120 c0 -5 -5 -10 -11 -10 -5 0 -7 5 -4 10
3 6 8 10 11 10 2 0 4 -4 4 -10z m20 -20 c0 -5 -5 -10 -11 -10 -5 0 -7 5 -4 10
3 6 8 10 11 10 2 0 4 -4 4 -10z m51 -47 c-12 -20 -14 -14 -5 12 4 9 9 14 11
11 3 -2 0 -13 -6 -23z m-141 -24 c0 -5 -5 -7 -12 -3 -8 5 -9 2 -5 -9 4 -11 1
-17 -8 -17 -18 0 -20 26 -2 33 20 9 27 8 27 -4z m-471 -89 c11 -24 11 -24 -3
-6 -9 11 -16 24 -16 30 0 12 5 7 19 -24z m139 8 c15 -15 16 -38 1 -38 -5 0 -7
5 -4 10 3 6 2 10 -3 10 -6 0 -12 7 -16 15 -7 18 5 20 22 3z m-494 -19 c3 -3
-4 -5 -14 -6 -11 -1 -20 2 -20 7 0 8 25 8 34 -1z m76 1 c0 -5 -2 -10 -4 -10
-3 0 -8 5 -11 10 -3 6 -1 10 4 10 6 0 11 -4 11 -10z m-120 -55 c0 -12 -19 -12
-23 0 -4 9 -1 12 9 8 7 -3 14 -7 14 -8z m-10 -35 c0 -5 -8 -10 -17 -10 -15 0
-16 2 -3 10 19 12 20 12 20 0z m117 -45 c0 -8 -9 -17 -19 -21 -10 -3 -18 -10
-18 -15 0 -6 5 -7 10 -4 6 3 10 0 10 -7 0 -9 2 -10 8 -1 5 8 11 8 24 -1 10 -7
15 -16 11 -19 -10 -11 -25 -8 -18 2 3 6 -3 9 -12 9 -10 0 -26 3 -35 7 -12 5
-18 3 -18 -5 0 -13 -20 -32 -55 -52 -11 -6 -4 5 15 24 19 19 48 49 63 66 33
37 34 37 34 17z m236 -15 c-3 -11 -9 -20 -14 -20 -5 0 -8 -3 -8 -7 4 -27 -1
-35 -16 -23 -12 10 -11 16 7 41 25 34 38 38 31 9z m-303 6 c0 -3 -4 -8 -10
-11 -5 -3 -10 -1 -10 4 0 6 5 11 10 11 6 0 10 -2 10 -4z m-270 -54 c-5 -2 -6
-11 -3 -20 3 -9 3 -14 -1 -11 -4 4 -9 19 -12 33 -4 23 -3 25 10 14 8 -7 10
-14 6 -16z m55 8 c3 -5 2 -10 -4 -10 -5 0 -13 5 -16 10 -3 6 -2 10 4 10 5 0
13 -4 16 -10z m-20 -20 c3 -5 1 -10 -4 -10 -6 0 -11 5 -11 10 0 6 2 10 4 10 3
0 8 -4 11 -10z m226 -53 c-10 -9 -11 -8 -5 6 3 10 9 15 12 12 3 -3 0 -11 -7
-18z m112 -6 c3 -13 0 -18 -12 -16 -15 2 -17 7 -12 36 2 15 18 2 24 -20z m195
-2 c3 -11 2 -11 -6 -1 -5 7 -15 12 -22 10 -7 -2 -15 3 -17 9 -3 10 2 11 18 5
13 -5 25 -15 27 -23z m-360 -1 c-3 -7 -13 -15 -23 -16 -15 -4 -16 -2 -4 12 17
19 32 21 27 4z m692 -17 c-13 -25 -30 -36 -30 -20 0 8 -4 8 -15 -1 -8 -7 -12
-17 -8 -23 3 -6 1 -7 -5 -3 -17 11 9 48 30 43 9 -3 19 1 22 9 3 8 8 14 11 14
3 0 1 -9 -5 -19z m-620 -6 c-7 -9 -15 -13 -19 -10 -3 3 1 10 9 15 21 14 24 12
10 -5z m47 -25 c-15 -13 -26 -15 -34 -8 -10 8 -7 14 10 28 15 13 26 15 34 8
10 -8 7 -14 -10 -28z m211 27 c16 6 15 5 0 -14 -10 -11 -18 -30 -18 -43 0 -23
0 -23 -14 -4 -12 16 -12 22 -2 34 8 8 12 21 10 28 -1 7 0 8 2 3 3 -6 13 -7 22
-4z m302 -1 c0 -2 -7 -9 -15 -16 -13 -11 -14 -10 -9 4 5 14 24 23 24 12z
m-380 -63 c0 -19 -3 -24 -10 -17 -6 6 -8 18 -4 27 9 24 14 21 14 -10z m1320
-22 c0 -12 -20 -25 -27 -18 -7 7 6 27 18 27 5 0 9 -4 9 -9z m-1490 -5 c0 -3
-4 -8 -10 -11 -5 -3 -10 -1 -10 4 0 6 5 11 10 11 6 0 10 -2 10 -4z m1025 -6
c3 -5 2 -10 -4 -10 -5 0 -13 5 -16 10 -3 6 -2 10 4 10 5 0 13 -4 16 -10z
m-1049 -35 c-3 -8 -1 -15 4 -15 6 0 10 5 10 11 0 5 4 7 10 4 12 -8 -11 -46
-25 -42 -12 4 -11 57 1 57 3 0 4 -7 0 -15z m1474 0 c0 12 37 17 44 6 3 -4 -5
-8 -16 -8 -12 -1 -25 -8 -29 -15 -7 -11 -9 -11 -9 0 0 7 -4 10 -10 7 -11 -7
-14 8 -3 18 4 4 10 2 15 -5 4 -7 8 -8 8 -3z m5 -46 c11 -16 1 -19 -13 -3 -7 8
-8 14 -3 14 5 0 13 -5 16 -11z m-45 -13 c0 -3 -4 -8 -10 -11 -5 -3 -10 -1 -10
4 0 6 5 11 10 11 6 0 10 -2 10 -4z m-1490 -36 c0 -5 -5 -10 -11 -10 -5 0 -7 5
-4 10 3 6 8 10 11 10 2 0 4 -4 4 -10z m40 -10 c12 -7 12 -10 1 -10 -7 0 -11
-6 -8 -14 4 -11 1 -13 -11 -9 -15 6 -15 5 -3 -10 17 -21 30 -21 51 -2 15 14
19 14 39 -2 12 -10 23 -27 25 -38 2 -11 6 -27 8 -35 3 -16 -26 -20 -57 -7 -19
8 -19 8 -1 -7 10 -9 23 -13 29 -9 5 3 13 -1 18 -8 7 -11 9 -11 9 -1 0 7 4 11
10 7 5 -3 1 -14 -10 -25 -23 -23 -34 -26 -27 -7 3 8 -1 14 -9 14 -7 0 -11 -4
-7 -10 3 -5 6 -33 8 -63 2 -40 -1 -54 -11 -54 -8 0 -14 -3 -14 -8 0 -4 -10
-13 -22 -21 -22 -13 -22 -13 -8 4 8 9 13 30 12 45 -2 16 3 32 10 37 7 4 14 16
14 25 1 10 -3 15 -9 11 -6 -4 -8 0 -4 10 3 9 2 19 -4 22 -5 4 -8 1 -7 -6 2 -6
-3 -14 -11 -17 -9 -3 -11 0 -6 8 5 9 4 11 -3 6 -7 -4 -22 0 -34 8 -25 18 -73
22 -63 6 3 -6 -1 -7 -9 -4 -14 6 -21 -5 -17 -28 2 -13 -5 -9 -25 14 -17 19
-17 21 -1 15 15 -6 16 -4 7 13 -13 25 -30 26 -30 3 0 -14 -2 -15 -9 -4 -6 10
-1 21 18 37 14 13 20 24 14 24 -7 0 -13 5 -13 11 0 6 7 8 16 5 11 -4 15 -2 11
8 -6 14 16 17 29 4 8 -8 44 13 44 26 0 11 30 46 39 46 3 0 13 -5 21 -10z
m1635 -10 c-10 -11 -20 -18 -23 -15 -7 6 18 35 31 35 5 0 2 -9 -8 -20z m-1551
-16 c3 -8 10 -12 16 -9 5 3 10 1 10 -4 0 -16 -9 -14 -37 9 -17 14 -21 20 -10
20 8 0 18 -7 21 -16z m1302 -46 c-1 -29 -4 -52 -8 -50 -5 1 -12 2 -18 2 -15 0
-12 27 6 66 9 19 17 34 18 34 1 0 2 -24 2 -52z m-1461 32 c-3 -5 -12 -10 -18
-10 -7 0 -6 4 3 10 19 12 23 12 15 0z m565 0 c0 -5 -5 -10 -11 -10 -5 0 -7 5
-4 10 3 6 8 10 11 10 2 0 4 -4 4 -10z m863 -5 c-3 -9 -8 -14 -10 -11 -3 3 -2
9 2 15 9 16 15 13 8 -4z m67 -5 c-10 -18 -7 -24 13 -21 10 2 9 -17 -2 -24 -5
-3 -12 -1 -16 5 -4 6 -11 8 -16 5 -10 -7 -1 24 14 43 15 19 19 14 7 -8z m300
-25 c0 -8 -10 -20 -22 -26 -13 -6 -20 -8 -16 -4 4 5 3 14 -3 22 -14 17 3 17
20 1 7 -7 12 -8 11 -3 -3 14 -1 25 5 25 3 0 5 -7 5 -15z m-1920 -10 c-7 -9
-15 -13 -19 -10 -3 3 1 10 9 15 21 14 24 12 10 -5z m377 -7 c-7 -10 -19 -17
-29 -14 -9 2 -19 -1 -22 -8 -3 -7 -8 -6 -15 4 -14 21 2 36 43 37 32 1 34 -1
23 -19z m-337 -8 c0 -5 -4 -10 -10 -10 -5 0 -10 5 -10 10 0 6 5 10 10 10 6 0
10 -4 10 -10z m1497 -9 c0 -11 -7 -17 -14 -14 -9 4 -9 8 0 19 16 17 16 17 14
-5z m-1581 -26 c-11 -8 -16 -15 -10 -15 5 0 1 -7 -9 -14 -12 -9 -14 -16 -8
-21 6 -3 11 -14 10 -23 0 -12 -3 -10 -10 7 -6 15 -15 21 -24 17 -8 -3 -15 -1
-15 4 0 6 5 10 11 10 5 0 7 5 4 10 -5 8 -11 7 -21 -1 -11 -9 -14 -8 -14 5 0 9
3 15 8 14 4 0 14 1 22 5 56 21 83 22 56 2z m439 -6 c-7 -11 -35 -12 -35 -1 0
4 9 8 20 9 11 1 18 -2 15 -8z m1500 1 c3 -5 1 -10 -4 -10 -6 0 -11 5 -11 10 0
6 2 10 4 10 3 0 8 -4 11 -10z m-1297 -31 c-7 -5 -17 -9 -23 -9 -5 0 -4 4 4 9
8 5 10 14 5 22 -6 11 -4 11 10 0 13 -11 14 -16 4 -22z m-738 11 c0 -5 -4 -10
-10 -10 -5 0 -10 5 -10 10 0 6 5 10 10 10 6 0 10 -4 10 -10z m1731 -14 c-6 -7
-9 -16 -6 -20 3 -3 0 -2 -6 3 -14 12 -3 45 11 36 8 -5 8 -11 1 -19z m-1760 -3
c13 -16 12 -17 -3 -4 -17 13 -22 21 -14 21 2 0 10 -8 17 -17z m549 -5 c0 6 5
12 11 12 8 0 8 -4 -1 -15 -9 -11 -16 -12 -30 -3 -10 7 -16 16 -13 21 3 4 11 0
19 -10 8 -11 13 -13 14 -5z m-408 -12 c17 -23 17 -24 0 -22 -9 2 -17 7 -17 12
0 5 -4 15 -8 22 -15 22 8 12 25 -12z m1859 9 c5 4 6 -1 3 -9 -7 -18 -24 -22
-24 -6 0 6 -5 10 -11 10 -5 0 -7 -4 -4 -10 3 -5 -2 -10 -12 -10 -15 1 -14 4 7
21 15 13 26 16 28 10 2 -6 8 -9 13 -6z m-271 -26 c0 -6 -4 -7 -10 -4 -5 3 -10
11 -10 16 0 6 5 7 10 4 6 -3 10 -11 10 -16z m60 11 c0 -5 -4 -10 -10 -10 -5 0
-10 5 -10 10 0 6 5 10 10 10 6 0 10 -4 10 -10z m-1395 -10 c3 -5 -1 -10 -9
-10 -8 0 -18 5 -21 10 -3 6 1 10 9 10 8 0 18 -4 21 -10z m89 -7 c-17 -13 -34
-9 -34 7 0 6 12 9 26 8 23 -2 23 -4 8 -15z m-270 -9 c3 -8 2 -13 -3 -9 -5 3
-12 -1 -14 -7 -3 -7 -6 -3 -6 10 -1 25 14 30 23 6z m327 -4 c0 -3 2 -15 5 -27
2 -13 -1 -23 -7 -23 -5 0 -7 -4 -4 -10 3 -5 13 -10 21 -10 8 0 12 4 9 10 -3 6
1 7 9 4 9 -3 14 -10 11 -14 -3 -5 -1 -11 5 -15 17 -11 11 -24 -20 -40 -16 -9
-30 -13 -30 -9 0 4 -8 0 -17 -7 -11 -10 -14 -10 -9 -1 4 6 3 12 -3 12 -5 0
-11 -4 -13 -10 -1 -5 -27 -16 -56 -23 -43 -12 -50 -12 -41 -1 6 8 14 12 18 10
3 -2 15 2 26 10 14 11 16 17 7 26 -9 9 -17 7 -33 -8 -22 -19 -22 -19 -8 4 8
12 19 22 26 22 7 0 13 5 13 11 0 5 -4 8 -9 4 -5 -3 -12 -1 -16 5 -3 5 0 10 8
10 8 0 17 9 20 20 3 11 0 20 -6 20 -25 0 5 12 40 16 34 4 36 3 20 -10 -17 -13
-16 -14 7 -12 29 1 29 16 1 33 -19 11 -19 12 3 10 12 -1 22 -4 23 -7z m229 0
c-8 -5 -19 -10 -25 -10 -5 0 -3 5 5 10 8 5 20 10 25 10 6 0 3 -5 -5 -10z
m1150 6 c0 -3 -4 -8 -10 -11 -5 -3 -10 -1 -10 4 0 6 5 11 10 11 6 0 10 -2 10
-4z m-1791 -42 c-6 -8 -21 -12 -33 -10 -11 3 -25 5 -30 5 -11 1 -5 9 7 10 4 0
15 7 23 16 21 20 51 1 33 -21z m681 26 c0 -5 -5 -10 -11 -10 -5 0 -7 5 -4 10
3 6 8 10 11 10 2 0 4 -4 4 -10z m905 -28 c-18 -4 -18 -7 -4 -33 10 -19 9 -20
-11 -9 -19 10 -26 8 -49 -14 -24 -23 -30 -25 -40 -12 -16 20 5 55 29 49 11 -3
25 5 36 20 15 20 22 22 37 13 15 -9 15 -12 2 -14z m-1725 -12 c8 13 10 13 10
-1 0 -9 -7 -20 -15 -23 -13 -4 -14 -10 -5 -26 6 -11 15 -18 20 -15 5 3 12 0
16 -6 5 -9 0 -10 -14 -7 -13 4 -20 2 -16 -4 3 -5 -2 -18 -12 -29 -17 -19 -17
-20 2 -13 10 4 24 11 30 16 13 9 28 -18 18 -33 -3 -5 2 -9 11 -9 12 0 15 5 11
16 -6 14 -4 15 9 4 15 -12 15 -14 -1 -23 -12 -7 -24 -6 -37 3 -17 10 -23 10
-33 -5 -7 -9 -17 -14 -23 -10 -6 3 -11 1 -11 -4 0 -6 -18 -11 -40 -11 -38 0
-52 12 -30 25 6 3 10 0 10 -7 0 -7 8 2 16 19 9 18 20 30 25 27 5 -3 9 0 9 5 0
26 -46 -2 -70 -42 -11 -18 -20 -27 -20 -21 0 7 -11 14 -25 16 -20 4 -23 3 -14
-8 12 -15 2 -18 -18 -6 -10 6 -11 30 -3 52 1 3 2 9 1 13 -1 5 3 6 9 2 13 -8
13 1 0 26 -7 13 -7 19 0 19 5 0 10 -7 10 -15 0 -7 7 -18 16 -23 9 -5 15 -13
14 -18 -1 -5 4 -10 11 -13 6 -2 9 1 6 6 -9 14 8 34 31 36 12 1 22 7 22 14 0 7
5 13 11 13 6 0 3 7 -6 16 -14 15 -15 19 -2 31 12 12 19 13 36 3 20 -10 21 -9
16 17 -5 28 -5 28 5 3 9 -20 13 -22 20 -10z m760 -6 c0 -8 -19 -13 -24 -6 -3
5 1 9 9 9 8 0 15 -2 15 -3z m1010 -20 c0 -20 -7 -17 -20 6 -9 16 -8 18 5 14 8
-4 15 -12 15 -20z m-1935 6 c3 -5 2 -10 -4 -10 -5 0 -13 5 -16 10 -3 6 -2 10
4 10 5 0 13 -4 16 -10z m255 -8 c0 -4 -10 -9 -22 -9 -18 -2 -20 0 -8 7 18 12
30 13 30 2z m1288 -12 c-7 -10 -14 -17 -17 -15 -4 4 18 35 25 35 2 0 -1 -9 -8
-20z m-1568 0 c0 -5 -2 -10 -4 -10 -3 0 -8 5 -11 10 -3 6 -1 10 4 10 6 0 11
-4 11 -10z m872 0 c-18 -15 -62 -29 -62 -20 0 6 7 10 15 10 8 0 15 4 15 9 0 6
9 9 20 8 11 -1 16 -4 12 -7z m-827 -25 c0 -26 -10 -34 -18 -12 -5 14 2 37 12
37 3 0 6 -11 6 -25z m365 11 c0 -2 -7 -7 -16 -10 -8 -3 -12 -2 -9 4 6 10 25
14 25 6z m-150 -12 c0 -3 -7 -12 -15 -20 -16 -17 -18 -14 -9 10 6 15 24 23 24
10z m1613 -11 c-5 -12 -18 -17 -36 -14 -5 1 -7 -4 -4 -11 2 -7 11 -12 20 -12
9 1 13 -4 10 -12 -7 -19 -16 -17 -31 6 -9 15 -10 26 -2 40 11 21 51 24 43 3z
m-1583 3 c0 -3 -4 -8 -10 -11 -5 -3 -10 -1 -10 4 0 6 5 11 10 11 6 0 10 -2 10
-4z m141 -14 c-6 -12 -7 -22 -1 -28 6 -6 3 -10 -9 -10 -11 0 -17 6 -15 13 2 7
6 20 9 28 2 8 9 15 15 15 7 0 8 -6 1 -18z m1534 8 c-3 -5 -12 -10 -18 -10 -7
0 -6 4 3 10 19 12 23 12 15 0z m-1999 -40 c1 -16 -3 -27 -7 -24 -5 3 -9 12 -9
21 0 12 -5 11 -20 -7 -23 -27 -26 -38 -6 -21 8 7 17 8 19 4 8 -13 -5 -27 -27
-31 -16 -3 -17 1 -12 24 6 23 41 63 56 64 3 0 5 -13 6 -30z m1838 14 c3 -8 2
-12 -4 -9 -6 3 -10 10 -10 16 0 14 7 11 14 -7z m-1503 -4 c10 -6 19 -16 19
-23 0 -8 -3 -8 -9 2 -6 9 -11 10 -15 2 -9 -14 -26 -5 -26 15 0 17 5 17 31 4z
m89 -20 c0 -5 -4 -10 -10 -10 -5 0 -10 5 -10 10 0 6 5 10 10 10 6 0 10 -4 10
-10z m80 0 c0 -5 -5 -10 -11 -10 -5 0 -7 5 -4 10 3 6 8 10 11 10 2 0 4 -4 4
-10z m-260 -35 c11 -13 10 -14 -4 -9 -9 3 -16 10 -16 15 0 13 6 11 20 -6z
m1000 -85 c0 -5 -4 -10 -10 -10 -5 0 -10 5 -10 10 0 6 5 10 10 10 6 0 10 -4
10 -10z m-261 -113 c9 4 3 -7 -14 -23 -20 -19 -34 -27 -42 -21 -7 5 -18 5 -24
1 -7 -4 -9 -3 -6 3 4 6 -1 12 -11 15 -22 4 -78 -47 -61 -58 8 -4 9 -3 5 4 -4
7 -2 12 3 12 6 0 11 -4 11 -9 0 -5 3 -24 6 -42 4 -26 3 -30 -5 -19 -7 9 -11
10 -11 3 0 -19 21 -27 31 -12 9 14 4 73 -8 91 -3 6 0 8 8 6 8 -3 13 -13 13
-22 -1 -9 2 -16 8 -16 5 0 6 -5 2 -12 -4 -7 -3 -8 4 -4 6 4 9 13 5 21 -3 8 0
15 6 15 6 0 12 -8 12 -17 3 -43 5 -48 18 -48 8 0 16 -7 18 -15 4 -13 3 -13 -7
0 -10 13 -11 13 -7 0 2 -8 12 -14 23 -13 16 1 64 -39 64 -54 0 -3 -7 -11 -16
-18 -13 -9 -15 -21 -9 -53 4 -23 11 -42 17 -42 6 0 8 10 4 24 -7 27 0 37 20
29 10 -4 11 -10 3 -25 -6 -11 -9 -22 -6 -24 2 -2 10 7 17 21 7 14 18 25 23 25
5 0 4 -6 -2 -13 -6 -8 -8 -17 -4 -21 12 -12 10 -46 -4 -57 -9 -8 -13 -8 -13 0
0 6 6 11 13 11 6 0 4 5 -6 11 -26 15 -39 1 -20 -21 12 -14 20 -16 29 -9 7 6
18 8 24 4 5 -3 10 -1 10 4 0 6 5 11 12 11 6 0 4 -7 -5 -18 -22 -24 -22 -36 0
-28 15 6 15 5 -1 -13 -18 -20 -18 -20 -43 10 -15 17 -32 28 -40 25 -8 -3 -11
-1 -8 4 3 6 -3 10 -14 10 -25 0 -26 -6 -6 -26 8 -9 15 -21 15 -27 0 -8 -3 -8
-8 -2 -11 15 -32 17 -26 2 2 -7 -2 -21 -10 -32 -9 -11 -16 -15 -16 -8 0 6 5
15 10 18 12 7 4 25 -11 25 -6 0 -7 -4 -4 -10 3 -5 2 -10 -4 -10 -6 0 -13 11
-17 25 -3 14 -13 25 -21 25 -7 0 -20 14 -27 30 -7 17 -15 28 -18 25 -3 -3 -15
-7 -27 -10 -27 -5 -28 11 -1 18 11 3 20 13 20 22 0 9 -5 13 -10 10 -6 -4 -7
-11 -4 -17 5 -7 2 -9 -8 -6 -8 4 -21 -2 -29 -13 -7 -10 -23 -19 -35 -19 -12 0
-27 -7 -34 -15 -7 -9 -19 -14 -26 -11 -7 3 -14 -1 -17 -7 -3 -7 3 -13 14 -13
11 0 19 4 19 8 0 4 4 8 10 8 5 0 1 -13 -8 -30 -9 -16 -21 -30 -26 -30 -5 0 -3
7 4 15 12 15 11 16 -12 19 -7 0 -14 11 -16 24 -4 23 -16 29 -27 12 -3 -5 -12
-7 -21 -3 -21 8 2 34 24 26 13 -4 14 -3 6 6 -12 13 -64 -1 -64 -17 0 -4 -9 -8
-20 -9 -11 -1 -18 2 -15 7 3 5 -5 16 -17 26 -18 12 -19 15 -4 10 14 -5 17 -2
12 10 -4 12 -1 14 14 9 14 -5 20 -2 20 10 0 9 5 13 10 10 6 -3 10 1 10 9 0 8
-8 19 -17 25 -10 5 -14 13 -10 17 5 5 12 2 17 -6 8 -13 13 -13 32 -1 23 14 23
13 5 -6 -18 -20 -17 -21 13 -25 28 -4 40 5 21 16 -12 8 -1 53 17 68 12 10 14
10 8 1 -4 -7 -3 -13 3 -13 5 0 13 5 17 11 5 8 9 8 14 -1 5 -8 14 5 25 34 11
28 24 46 34 46 11 1 8 5 -9 15 -23 13 -23 14 -4 15 11 0 26 10 33 23 7 13 31
30 54 39 39 14 43 14 61 -3 11 -11 22 -16 25 -13 3 3 -1 9 -9 15 -13 8 -13 10
0 19 9 5 19 5 24 0 4 -4 16 -6 25 -3z m-1859 -23 c0 -14 -12 -19 -23 -8 -9 9
4 35 14 28 5 -3 9 -12 9 -20z m1887 -16 c-3 -8 -6 -5 -6 6 -1 11 2 17 5 13 3
-3 4 -12 1 -19z m-17 -7 c0 -5 -9 -13 -20 -16 -11 -4 -18 -10 -16 -14 3 -4 -1
-8 -9 -8 -20 0 -19 6 8 28 24 20 37 24 37 10z m345 -10 c3 -5 1 -12 -4 -15 -5
-3 -11 1 -15 9 -6 16 9 21 19 6z m-601 -28 c-7 -2 -10 -13 -7 -23 6 -22 -28
-42 -35 -21 -3 9 -12 5 -29 -11 -21 -19 -23 -20 -17 -3 7 18 7 18 -18 -1 -18
-13 -23 -23 -16 -31 5 -7 7 -22 3 -34 -5 -16 -10 -18 -18 -9 -9 10 -9 14 1 17
6 3 9 9 6 14 -3 6 -12 5 -22 -3 -9 -7 -4 4 11 25 20 27 24 37 13 37 -8 0 -18
4 -21 10 -3 6 1 7 10 4 16 -7 47 24 39 38 -3 5 2 8 10 8 21 0 20 -18 -2 -38
-10 -10 -12 -13 -5 -8 8 5 13 4 13 -4 0 -10 3 -10 15 0 12 10 18 10 30 0 13
-11 15 -8 15 14 0 14 5 26 11 26 5 0 7 6 3 13 -4 7 -2 7 7 -2 10 -9 11 -15 3
-18z m-1139 -3 c-4 -6 6 -7 27 -4 32 6 32 6 12 -9 -15 -11 -30 -14 -50 -8 -27
7 -28 8 -9 19 25 14 28 15 20 2z m-461 -16 c20 -8 20 -20 0 -28 -9 -4 -13 -2
-8 5 4 6 0 15 -7 20 -16 10 -8 12 15 3z m386 -10 c-11 -12 -11 -15 0 -12 7 2
15 -4 18 -12 2 -8 1 -12 -3 -8 -4 4 -20 -1 -35 -12 -49 -35 -55 -19 -13 29 27
31 57 45 33 15z m1035 -14 c3 -5 2 -10 -4 -10 -5 0 -13 5 -16 10 -3 6 -2 10 4
10 5 0 13 -4 16 -10z m-815 -18 c0 -11 -37 -41 -43 -35 -6 6 24 43 35 43 5 0
8 -3 8 -8z m-880 -21 c0 -6 -4 -13 -10 -16 -5 -3 -10 1 -10 9 0 9 5 16 10 16
6 0 10 -4 10 -9z m26 -28 c-10 -10 -19 5 -10 18 6 11 8 11 12 0 2 -7 1 -15 -2
-18z m784 17 c0 -5 -2 -10 -4 -10 -3 0 -8 5 -11 10 -3 6 -1 10 4 10 6 0 11 -4
11 -10z m670 -14 c0 -11 -19 -15 -25 -6 -3 5 1 10 9 10 9 0 16 -2 16 -4z
m-1400 -47 c0 -14 -17 -10 -23 5 -4 10 -1 13 9 9 7 -3 14 -9 14 -14z m60 -13
c0 -9 -8 -12 -25 -8 -14 2 -25 8 -25 13 0 5 11 9 25 9 14 0 25 -6 25 -14z m30
-6 c0 -5 -5 -10 -11 -10 -5 0 -7 5 -4 10 3 6 8 10 11 10 2 0 4 -4 4 -10z
m1480 -10 c0 -5 -4 -10 -10 -10 -5 0 -10 5 -10 10 0 6 5 10 10 10 6 0 10 -4
10 -10z m64 -2 c-3 -4 -11 -5 -19 -1 -21 7 -19 12 4 10 11 0 18 -5 15 -9z
m-293 -42 c5 3 9 0 9 -6 0 -7 -6 -10 -14 -7 -7 3 -19 0 -26 -6 -8 -8 -8 -4 1
11 8 12 15 18 17 12 2 -6 8 -8 13 -4z m-1211 -15 c0 -5 -7 -16 -15 -24 -12
-12 -35 -14 -85 -8 -2 1 6 8 18 17 19 13 25 14 39 2 10 -7 14 -8 10 -1 -4 6
-1 14 5 16 20 8 28 8 28 -2z m1470 -22 c0 -15 -18 -19 -23 -6 -3 8 1 14 9 14
8 0 14 -4 14 -8z m-183 -21 c-3 -8 -6 -5 -6 6 -1 11 2 17 5 13 3 -3 4 -12 1
-19z m-28 -14 c-11 -13 -10 -15 2 -14 26 4 39 0 39 -11 0 -6 -7 -9 -15 -5 -13
5 -21 -13 -12 -29 4 -8 -44 -38 -50 -31 -4 3 -1 6 5 6 7 0 12 7 12 16 0 11 -6
15 -20 11 -13 -3 -20 0 -20 8 0 8 9 13 20 12 11 -1 20 -5 20 -9 0 -4 5 -8 10
-8 15 0 12 30 -3 36 -20 7 -16 30 5 31 16 2 17 -1 7 -13z m-1282 -21 c-10 -22
-13 -24 -15 -9 -2 10 2 22 10 27 19 12 19 12 5 -18z m1340 5 c-3 -8 -6 -5 -6
6 -1 11 2 17 5 13 3 -3 4 -12 1 -19z m148 -26 c-3 -3 -14 4 -25 15 -10 12 -16
24 -13 27 3 3 14 -4 25 -16 10 -12 16 -24 13 -26z m70 38 c-3 -5 -1 -10 6 -10
8 0 8 -4 -1 -15 -7 -8 -9 -15 -4 -15 4 0 3 -5 -4 -12 -7 -7 -12 -26 -12 -43 0
-23 -3 -26 -10 -15 -8 12 -10 10 -10 -8 0 -14 4 -21 11 -16 8 4 8 0 0 -15 -7
-11 -17 -21 -24 -21 -7 0 -6 4 3 10 11 7 12 12 3 21 -8 8 -13 6 -18 -10 -3
-12 -11 -21 -16 -21 -6 0 -1 13 10 29 12 16 21 36 21 45 0 9 5 16 10 16 6 0 9
3 9 8 -1 4 0 9 1 12 1 3 3 13 5 23 5 28 14 47 20 47 4 0 3 -4 0 -10z m261 -17
c-10 -10 -19 5 -10 18 6 11 8 11 12 0 2 -7 1 -15 -2 -18z m-593 10 c-7 -2 -13
-12 -13 -20 0 -9 -3 -14 -6 -10 -10 10 4 37 18 36 10 0 10 -2 1 -6z m377 -2
c0 -5 -6 -14 -14 -21 -12 -9 -15 -8 -13 9 1 20 27 31 27 12z m134 -33 c6 -4 7
-8 1 -8 -16 0 -31 14 -29 28 3 24 6 27 11 7 3 -11 10 -23 17 -27z m20 27 c3
-8 1 -15 -4 -15 -6 0 -10 7 -10 15 0 8 2 15 4 15 2 0 6 -7 10 -15z m50 -18 c3
4 6 4 6 0 0 -3 -4 -8 -9 -12 -11 -6 -41 22 -41 38 1 7 9 2 19 -10 10 -12 21
-19 25 -16z m-1837 -9 c-2 -12 -9 -24 -15 -26 -7 -2 -10 -8 -6 -13 3 -5 0 -9
-6 -9 -6 0 -8 -5 -5 -10 4 -6 16 -8 28 -5 22 6 22 6 2 -9 -11 -8 -24 -19 -30
-23 -14 -11 -75 -15 -75 -5 0 15 41 43 53 36 9 -5 8 -3 0 7 -17 18 -16 29 3
29 9 0 12 5 8 12 -5 7 -3 8 5 4 8 -5 14 0 18 13 7 28 24 27 20 -1z m1543 -8
c0 -5 -5 -10 -11 -10 -5 0 -7 5 -4 10 3 6 8 10 11 10 2 0 4 -4 4 -10z m480 0
c0 -5 -4 -10 -10 -10 -5 0 -10 5 -10 10 0 6 5 10 10 10 6 0 10 -4 10 -10z
m-272 -22 c-2 -6 -10 -14 -16 -16 -7 -2 -10 2 -6 12 7 18 28 22 22 4z m53 -1
c-6 -8 -8 -17 -4 -20 3 -4 2 -7 -4 -7 -17 0 -22 12 -10 26 16 17 33 18 18 1z
m-1897 -31 c-7 -18 -25 -17 -32 2 -2 7 2 10 12 6 10 -4 16 -1 16 7 0 7 2 10 5
7 3 -3 3 -13 -1 -22z m2016 14 c0 -5 -4 -10 -10 -10 -5 0 -10 5 -10 10 0 6 5
10 10 10 6 0 10 -4 10 -10z m-400 -20 c0 -5 -4 -10 -10 -10 -5 0 -10 5 -10 10
0 6 5 10 10 10 6 0 10 -4 10 -10z m-360 -8 c0 -5 -9 -17 -20 -27 -19 -18 -20
-17 -20 3 0 18 11 29 33 31 4 1 7 -3 7 -7z m827 -70 c0 -10 -7 -19 -13 -19 -9
0 -10 5 -3 19 12 23 18 23 16 0z m-445 -24 c-7 -7 -12 -8 -12 -2 0 14 12 26
19 19 2 -3 -1 -11 -7 -17z"/>
<path d="M5210 4103 c5 -2 8 -9 4 -14 -3 -5 0 -9 6 -9 15 0 7 23 -8 26 -7 1
-8 0 -2 -3z"/>
<path d="M5369 3818 c-6 -21 -5 -39 2 -44 5 -3 8 0 7 8 -2 7 3 12 11 10 12 -3
12 0 1 12 -12 15 -19 19 -21 14z"/>
<path d="M4974 3671 c0 -11 4 -17 8 -15 4 3 8 12 8 20 0 8 -4 14 -8 14 -4 0
-8 -9 -8 -19z"/>
<path d="M5166 3671 c-3 -5 1 -11 9 -14 9 -4 12 -1 8 9 -6 16 -10 17 -17 5z"/>
<path d="M5335 3540 c3 -5 8 -10 11 -10 2 0 4 5 4 10 0 6 -5 10 -11 10 -5 0
-7 -4 -4 -10z"/>
<path d="M5270 3526 c0 -9 5 -16 10 -16 6 0 10 4 10 9 0 6 -4 13 -10 16 -5 3
-10 -1 -10 -9z"/>
<path d="M5310 3459 c0 -5 5 -7 10 -4 6 3 10 8 10 11 0 2 -4 4 -10 4 -5 0 -10
-5 -10 -11z"/>
<path d="M5303 3353 c9 -2 23 -2 30 0 6 3 -1 5 -18 5 -16 0 -22 -2 -12 -5z"/>
<path d="M5330 3249 c0 -5 5 -7 10 -4 6 3 10 8 10 11 0 2 -4 4 -10 4 -5 0 -10
-5 -10 -11z"/>
<path d="M5435 3190 c-3 -5 1 -10 10 -10 9 0 13 5 10 10 -3 6 -8 10 -10 10 -2
0 -7 -4 -10 -10z"/>
<path d="M5372 3148 c7 -15 15 -23 17 -17 2 6 -4 18 -13 27 -15 15 -15 15 -4
-10z"/>
<path d="M5417 3072 c-5 -7 -13 -10 -18 -7 -5 3 -6 -1 -3 -10 5 -11 2 -14 -11
-9 -12 5 -16 3 -13 -6 2 -7 14 -14 25 -15 15 -1 19 3 15 14 -5 14 -4 14 11 2
10 -8 20 -11 24 -7 3 3 1 6 -5 6 -6 0 -12 10 -14 23 -2 15 -5 18 -11 9z"/>
<path d="M5096 3031 c-3 -5 1 -11 9 -14 9 -4 12 -1 8 9 -6 16 -10 17 -17 5z"/>
<path d="M5265 3010 c-4 -6 -11 -7 -17 -4 -7 4 -8 2 -4 -4 10 -16 23 -15 30 3
6 17 0 20 -9 5z"/>
<path d="M5291 3004 c0 -11 3 -14 6 -6 3 7 2 16 -1 19 -3 4 -6 -2 -5 -13z"/>
<path d="M5140 2969 c0 -5 5 -7 10 -4 6 3 10 8 10 11 0 2 -4 4 -10 4 -5 0 -10
-5 -10 -11z"/>
<path d="M5100 2950 c0 -5 5 -12 10 -15 6 -4 8 -10 5 -15 -3 -5 4 -14 15 -20
37 -20 39 -6 4 27 -19 18 -34 28 -34 23z"/>
<path d="M5165 2940 c-3 -5 -1 -10 4 -10 6 0 11 5 11 10 0 6 -2 10 -4 10 -3 0
-8 -4 -11 -10z"/>
<path d="M5125 2870 c3 -5 8 -10 11 -10 2 0 4 5 4 10 0 6 -5 10 -11 10 -5 0
-7 -4 -4 -10z"/>
<path d="M5420 2686 c0 -2 7 -7 16 -10 8 -3 12 -2 9 4 -6 10 -25 14 -25 6z"/>
<path d="M4951 2618 c0 -16 2 -18 6 -8 3 8 11 18 17 22 7 5 4 8 -6 8 -12 0
-18 -7 -17 -22z"/>
<path d="M5410 2626 c0 -9 -5 -16 -11 -16 -5 0 -7 -5 -3 -11 4 -7 9 -7 13 -2
3 6 12 12 20 14 10 4 10 7 -3 18 -14 11 -16 11 -16 -3z"/>
<path d="M4795 2520 c-3 -6 1 -7 9 -4 18 7 21 14 7 14 -6 0 -13 -4 -16 -10z"/>
<path d="M4740 2500 c0 -5 5 -10 10 -10 6 0 10 5 10 10 0 6 -4 10 -10 10 -5 0
-10 -4 -10 -10z"/>
<path d="M5196 2488 c3 -5 10 -6 15 -3 13 9 11 12 -6 12 -8 0 -12 -4 -9 -9z"/>
<path d="M4666 2456 c3 -7 17 -13 31 -13 l26 0 -24 13 c-31 17 -40 17 -33 0z"/>
<path d="M4925 2420 c3 -5 8 -10 11 -10 2 0 4 5 4 10 0 6 -5 10 -11 10 -5 0
-7 -4 -4 -10z"/>
<path d="M4580 2411 c0 -6 4 -13 10 -16 6 -3 7 1 4 9 -7 18 -14 21 -14 7z"/>
<path d="M4880 2379 c0 -5 5 -7 10 -4 6 3 10 8 10 11 0 2 -4 4 -10 4 -5 0 -10
-5 -10 -11z"/>
<path d="M4896 2354 c-18 -17 -20 -24 -8 -24 4 0 13 9 20 20 15 24 9 26 -12 4z"/>
<path d="M4687 2343 c3 -7 6 -13 8 -13 2 0 5 6 8 13 3 8 -1 14 -8 14 -7 0 -11
-6 -8 -14z"/>
<path d="M4635 2180 c-3 -5 -1 -10 4 -10 6 0 11 5 11 10 0 6 -2 10 -4 10 -3 0
-8 -4 -11 -10z"/>
<path d="M4657 2063 c-4 -3 -7 -11 -7 -17 0 -6 5 -5 12 2 6 6 9 14 7 17 -3 3
-9 2 -12 -2z"/>
<path d="M4585 1960 c-3 -5 -1 -10 4 -10 6 0 11 5 11 10 0 6 -2 10 -4 10 -3 0
-8 -4 -11 -10z"/>
<path d="M4615 1910 c3 -5 8 -10 11 -10 2 0 4 5 4 10 0 6 -5 10 -11 10 -5 0
-7 -4 -4 -10z"/>
<path d="M4520 1860 c-13 -8 -13 -11 -1 -22 9 -8 11 -8 7 -1 -3 6 1 13 11 15
11 2 14 6 8 10 -6 4 -17 3 -25 -2z"/>
<path d="M4415 1740 c-3 -5 -1 -10 4 -10 6 0 11 5 11 10 0 6 -2 10 -4 10 -3 0
-8 -4 -11 -10z"/>
<path d="M4425 1710 c3 -5 14 -10 23 -10 15 0 15 2 2 10 -20 13 -33 13 -25 0z"/>
<path d="M4520 1661 c0 -5 5 -13 10 -16 6 -3 10 -2 10 4 0 5 -4 13 -10 16 -5
3 -10 2 -10 -4z"/>
<path d="M4436 1571 c-3 -5 1 -11 9 -14 9 -4 12 -1 8 9 -6 16 -10 17 -17 5z"/>
<path d="M4808 1563 c7 -3 16 -2 19 1 4 3 -2 6 -13 5 -11 0 -14 -3 -6 -6z"/>
<path d="M4625 1530 c4 -6 11 -8 16 -5 14 9 11 15 -7 15 -8 0 -12 -5 -9 -10z"/>
<path d="M4655 1520 c-3 -5 -1 -10 6 -10 8 0 7 -5 -2 -16 -12 -15 -11 -16 11
-9 33 10 49 25 27 25 -9 0 -17 5 -17 10 0 6 -4 10 -9 10 -6 0 -13 -4 -16 -10z"/>
<path d="M4217 1159 c7 -7 15 -10 18 -7 3 3 -2 9 -12 12 -14 6 -15 5 -6 -5z"/>
<path d="M5455 2800 c-3 -5 -1 -10 4 -10 6 0 11 5 11 10 0 6 -2 10 -4 10 -3 0
-8 -4 -11 -10z"/>
<path d="M3640 1296 c0 -2 8 -10 18 -17 15 -13 16 -12 3 4 -13 16 -21 21 -21
13z"/>
<path d="M3719 1273 c-13 -16 -12 -17 4 -4 9 7 17 15 17 17 0 8 -8 3 -21 -13z"/>
<path d="M3746 1257 c3 -10 9 -15 12 -12 3 3 0 11 -7 18 -10 9 -11 8 -5 -6z"/>
<path d="M3720 1075 c0 -8 2 -15 4 -15 2 0 6 7 10 15 3 8 1 15 -4 15 -6 0 -10
-7 -10 -15z"/>
<path d="M3786 1062 c1 -32 16 -39 35 -15 11 15 11 16 -1 6 -20 -18 -29 -16
-23 6 3 10 1 21 -4 24 -5 3 -8 -6 -7 -21z"/>
<path d="M3810 1009 c0 -5 5 -7 10 -4 6 3 10 8 10 11 0 2 -4 4 -10 4 -5 0 -10
-5 -10 -11z"/>
<path d="M3845 1010 c-3 -5 -2 -10 4 -10 5 0 13 5 16 10 3 6 2 10 -4 10 -5 0
-13 -4 -16 -10z"/>
<path d="M3425 1080 c3 -5 8 -10 11 -10 2 0 4 5 4 10 0 6 -5 10 -11 10 -5 0
-7 -4 -4 -10z"/>
<path d="M3262 1000 c-16 -26 -15 -33 4 -26 12 5 15 2 10 -10 -5 -14 -4 -15 9
-4 9 8 12 17 6 24 -4 6 -10 17 -12 24 -3 8 -8 5 -17 -8z"/>
<path d="M3120 935 c-8 -9 -8 -15 -2 -15 12 0 26 19 19 26 -2 2 -10 -2 -17
-11z"/>
<path d="M3978 563 c6 -2 10 -9 6 -14 -3 -5 -1 -9 5 -9 17 0 21 18 5 24 -9 3
-19 6 -22 5 -4 0 -1 -3 6 -6z"/>
<path d="M3854 536 c-11 -12 -16 -51 -5 -40 3 3 6 9 6 12 0 4 4 13 9 20 11 18
4 23 -10 8z"/>
<path d="M3963 515 c-8 -23 4 -30 21 -12 8 8 12 17 9 21 -11 11 -23 7 -30 -9z"/>
<path d="M4060 500 c0 -5 7 -7 15 -4 8 4 15 8 15 10 0 2 -7 4 -15 4 -8 0 -15
-4 -15 -10z"/>
<path d="M3885 490 c-3 -5 -3 -16 1 -22 4 -7 4 -10 -1 -6 -4 4 -16 3 -26 -2
-12 -7 -19 -6 -22 3 -3 6 -6 2 -6 -11 -1 -13 -5 -21 -10 -17 -11 6 -26 -13
-17 -22 3 -4 14 1 23 9 10 9 29 18 43 20 17 2 25 9 25 23 0 13 6 19 18 17 9
-2 17 2 17 8 0 13 -37 13 -45 0z"/>
<path d="M3759 463 c-13 -16 -12 -17 4 -4 16 13 21 21 13 21 -2 0 -10 -8 -17
-17z"/>
<path d="M3835 400 c-3 -5 -17 -10 -31 -10 -27 0 -32 -21 -9 -40 17 -14 35 -5
35 19 0 9 5 22 12 29 7 7 9 12 6 12 -4 0 -10 -4 -13 -10z m-25 -24 c0 -3 -4
-8 -10 -11 -5 -3 -10 -1 -10 4 0 6 5 11 10 11 6 0 10 -2 10 -4z"/>
<path d="M5200 5870 c0 -4 7 -7 15 -6 23 3 26 12 5 13 -11 1 -20 -2 -20 -7z"/>
<path d="M6330 5820 c-7 -13 -5 -21 6 -31 8 -7 13 -20 11 -30 -3 -12 0 -15 15
-11 11 3 23 -1 27 -7 4 -7 8 8 7 32 0 39 -4 45 -28 55 -24 9 -30 7 -38 -8z
m39 -9 c14 -12 18 -22 11 -26 -6 -3 -8 -11 -5 -16 4 -5 1 -9 -5 -9 -7 0 -9 8
-5 20 5 16 2 20 -14 20 -14 0 -19 5 -15 15 8 19 7 19 33 -4z"/>
<path d="M5210 5811 c0 -6 4 -12 8 -15 5 -3 9 1 9 9 0 8 -4 15 -9 15 -4 0 -8
-4 -8 -9z"/>
<path d="M4545 5710 c-9 -14 7 -48 21 -43 8 3 14 -1 14 -10 0 -24 45 -48 72
-38 22 9 22 9 3 18 -24 10 -31 33 -9 33 8 0 12 5 9 10 -4 6 -10 8 -15 5 -5 -3
-14 1 -22 8 -15 16 -66 28 -73 17z m47 -22 c-9 -9 -15 -9 -24 0 -9 9 -7 12 12
12 19 0 21 -3 12 -12z"/>
<path d="M4670 5660 c0 -5 7 -7 15 -4 8 4 15 8 15 10 0 2 -7 4 -15 4 -8 0 -15
-4 -15 -10z"/>
<path d="M6379 5668 c-8 -27 -5 -36 9 -30 10 4 12 7 4 10 -7 2 -10 8 -6 13 3
5 3 9 0 9 -3 0 -6 -1 -7 -2z"/>
<path d="M5803 4703 c0 -9 4 -10 14 -2 7 6 13 12 13 14 0 1 -6 2 -13 2 -8 0
-14 -6 -14 -14z"/>
<path d="M5975 4650 c3 -5 8 -10 11 -10 2 0 4 5 4 10 0 6 -5 10 -11 10 -5 0
-7 -4 -4 -10z"/>
<path d="M5831 4601 c-7 -5 -10 -14 -6 -20 4 -7 -1 -23 -10 -37 -9 -13 -13
-29 -10 -35 4 -5 1 -18 -6 -27 -7 -9 -10 -14 -5 -10 13 11 48 -11 40 -24 -4
-7 -3 -8 4 -4 7 4 12 14 12 22 0 8 5 14 10 14 6 0 9 -6 8 -12 -2 -7 3 -12 10
-10 6 1 12 -4 12 -11 0 -7 9 -13 20 -14 18 -2 19 0 5 13 -8 9 -15 18 -15 22 0
3 5 1 12 -6 17 -17 28 -15 21 6 -5 14 -3 13 10 -3 14 -17 16 -17 17 -4 0 16
-17 36 -32 38 -5 1 -7 4 -5 9 1 4 6 6 10 4 4 -1 19 -3 32 -4 13 -1 21 -6 19
-10 -3 -4 -12 -4 -22 -1 -12 5 -10 -1 8 -21 13 -14 30 -24 38 -21 10 3 12 -1
7 -18 -4 -15 -4 -18 3 -8 6 8 15 10 23 6 8 -5 11 -5 7 -1 -4 5 5 19 20 33 25
23 25 23 3 13 -19 -10 -22 -9 -19 2 3 7 -4 21 -14 30 -11 9 -17 22 -13 27 3 7
0 8 -9 5 -9 -3 -13 -10 -10 -15 3 -5 -2 -6 -10 -3 -8 3 -12 12 -9 20 3 8 9 11
14 8 5 -3 9 2 9 10 0 12 -5 14 -24 7 -17 -7 -27 -5 -39 6 -8 8 -20 12 -27 8
-9 -6 -9 -9 0 -15 7 -4 9 -13 6 -19 -4 -6 -12 -9 -17 -5 -13 8 -61 -24 -54
-36 3 -6 -1 -7 -9 -4 -10 4 -16 1 -16 -7 0 -11 -3 -11 -10 1 -14 22 -12 27 13
26 17 -1 21 4 19 19 -2 12 0 16 5 9 6 -9 12 -8 21 2 11 13 10 14 -12 10 -30
-5 -34 11 -8 30 14 11 14 13 2 14 -8 0 -21 -4 -29 -9z m117 -46 c-3 -3 -9 2
-12 12 -6 14 -5 15 5 6 7 -7 10 -15 7 -18z m49 -80 c0 -8 -4 -12 -9 -9 -5 3
-6 10 -3 15 9 13 12 11 12 -6z m41 -10 c-3 -3 -9 2 -12 12 -6 14 -5 15 5 6 7
-7 10 -15 7 -18z"/>
<path d="M5947 4597 c3 -5 11 -6 19 -3 8 3 14 1 14 -5 0 -6 5 -7 10 -4 19 12
10 21 -19 20 -16 0 -27 -4 -24 -8z"/>
<path d="M5687 4549 c7 -7 15 -10 18 -7 3 3 -2 9 -12 12 -14 6 -15 5 -6 -5z"/>
<path d="M5618 4533 c7 -3 16 -2 19 1 4 3 -2 6 -13 5 -11 0 -14 -3 -6 -6z"/>
<path d="M6101 4475 c-29 -31 -31 -38 -20 -52 12 -15 12 -16 -4 -10 -10 4 -16
3 -13 -2 11 -17 80 -4 98 19 10 12 18 17 18 11 0 -6 7 -8 15 -5 13 5 13 9 3
22 -8 10 -8 13 -2 9 7 -4 15 0 18 9 7 18 0 34 -16 34 -6 0 -5 -7 3 -17 12 -15
12 -16 -3 -10 -11 4 -18 2 -18 -6 0 -8 -3 -8 -9 2 -5 8 -16 11 -26 7 -13 -4
-16 -2 -11 9 8 21 4 19 -33 -20z m9 -40 c0 -9 -6 -12 -16 -8 -13 5 -13 7 -2
14 17 11 18 11 18 -6z"/>
<path d="M5915 2874 c17 -13 35 -29 42 -34 14 -11 37 13 30 32 -4 8 -6 7 -6
-4 -1 -17 -21 -26 -21 -10 0 4 -17 15 -37 25 l-38 16 30 -25z"/>
<path d="M6010 2849 c0 -5 5 -7 10 -4 6 3 10 8 10 11 0 2 -4 4 -10 4 -5 0 -10
-5 -10 -11z"/>
<path d="M5930 2820 c-9 -5 -9 -9 -1 -14 6 -4 11 -1 11 6 0 10 2 10 9 -1 7
-11 12 -11 31 2 l23 16 -31 -1 c-17 -1 -36 -4 -42 -8z"/>
<path d="M5902 2686 c4 -5 1 -15 -7 -23 -8 -8 -15 -18 -15 -23 0 -10 30 -22
30 -12 0 4 4 13 9 21 8 12 12 12 25 2 9 -8 16 -11 16 -8 0 3 -15 16 -32 28
-18 12 -30 19 -26 15z"/>
<path d="M5903 2588 c-2 -16 0 -19 6 -9 5 7 14 10 20 7 6 -4 11 -3 11 2 0 8
-22 22 -34 22 -1 0 -3 -10 -3 -22z"/>
<path d="M5780 2562 c0 -12 23 -32 37 -32 7 0 13 7 13 15 0 9 -6 12 -15 9 -8
-4 -15 -1 -15 5 0 6 -4 11 -10 11 -5 0 -10 -4 -10 -8z"/>
<path d="M5916 2555 c-3 -8 -1 -15 4 -15 6 0 10 7 10 15 0 8 -2 15 -4 15 -2 0
-6 -7 -10 -15z"/>
<path d="M5890 2535 c6 -8 9 -19 5 -25 -3 -5 -2 -10 4 -10 18 0 22 20 7 35
-19 19 -32 20 -16 0z"/>
<path d="M6031 2514 c0 -11 3 -14 6 -6 3 7 2 16 -1 19 -3 4 -6 -2 -5 -13z"/>
<path d="M5828 2508 c8 -9 11 -22 7 -28 -3 -5 1 -17 9 -26 9 -9 16 -11 16 -4
0 6 4 9 8 6 4 -2 14 0 22 5 11 7 7 8 -12 5 -32 -5 -39 17 -12 32 11 6 13 12 6
16 -6 3 -14 2 -17 -4 -5 -8 -12 -7 -23 2 -15 12 -16 11 -4 -4z"/>
<path d="M5930 2511 c0 -6 4 -13 10 -16 6 -3 7 1 4 9 -7 18 -14 21 -14 7z"/>
<path d="M5808 2459 c-3 -8 0 -28 8 -44 9 -19 12 -22 8 -7 -3 14 -1 22 8 22 9
0 9 3 2 8 -6 4 -13 14 -16 21 -4 13 -5 13 -10 0z"/>
<path d="M5905 2410 c-3 -6 1 -7 9 -4 18 7 21 14 7 14 -6 0 -13 -4 -16 -10z"/>
<path d="M5915 2390 c-3 -5 -1 -10 4 -10 6 0 11 5 11 10 0 6 -2 10 -4 10 -3 0
-8 -4 -11 -10z"/>
<path d="M6100 2355 c0 -8 4 -15 10 -15 5 0 7 7 4 15 -4 8 -8 15 -10 15 -2 0
-4 -7 -4 -15z"/>
<path d="M5814 2318 l-19 -23 23 19 c12 11 22 21 22 23 0 8 -8 2 -26 -19z"/>
<path d="M5721 2325 c0 -5 4 -18 8 -28 7 -18 8 -18 21 -1 8 10 10 15 3 11 -7
-4 -16 0 -22 10 -6 10 -10 14 -10 8z"/>
<path d="M6053 2318 c3 -9 0 -19 -9 -22 -9 -3 -12 -11 -9 -16 5 -8 11 -8 20 0
10 8 14 7 18 -2 4 -9 6 -9 6 2 0 8 -7 24 -16 35 -12 15 -14 16 -10 3z"/>
<path d="M6095 2300 c3 -5 11 -10 16 -10 6 0 7 5 4 10 -3 6 -11 10 -16 10 -6
0 -7 -4 -4 -10z"/>
<path d="M5790 2286 c0 -2 7 -9 15 -16 13 -11 14 -10 9 4 -5 14 -24 23 -24 12z"/>
<path d="M5656 2243 c-6 -14 -5 -15 5 -6 7 7 10 15 7 18 -3 3 -9 -2 -12 -12z"/>
<path d="M5693 2243 c9 -2 23 -2 30 0 6 3 -1 5 -18 5 -16 0 -22 -2 -12 -5z"/>
<path d="M6066 2015 c-3 -8 -1 -15 4 -15 6 0 10 7 10 15 0 8 -2 15 -4 15 -2 0
-6 -7 -10 -15z"/>
<path d="M5964 1981 c0 -31 3 -39 16 -38 14 1 15 7 7 39 -12 49 -23 49 -23 -1z"/>
<path d="M5926 1991 c-3 -5 1 -11 9 -15 9 -3 15 0 15 9 0 16 -16 20 -24 6z"/>
<path d="M6069 1979 c-13 -11 -18 -18 -11 -14 6 3 12 1 12 -5 0 -17 17 -3 23
20 6 25 5 25 -24 -1z"/>
<path d="M6110 1996 c0 -2 8 -10 18 -17 15 -13 16 -12 3 4 -13 16 -21 21 -21
13z"/>
<path d="M5913 1964 c9 -15 -17 -26 -30 -13 -6 6 -14 -1 -21 -18 -11 -24 -10
-26 1 -11 9 11 23 16 39 13 19 -4 26 -1 24 10 -1 8 -6 18 -11 22 -4 4 -5 3 -2
-3z"/>
<path d="M6126 1936 c2 -6 6 -24 8 -40 6 -34 -18 -59 -48 -50 -25 8 -38 -15
-19 -34 12 -13 16 -12 29 7 9 12 20 18 26 15 6 -4 8 -2 5 3 -10 16 18 23 33
10 7 -7 6 -2 -2 11 -9 13 -14 37 -12 56 3 23 0 33 -10 33 -8 0 -12 -5 -10 -11z"/>
<path d="M5949 1922 c7 -12 17 -20 22 -16 6 3 9 7 7 8 -2 1 -12 8 -22 16 -18
14 -19 14 -7 -8z"/>
<path d="M6097 1911 c-4 -17 -3 -21 5 -13 5 5 8 16 6 23 -3 8 -7 3 -11 -10z"/>
<path d="M5910 1917 c0 -16 21 -47 33 -47 8 0 9 3 1 8 -6 4 -16 16 -22 27 -6
11 -12 16 -12 12z"/>
<path d="M5845 1880 c3 -5 11 -10 16 -10 6 0 7 5 4 10 -3 6 -11 10 -16 10 -6
0 -7 -4 -4 -10z"/>
<path d="M5880 1869 c0 -11 4 -18 10 -14 5 3 7 12 3 20 -7 21 -13 19 -13 -6z"/>
<path d="M5913 1848 c2 -7 10 -12 16 -10 7 1 10 -2 6 -8 -3 -6 -11 -8 -16 -5
-5 4 -9 1 -9 -4 0 -14 27 -14 35 -1 7 12 -12 40 -27 40 -5 0 -8 -6 -5 -12z"/>
<path d="M5375 1550 c-3 -5 -1 -10 4 -10 6 0 11 5 11 10 0 6 -2 10 -4 10 -3 0
-8 -4 -11 -10z"/>
<path d="M5257 1535 c-18 -13 -15 -38 10 -63 11 -11 13 -10 13 7 0 15 5 19 18
15 13 -5 14 -4 3 4 -8 6 -20 8 -28 5 -7 -3 -13 1 -13 10 0 8 6 17 13 20 6 2
10 7 7 10 -3 3 -13 0 -23 -8z"/>
<path d="M5375 1460 c4 -7 2 -16 -6 -21 -19 -11 2 -32 27 -27 13 2 19 12 19
31 1 15 -3 27 -7 27 -7 0 -12 -24 -9 -43 1 -5 -3 -6 -8 -2 -6 3 -8 12 -5 19 3
8 0 17 -7 22 -8 5 -10 3 -4 -6z"/>
<path d="M5296 1434 c-5 -14 -4 -15 9 -4 17 14 19 20 6 20 -5 0 -12 -7 -15
-16z"/>
<path d="M5267 1409 c7 -7 15 -10 18 -7 3 3 -2 9 -12 12 -14 6 -15 5 -6 -5z"/>
<path d="M5576 1294 c-11 -7 -22 -11 -27 -9 -4 3 -11 1 -14 -5 -8 -13 13 -40
39 -50 19 -7 18 -8 -9 -24 -17 -10 -21 -15 -11 -11 11 3 22 1 26 -5 4 -7 15
-4 31 9 13 11 19 20 12 21 -6 0 -14 -6 -16 -12 -3 -7 -6 -3 -6 10 -1 12 -5 23
-11 23 -5 1 -14 2 -20 3 -23 3 -8 21 17 21 17 0 29 6 31 16 4 22 -20 30 -42
13z"/>
<path d="M5338 1091 c-8 -12 -17 -19 -20 -16 -2 3 -5 -1 -5 -9 0 -19 34 -16
53 5 13 14 13 18 0 28 -11 10 -17 8 -28 -8z m22 -1 c0 -5 -5 -10 -11 -10 -5 0
-7 5 -4 10 3 6 8 10 11 10 2 0 4 -4 4 -10z"/>
<path d="M5320 1030 c0 -5 -7 -7 -15 -3 -9 3 -25 -3 -35 -12 -18 -17 -25 -14
-21 8 1 5 -4 5 -10 1 -15 -9 37 -57 54 -48 9 5 9 4 0 -7 -22 -22 -14 -31 8
-10 19 17 37 81 24 81 -3 0 -5 -4 -5 -10z"/>
<path d="M5337 913 c-11 -11 -8 -20 8 -20 8 0 16 6 19 14 5 13 -15 18 -27 6z"/>
<path d="M5078 879 c-4 -27 -3 -29 7 -16 7 9 15 14 18 10 4 -3 7 -2 7 4 0 6
-6 16 -14 22 -11 9 -15 5 -18 -20z"/>
<path d="M6387 884 c-3 -3 -3 -12 0 -20 3 -8 -1 -14 -8 -14 -10 0 -11 -3 -3
-8 7 -4 14 -16 17 -27 2 -11 5 1 6 28 1 47 0 52 -12 41z"/>
<path d="M5325 870 c-3 -5 -1 -10 4 -10 6 0 11 5 11 10 0 6 -2 10 -4 10 -3 0
-8 -4 -11 -10z"/>
<path d="M5201 814 c0 -11 3 -14 6 -6 3 7 2 16 -1 19 -3 4 -6 -2 -5 -13z"/>
<path d="M4637 813 c-14 -13 -6 -19 26 -21 30 -2 31 -1 13 13 -22 17 -29 18
-39 8z"/>
<path d="M4753 808 c-25 -33 -25 -38 1 -27 14 7 22 17 19 25 -6 17 -8 17 -20
2z"/>
<path d="M4606 764 c-3 -7 2 -10 15 -7 10 3 19 1 19 -4 0 -5 -7 -10 -15 -11
-8 -1 -22 -3 -30 -4 -8 -1 -15 -5 -15 -10 0 -4 -6 -8 -14 -8 -8 0 -17 -14 -21
-30 -4 -17 -11 -28 -16 -24 -5 3 -12 -9 -15 -26 -5 -22 -11 -29 -22 -25 -12 4
-12 2 -4 -8 7 -8 9 -17 6 -20 -4 -4 4 -4 16 -2 13 3 28 9 34 15 8 8 5 9 -9 5
l-20 -7 20 13 c30 18 31 19 15 29 -13 8 -12 10 2 10 9 0 20 5 24 12 4 7 3 8
-4 4 -16 -10 -15 2 2 19 9 9 17 10 24 3 6 -6 12 -6 16 1 4 6 4 11 0 11 -4 0 5
11 20 25 15 14 31 25 37 25 5 0 9 7 9 15 0 8 -5 15 -11 15 -5 0 -8 -4 -4 -9 3
-5 1 -13 -5 -16 -6 -4 -9 -1 -8 6 4 15 -40 19 -46 3z"/>
<path d="M6380 732 c-24 -8 -29 -24 -14 -47 13 -19 13 -24 -1 -35 -8 -7 -15
-18 -15 -25 0 -6 -9 -22 -20 -35 -24 -28 -26 -37 -3 -19 15 12 16 12 9 -6 -6
-16 -5 -18 5 -7 7 6 20 12 28 12 13 0 13 -1 0 -12 -8 -7 -21 -22 -29 -33 -10
-14 -7 -13 14 5 15 14 31 23 34 21 12 -8 14 30 2 44 -8 9 -8 14 0 17 7 2 10
26 8 64 -2 49 -6 60 -18 56z"/>
<path d="M6200 610 c0 -5 5 -10 10 -10 6 0 10 5 10 10 0 6 -4 10 -10 10 -5 0
-10 -4 -10 -10z"/>
<path d="M5766 564 c-5 -12 -2 -15 10 -10 8 3 18 6 20 6 2 0 4 5 4 10 0 16
-27 11 -34 -6z"/>
<path d="M6265 560 c-3 -5 -1 -10 4 -10 6 0 11 5 11 10 0 6 -2 10 -4 10 -3 0
-8 -4 -11 -10z"/>
<path d="M5941 527 c-8 -11 -6 -18 9 -32 12 -11 20 -13 20 -6 0 6 -7 14 -15
17 -12 5 -13 10 -4 20 6 8 9 14 6 14 -2 0 -10 -6 -16 -13z"/>
<path d="M6245 530 c3 -5 10 -10 16 -10 5 0 9 5 9 10 0 6 -7 10 -16 10 -8 0
-12 -4 -9 -10z"/>
<path d="M5855 520 c-3 -5 -2 -10 4 -10 5 0 18 -3 28 -7 17 -6 17 -6 1 10 -19
20 -24 21 -33 7z"/>
<path d="M5780 510 c0 -5 5 -10 11 -10 5 0 7 5 4 10 -3 6 -8 10 -11 10 -2 0
-4 -4 -4 -10z"/>
<path d="M5926 471 c-4 -7 -5 -15 -2 -18 9 -9 19 4 14 18 -4 11 -6 11 -12 0z"/>
<path d="M6278 455 c-3 -13 -2 -22 2 -20 11 7 20 45 10 45 -4 0 -10 -11 -12
-25z"/>
<path d="M5832 463 c-12 -2 -20 -9 -17 -14 3 -5 -1 -6 -10 -3 -10 4 -19 -4
-29 -27 -15 -36 -11 -56 5 -26 17 29 27 10 22 -39 -2 -25 0 -43 5 -41 4 3 8
-6 7 -21 0 -17 -6 -26 -14 -24 -9 2 -12 -4 -8 -18 3 -11 1 -23 -4 -26 -5 -3
-9 -10 -9 -16 0 -7 5 -6 15 2 8 6 18 9 23 6 14 -8 31 17 28 39 -4 24 21 55 43
55 11 0 12 3 3 12 -8 8 -15 8 -27 -2 -13 -11 -14 -10 -9 4 7 18 29 21 39 6 4
-6 12 -10 18 -9 33 4 51 -1 40 -12 -6 -6 -8 -20 -5 -31 3 -13 7 -16 12 -8 4 7
13 9 19 5 9 -5 9 -11 -1 -23 -11 -15 -11 -15 3 -4 10 7 14 21 11 37 -2 15 0
25 7 25 7 0 9 -6 5 -12 -4 -7 4 -2 17 12 22 22 24 23 27 6 2 -10 -2 -22 -10
-27 -10 -7 -10 -9 2 -9 9 0 16 -10 16 -25 1 -14 -2 -22 -7 -19 -8 5 -11 -3 -8
-22 2 -13 -26 -23 -33 -12 -5 9 -13 9 -33 0 -24 -11 -27 -11 -21 4 5 13 2 15
-13 11 -15 -3 -19 0 -16 13 3 16 0 17 -28 8 -51 -17 -61 -31 -38 -53 12 -10
32 -19 47 -21 14 -1 29 -5 32 -9 4 -4 -2 -5 -13 -3 -14 2 -21 -3 -23 -20 -4
-25 -34 -45 -71 -46 -13 -1 -26 -6 -28 -13 -4 -12 26 -11 47 2 6 3 10 -1 10
-9 0 -9 -4 -16 -10 -16 -5 0 -10 -7 -10 -16 0 -12 6 -9 21 10 25 32 36 27 33
-13 l-2 -30 254 -1 254 0 0 190 0 190 -37 -6 c-21 -3 -48 -12 -60 -20 -16 -10
-23 -11 -23 -3 0 7 -9 9 -22 6 -12 -4 -28 -1 -35 5 -10 8 -14 3 -19 -21 -4
-17 -10 -31 -15 -31 -5 0 -6 8 -3 18 3 9 -1 6 -9 -8 -11 -17 -12 -30 -6 -42 7
-14 6 -16 -6 -12 -8 3 -12 10 -9 15 3 5 -2 9 -10 9 -9 0 -16 4 -16 9 0 5 -8 7
-18 4 -11 -2 -18 -13 -18 -25 1 -12 -5 -23 -13 -26 -10 -3 -12 1 -8 17 3 11 1
19 -4 15 -20 -12 -7 14 14 31 17 13 22 24 19 43 -3 17 -1 23 7 18 6 -4 11 -2
11 4 0 7 9 24 19 39 19 27 19 27 0 39 -11 7 -19 8 -19 2 0 -5 6 -10 13 -10 17
-1 -41 -50 -59 -50 -10 0 -13 -6 -10 -18 7 -20 -29 -61 -41 -48 -4 4 3 16 17
28 14 11 19 16 11 12 -11 -5 -13 -1 -9 20 4 18 1 26 -9 26 -8 0 -11 -5 -7 -12
4 -6 3 -8 -4 -5 -15 10 -42 -3 -42 -18 0 -8 -5 -17 -10 -20 -6 -4 -9 -1 -8 6
2 6 -3 14 -9 16 -7 3 -13 0 -13 -6 0 -6 -4 -11 -10 -11 -5 0 -7 7 -4 15 4 8 3
22 0 32 -6 14 -8 14 -22 -3 -14 -17 -15 -17 -10 -1 6 18 -9 24 -19 7 -4 -6
-11 -8 -16 -5 -13 9 -11 43 4 48 14 6 1 6 -31 0z m43 -81 c-6 -6 -34 11 -39
24 -4 11 0 10 18 -3 13 -10 23 -19 21 -21z m-25 -16 c0 -9 -30 -14 -35 -6 -4
6 3 10 14 10 12 0 21 -2 21 -4z m370 -75 c0 -12 -20 -25 -27 -18 -7 7 6 27 18
27 5 0 9 -4 9 -9z m-90 -11 c0 -5 -5 -10 -11 -10 -5 0 -7 5 -4 10 3 6 8 10 11
10 2 0 4 -4 4 -10z"/>
<path d="M2825 449 c-4 -6 -5 -12 -2 -15 2 -3 7 2 10 11 7 17 1 20 -8 4z"/>
<path d="M6346 431 c-10 -11 -13 -22 -8 -25 6 -3 13 0 16 6 3 10 9 8 19 -4 19
-24 27 -22 27 6 0 13 -7 27 -16 30 -21 8 -18 9 -38 -13z"/>
<path d="M3293 425 c0 -8 4 -12 9 -9 5 3 6 10 3 15 -9 13 -12 11 -12 -6z"/>
<path d="M6294 415 c-17 -13 -17 -14 -2 -15 9 0 20 5 23 11 11 17 0 20 -21 4z"/>
<path d="M2825 410 c-3 -5 -1 -10 4 -10 6 0 11 5 11 10 0 6 -2 10 -4 10 -3 0
-8 -4 -11 -10z"/>
<path d="M6235 389 c-4 -6 -5 -12 -2 -15 2 -3 7 2 10 11 7 17 1 20 -8 4z"/>
<path d="M2846 361 c-4 -5 3 -7 14 -4 23 6 26 13 6 13 -8 0 -17 -4 -20 -9z"/>
<path d="M5400 301 c0 -6 5 -13 10 -16 6 -3 10 1 10 9 0 9 -4 16 -10 16 -5 0
-10 -4 -10 -9z"/>
<path d="M5700 300 c0 -5 5 -10 10 -10 6 0 10 5 10 10 0 6 -4 10 -10 10 -5 0
-10 -4 -10 -10z"/>
<path d="M5899 293 c-13 -16 -12 -17 4 -4 16 13 21 21 13 21 -2 0 -10 -8 -17
-17z"/>
<path d="M3130 285 c0 -2 7 -8 15 -15 12 -10 15 -10 15 2 0 8 -7 15 -15 15 -8
0 -15 -1 -15 -2z"/>
<path d="M4263 273 c-7 -2 -13 -12 -12 -21 0 -11 2 -12 6 -4 2 6 8 10 12 8 4
-3 8 1 8 9 0 8 -1 15 -1 14 -1 0 -7 -3 -13 -6z"/>
<path d="M3116 255 c-3 -8 -17 -15 -31 -15 -14 0 -25 -4 -25 -8 0 -14 68 -1
74 14 3 7 1 16 -3 19 -5 3 -11 -2 -15 -10z"/>
<path d="M2934 235 c-21 -19 -24 -24 -9 -19 11 4 23 12 27 18 5 7 8 4 8 -6 0
-20 15 -24 25 -8 3 6 2 10 -4 10 -6 0 -8 7 -5 15 9 23 -9 18 -42 -10z"/>
<path d="M3145 233 c-16 -16 -16 -18 1 -31 18 -14 18 -14 -4 -9 -23 5 -23 5
-6 -14 16 -18 18 -18 31 -1 14 16 14 16 8 -3 -5 -17 -4 -18 7 -7 11 11 9 17
-9 32 -22 17 -33 37 -15 26 5 -3 9 1 9 9 0 19 -2 19 -22 -2z"/>
<path d="M3430 206 c0 -2 7 -6 15 -10 8 -3 15 -1 15 4 0 6 -7 10 -15 10 -8 0
-15 -2 -15 -4z"/>
<path d="M2955 188 c-43 -23 -65 -51 -59 -72 6 -21 6 -21 -9 -1 -17 22 -29 16
-34 -17 -2 -11 -11 -28 -21 -37 -9 -9 -18 -26 -19 -39 -3 -22 -1 -23 77 -21
71 2 80 4 86 22 7 22 28 47 39 47 3 0 3 -5 -1 -12 -4 -6 -8 -22 -10 -35 -2
-17 3 -23 17 -23 11 0 17 5 14 10 -3 6 -1 10 5 10 19 0 37 25 34 47 -4 22 19
38 39 26 7 -3 9 -3 5 2 -4 4 -2 15 4 24 10 13 10 14 -2 4 -18 -17 -33 -17 -24
-1 5 7 9 21 9 30 1 14 -3 17 -18 12 -16 -5 -19 -3 -13 12 6 16 5 16 -16 -2
-40 -36 -60 -44 -76 -28 -8 8 -12 24 -9 34 3 11 4 20 4 20 -1 0 -11 -6 -22
-12z m110 -58 c-3 -5 -11 -10 -16 -10 -6 0 -7 5 -4 10 3 6 11 10 16 10 6 0 7
-4 4 -10z m-15 -60 c0 -5 -4 -10 -10 -10 -5 0 -10 5 -10 10 0 6 5 10 10 10 6
0 10 -4 10 -10z m-28 -42 c-7 -7 -12 -8 -12 -2 0 14 12 26 19 19 2 -3 -1 -11
-7 -17z"/>
<path d="M4140 181 c0 -6 4 -13 10 -16 6 -3 7 1 4 9 -7 18 -14 21 -14 7z"/>
<path d="M3446 166 c10 -8 21 -12 24 -10 5 6 -21 24 -34 24 -6 0 -1 -6 10 -14z"/>
<path d="M3335 160 c-4 -6 -12 -7 -18 -4 -8 5 -8 3 1 -7 14 -15 16 -33 3 -25
-5 3 -15 -2 -22 -11 -10 -12 -10 -14 -1 -9 6 4 12 3 12 -3 0 -6 6 -8 14 -5 8
3 13 16 11 30 -2 18 2 24 11 20 8 -3 14 -1 14 4 0 14 -18 21 -25 10z"/>
<path d="M5792 119 c2 -6 8 -10 13 -10 5 0 11 4 13 10 2 6 -4 11 -13 11 -9 0
-15 -5 -13 -11z"/>
<path d="M3239 93 c-1 -10 -1 -21 0 -25 0 -5 -5 -8 -12 -8 -8 0 -14 -6 -14
-14 0 -8 6 -12 14 -9 11 4 17 17 11 26 -1 1 4 12 11 25 7 14 8 22 1 22 -5 0
-11 -8 -11 -17z"/>
<path d="M3202 93 c-7 -2 -17 -13 -22 -23 -7 -13 -6 -20 6 -24 12 -5 14 -1 9
15 -5 13 -3 19 3 15 5 -3 15 1 22 9 12 15 6 18 -18 8z"/>
<path d="M4030 84 c0 -8 5 -12 10 -9 6 4 8 11 5 16 -9 14 -15 11 -15 -7z"/>
<path d="M4115 89 c-4 -6 -5 -12 -2 -15 2 -3 7 2 10 11 7 17 1 20 -8 4z"/>
<path d="M3291 73 c-1 -7 -9 -10 -18 -7 -16 5 -16 4 0 -6 21 -13 32 -8 24 12
-4 9 -6 9 -6 1z"/>
<path d="M3980 70 c-8 -5 -12 -12 -9 -15 4 -3 12 1 19 10 14 17 11 19 -10 5z"/>
<path d="M2235 59 c-4 -6 -5 -12 -2 -15 2 -3 7 2 10 11 7 17 1 20 -8 4z"/>
<path d="M3315 60 c-3 -5 -1 -10 4 -10 6 0 11 5 11 10 0 6 -2 10 -4 10 -3 0
-8 -4 -11 -10z"/>
<path d="M3686 55 c-3 -8 -1 -17 3 -20 5 -3 11 2 15 10 3 8 1 17 -3 20 -5 3
-11 -2 -15 -10z"/>
<path d="M4055 50 c-3 -5 -1 -10 4 -10 6 0 11 5 11 10 0 6 -2 10 -4 10 -3 0
-8 -4 -11 -10z"/>
<path d="M2126 38 c3 -5 10 -6 15 -3 13 9 11 12 -6 12 -8 0 -12 -4 -9 -9z"/>
<path d="M2180 33 c8 -13 20 -19 29 -15 13 5 13 6 0 10 -7 3 -20 10 -28 16
-12 9 -12 8 -1 -11z"/>
<path d="M2262 31 c-10 -6 -10 -10 3 -21 13 -11 15 -9 15 9 0 24 0 24 -18 12z"/>
<path d="M3710 30 c0 -5 5 -10 11 -10 5 0 7 -4 4 -10 -3 -5 -1 -10 4 -10 6 0
11 9 11 20 0 11 -7 20 -15 20 -8 0 -15 -4 -15 -10z"/>
<path d="M4083 18 c-1 -10 2 -18 8 -18 5 0 9 5 9 10 0 6 8 10 17 10 21 0 8 13
-15 15 -11 1 -19 -6 -19 -17z"/>
<path d="M2400 15 c-8 -9 -8 -15 -2 -15 12 0 26 19 19 26 -2 2 -10 -2 -17 -11z"/>
</g>
</svg>
