<?xml version="1.0" encoding="UTF-8" standalone="no"?>
<!DOCTYPE svg PUBLIC "-//W3C//DTD SVG 1.1//EN" "http://www.w3.org/Graphics/SVG/1.1/DTD/svg11.dtd">
<svg width="100%" height="100%" viewBox="0 0 1280 1024" version="1.1" xmlns="http://www.w3.org/2000/svg" xmlns:xlink="http://www.w3.org/1999/xlink" xml:space="preserve" xmlns:serif="http://www.serif.com/" style="fill-rule:evenodd;clip-rule:evenodd;stroke-linejoin:round;stroke-miterlimit:2;">
    <g id="Layer-1" serif:id="Layer 1" transform="matrix(1,0,0,1,43.6047,72.3164)">
        <g transform="matrix(0.407203,0,0,0.407203,-92.6551,287.867)">
            <g transform="matrix(1,0,0,1,208.595,510.984)">
                <path d="M0,218.091L0.905,218.516C9.16,200.933 18.322,183.812 27.485,166.69C33.342,155.744 39.199,144.799 44.82,133.733C50.476,122.596 56.017,111.413 61.558,100.232C70.345,82.5 79.13,64.772 88.366,47.239C96.636,31.541 104.872,15.824 112.961,0.031L112.071,-0.425C103.574,16.165 94.873,32.744 87.482,46.773C78.239,64.317 69.303,82.35 60.662,99.789C55.214,110.781 49.582,122.147 43.928,133.28C38.313,144.336 32.36,155.46 26.603,166.218C17.588,183.064 8.266,200.484 0,218.091" style="fill:rgb(180,197,228);fill-rule:nonzero;"/>
            </g>
            <g transform="matrix(-0.894027,0.448013,0.448013,0.894027,1077.4,613.041)">
                <path d="M178.963,-759.554L179.963,-759.554L179.665,42.332L178.665,42.332L178.963,-759.554Z" style="fill:rgb(180,197,228);fill-rule:nonzero;"/>
            </g>
            <g transform="matrix(-1,0,0,1,573,731)">
                <path d="M0,-2C200.479,-2 363,-1.552 363,-1C363,-0.448 200.479,0 0,0C-200.479,0 -363,-0.448 -363,-1C-363,-1.552 -200.479,-2 0,-2" style="fill:rgb(180,197,228);fill-rule:nonzero;"/>
            </g>
            <g transform="matrix(1,0,0,1,859.311,15.5952)">
                <path d="M0,564.855C-8.436,564.655 -16.914,563.412 -25.121,562.208C-29.558,561.556 -34.146,560.883 -38.688,560.379C-42.522,559.955 -46.36,559.57 -50.196,559.186C-61.67,558.038 -73.534,556.85 -85.058,554.528C-85.447,554.45 -85.846,554.41 -86.242,554.41L-86.248,554.41L-322.25,74.913L-282.823,0L0,564.855Z" style="fill:rgb(180,197,228);fill-rule:nonzero;"/>
            </g>
            <g transform="matrix(1,0,0,1,576.5,580.967)">
                <path d="M0,-566.467C-13.333,-541.134 -26.667,-515.8 -40,-490.467L196.257,-10.453C196.36,-10.459 196.465,-10.462 196.57,-10.462C196.918,-10.462 197.28,-10.429 197.655,-10.354C212.99,-7.263 228.549,-6.216 244.069,-4.495C257.297,-3.029 270.332,-0.207 283.629,0C189.086,-188.822 94.543,-377.645 0,-566.467M-0.022,-564.278L140.92,-282.786L281.99,-1.039C273.86,-1.298 265.687,-2.497 257.766,-3.659C253.324,-4.311 248.731,-4.985 244.179,-5.489C240.342,-5.915 236.443,-6.305 232.671,-6.682C221.208,-7.83 209.354,-9.016 197.853,-11.334C197.532,-11.399 197.205,-11.439 196.878,-11.455L-38.878,-490.452L-18.602,-528.976L-0.022,-564.278Z" style="fill:rgb(180,197,228);fill-rule:nonzero;"/>
            </g>
            <g transform="matrix(1,0,0,1,851.813,583.116)">
                <path d="M0,146.888L-72.782,-0.986C-62.42,0.722 -51.824,1.78 -41.566,2.804C-38.78,3.082 -35.995,3.36 -33.21,3.651C-28.223,4.172 -23.176,4.911 -18.294,5.627C-9.14,6.969 0.326,8.357 9.78,8.357C10.862,8.357 11.939,8.338 12.989,8.303L82.872,147.874L0,146.888Z" style="fill:rgb(180,197,228);fill-rule:nonzero;"/>
            </g>
            <g transform="matrix(1,0,0,1,778.153,731.5)">
                <path d="M0,-150.023C24.449,-100.349 48.898,-50.674 73.347,-1C101.347,-0.667 129.347,-0.333 157.347,0L86.953,-140.593C85.78,-140.548 84.607,-140.527 83.438,-140.527C68.992,-140.527 54.857,-143.731 40.503,-145.23C26.972,-146.644 13.412,-147.757 0,-150.023M1.756,-148.72C11.824,-147.101 22.09,-146.076 32.036,-145.083C34.824,-144.805 37.612,-144.527 40.399,-144.236C45.377,-143.716 50.421,-142.976 55.298,-142.261C64.468,-140.917 73.95,-139.527 83.438,-139.527C84.416,-139.527 85.391,-139.542 86.346,-139.572L155.719,-1.019L123.759,-1.4L73.973,-1.993L37.571,-75.953L1.756,-148.72Z" style="fill:rgb(180,197,228);fill-rule:nonzero;"/>
            </g>
            <g transform="matrix(1,0,0,1,373.292,15.6068)">
                <path d="M0,439.712C-1.742,438.11 -3.576,436.553 -5.355,435.042L-6.646,433.948C-9.705,431.361 -12.867,428.688 -15.002,425.394L203.202,0L213.647,20.891L0,439.712Z" style="fill:rgb(180,197,228);fill-rule:nonzero;"/>
            </g>
            <g transform="matrix(1,0,0,1,576.5,456.135)">
                <path d="M0,-441.635C-72.928,-299.459 -145.857,-157.284 -218.785,-15.108C-216.423,-11.343 -212.725,-8.366 -209.384,-5.528C-207.232,-3.699 -205.095,-1.898 -203.062,0C-131.708,-139.878 -60.354,-279.757 11,-419.635C7.333,-426.968 3.667,-434.302 0,-441.635M-0.011,-439.422L9.88,-419.64L-62.201,-278.337L-203.355,-1.628C-204.961,-3.084 -206.63,-4.501 -208.254,-5.88L-208.737,-6.29L-209.53,-6.961C-212.486,-9.461 -215.538,-12.043 -217.632,-15.166L-0.011,-439.422Z" style="fill:rgb(180,197,228);fill-rule:nonzero;"/>
            </g>
            <g transform="matrix(1,0,0,1,322.519,728.484)">
                <path d="M0,-217.745C2.208,-216.632 4.571,-215.717 6.862,-214.83C9.13,-213.952 11.272,-213.122 12.874,-212.233C13.844,-211.694 14.759,-211.098 15.644,-210.52C16.468,-209.983 17.254,-209.47 18.053,-209.021L-88.328,-0.478L-111.691,0L0,-217.745Z" style="fill:rgb(180,197,228);fill-rule:nonzero;"/>
            </g>
            <g transform="matrix(1,0,0,1,322.301,729)">
                <path d="M0,-218.934L-112.302,0C-104.135,-0.166 -95.968,-0.333 -87.802,-0.5C-52.222,-70.248 -16.643,-139.996 18.937,-209.744C17.135,-210.692 15.373,-212.053 13.333,-213.186C10,-215.037 4.524,-216.574 0,-218.934M0.436,-217.594C2.535,-216.57 4.748,-215.712 6.898,-214.88C9.149,-214.008 11.276,-213.185 12.848,-212.312C13.803,-211.782 14.709,-211.191 15.585,-210.619C16.276,-210.169 16.939,-209.736 17.609,-209.341L-88.42,-1.487L-97.602,-1.3L-110.647,-1.034L0.436,-217.594Z" style="fill:rgb(180,197,228);fill-rule:nonzero;"/>
            </g>
            <g transform="matrix(0.999999,0.00163545,0.00163545,-0.999999,229.821,691.497)">
                <path d="M-0.031,-0.503L611.421,-0.503L637.276,-36.963L-22.392,-39.537L-0.031,-0.503Z" style="fill:rgb(180,197,228);fill-rule:nonzero;"/>
            </g>
            <g transform="matrix(1,0,0,1,229.5,731.5)">
                <path d="M0,-40C-7.667,-26.667 -15.333,-13.333 -23,0L638.5,-1.5C629.667,-14 620.833,-26.5 612,-39C408,-39.333 204,-39.667 0,-40M0.578,-38.999L611.482,-38.001L636.572,-2.496L-21.269,-1.004L0.578,-38.999Z" style="fill:rgb(180,197,228);fill-rule:nonzero;"/>
            </g>
            <g transform="matrix(1,0,0,1,497.213,587.481)">
                <path d="M0,-412.774L-5.713,-420.981C-118.07,-342.769 -176.851,-282.6 -206.278,-237.07C-235.705,-191.539 -235.776,-160.645 -230.713,-140.981C-220.566,-101.571 -180.863,-72.597 -124.433,-51.394C-68.003,-30.192 5.155,-16.761 82.215,-8.439C236.336,8.207 406.063,4.421 488.787,1.519L488.436,-8.475C333.67,-3.045 193.572,-6.47 83.289,-18.381C-1.85,-27.576 -70.554,-41.833 -120.916,-60.755C-178.814,-82.509 -212.497,-110.34 -221.029,-143.475C-227.425,-168.314 -219.636,-197.978 -197.879,-231.642C-164.056,-283.976 -97.479,-344.917 0,-412.774" style="fill:rgb(180,197,228);fill-rule:nonzero;"/>
            </g>
            <g transform="matrix(1,0,0,1,513.137,581.104)">
                <path d="M0,-421.208L-6.137,-429.104C-20.634,-417.836 -70.75,-378.203 -112.954,-327.997C-134.055,-302.894 -153.179,-275.148 -164.883,-246.982C-176.586,-218.817 -180.871,-190.233 -172.294,-163.454C-170.881,-159.042 -164.541,-140.386 -145.137,-121.104C-116.936,-93.08 -68.587,-71.134 -10.833,-53.945C46.922,-36.755 114.082,-24.324 179.905,-15.332C311.551,2.652 437.85,6.878 472.863,7.896L473.154,-2.099C415.036,-3.789 299.833,-9.042 181.258,-25.24C106.944,-35.392 43.275,-48.274 -7.98,-63.529C-69.581,-81.863 -113.355,-103.62 -138.088,-128.197C-154.523,-144.528 -160.824,-160.427 -162.771,-166.504C-169.912,-188.801 -167.515,-214.587 -155.648,-243.145C-145.549,-267.448 -128.609,-293.832 -105.299,-321.562C-67.732,-366.253 -23.201,-403.176 0,-421.208" style="fill:rgb(180,197,228);fill-rule:nonzero;"/>
            </g>
        </g>
        <g transform="matrix(1,0,0,1,-149.095,-174.74)">
            <text x="475.924px" y="658.052px" style="font-family:'Verdana';font-size:144px;fill:rgb(180,197,228);">My P<tspan x="816.448px " y="658.052px ">o</tspan></text>
            <text x="903.846px" y="658.052px" style="font-family:'Verdana';font-size:136px;fill:rgb(180,197,228);">r</text>
            <g transform="matrix(152,0,0,152,1343.15,658.052)">
            </g>
            <text x="961.885px" y="658.052px" style="font-family:'Verdana';font-size:152px;fill:rgb(180,197,228);">tfolio</text>
            <rect x="475.924" y="671.411" width="427.922" height="8.906" style="fill:rgb(180,197,228);"/>
            <rect x="903.846" y="671.411" width="58.039" height="8.906" style="fill:rgb(180,197,228);"/>
            <rect x="961.885" y="671.411" width="381.262" height="8.906" style="fill:rgb(180,197,228);"/>
        </g>
    </g>
</svg>
