<?xml version="1.0" encoding="UTF-8"?>
<svg xmlns="http://www.w3.org/2000/svg" version="1.1" xmlns:serif="http://www.serif.com/" viewBox="0 0 1125 907.6">
  <defs>
    <style>
      .cls-1, .cls-2, .cls-3, .cls-4 {
        fill: #d9f6fc;
      }

      .cls-2 {
        font-size: 119.5px;
      }

      .cls-2, .cls-3, .cls-4 {
        font-family: Verdana, Verdana;
      }

      .cls-2, .cls-3, .cls-4, .cls-5 {
        isolation: isolate;
      }

      .cls-3 {
        font-size: 133.6px;
      }

      .cls-4 {
        font-size: 126.6px;
      }
    </style>
  </defs>
  <!-- Generator: Adobe Illustrator 28.6.0, SVG Export Plug-In . SVG Version: 1.2.0 Build 709)  -->
  <g>
    <g id="Layer_1">
      <g id="Layer-1" serif:id="Layer 1">
        <g>
          <path class="cls-1" d="M31.5,535.5l.3.2c3-6.3,6.2-12.4,9.5-18.5,2.1-3.9,4.2-7.8,6.2-11.8,2-4,4-8,6-12,3.1-6.3,6.3-12.7,9.6-19,3-5.6,5.9-11.2,8.8-16.9l-.3-.2c-3,5.9-6.2,11.9-8.8,16.9-3.3,6.3-6.5,12.7-9.6,19-1.9,3.9-4,8-6,12-2,4-4.1,7.9-6.2,11.8-3.2,6-6.6,12.3-9.5,18.6"/>
          <path class="cls-1" d="M163.4,279.6l-.3.2,128.7,256.5.3-.2-128.7-256.5Z"/>
          <path class="cls-1" d="M162,535.5c-71.8,0-129.9.2-129.9.4s58.2.4,129.9.4,129.9-.2,129.9-.4-58.2-.4-129.9-.4"/>
          <path class="cls-1" d="M264.4,482.3c-3,0-6.1-.5-9-.9-1.6-.2-3.2-.5-4.9-.7-1.4-.2-2.7-.3-4.1-.4-4.1-.4-8.4-.8-12.5-1.7-.1,0-.3,0-.4,0h0l-84.5-171.6,14.1-26.8,101.2,202.2Z"/>
          <path class="cls-1" d="M163.2,279.8c-4.8,9.1-9.5,18.1-14.3,27.2l84.6,171.8s0,0,.1,0c.1,0,.3,0,.4,0,5.5,1.1,11.1,1.5,16.6,2.1,4.7.5,9.4,1.5,14.2,1.6-33.8-67.6-67.7-135.2-101.5-202.7M163.2,280.5l50.4,100.7,50.5,100.8c-2.9,0-5.8-.5-8.7-.9-1.6-.2-3.2-.5-4.9-.7-1.4-.2-2.8-.3-4.1-.4-4.1-.4-8.3-.8-12.5-1.7-.1,0-.2,0-.3,0l-84.4-171.4,7.3-13.8,6.6-12.6Z"/>
          <path class="cls-1" d="M261.7,535.8l-26-52.9c3.7.6,7.5,1,11.2,1.4,1,0,2,.2,3,.3,1.8.2,3.6.5,5.3.7,3.3.5,6.7,1,10,1s.8,0,1.1,0l25,50-29.7-.4Z"/>
          <path class="cls-1" d="M235.4,482.7c8.8,17.8,17.5,35.6,26.3,53.3,10,.1,20,.2,30.1.4l-25.2-50.3c-.4,0-.8,0-1.3,0-5.2,0-10.2-1.1-15.4-1.7-4.8-.5-9.7-.9-14.5-1.7M236,483.1c3.6.6,7.3.9,10.8,1.3,1,0,2,.2,3,.3,1.8.2,3.6.5,5.3.7,3.3.5,6.7,1,10.1,1s.7,0,1,0l24.8,49.6h-11.4c0-.1-17.8-.3-17.8-.3l-13-26.5-12.8-26Z"/>
          <path class="cls-1" d="M90.5,437.5c-.6-.6-1.3-1.1-1.9-1.7l-.5-.4c-1.1-.9-2.2-1.9-3-3.1l78.1-152.2,3.7,7.5-76.5,149.9Z"/>
          <path class="cls-1" d="M163.2,279.8c-26.1,50.9-52.2,101.8-78.3,152.7.8,1.3,2.2,2.4,3.4,3.4.8.7,1.5,1.3,2.3,2,25.5-50.1,51.1-100.1,76.6-150.2-1.3-2.6-2.6-5.2-3.9-7.9M163.2,280.5l3.5,7.1-25.8,50.6-50.5,99c-.6-.5-1.2-1-1.8-1.5h-.2c0-.1-.3-.4-.3-.4-1.1-.9-2.2-1.8-2.9-2.9l77.9-151.8Z"/>
          <path class="cls-1" d="M72.3,457.4c.8.4,1.6.7,2.5,1,.8.3,1.6.6,2.2.9.3.2.7.4,1,.6.3.2.6.4.9.5l-38.1,74.6-8.4.2,40-77.9Z"/>
          <path class="cls-1" d="M72.2,457.1l-40.2,78.4c2.9,0,5.8-.1,8.8-.2,12.7-25,25.5-49.9,38.2-74.9-.6-.3-1.3-.8-2-1.2-1.2-.7-3.2-1.2-4.8-2.1M72.4,457.6c.8.4,1.5.7,2.3,1,.8.3,1.6.6,2.1.9.3.2.7.4,1,.6.2.2.5.3.7.5l-37.9,74.4h-3.3c0,0-4.7.2-4.7.2l39.8-77.5Z"/>
          <path class="cls-1" d="M39.1,522.2l218.8.4,9.2,13.1-236.1.5,8-14Z"/>
          <path class="cls-1" d="M39,522.1c-2.7,4.8-5.5,9.5-8.2,14.3l236.7-.5c-3.2-4.5-6.3-8.9-9.5-13.4-73-.1-146-.2-219-.4M39.2,522.4l218.6.4,9,12.7-235.4.5,7.8-13.6Z"/>
          <path class="cls-1" d="M134.8,337.1l-2-2.9c-40.2,28-61.2,49.5-71.8,65.8-10.5,16.3-10.6,27.4-8.7,34.4,3.6,14.1,17.8,24.5,38,32.1,20.2,7.6,46.4,12.4,74,15.4,55.2,6,115.9,4.6,145.5,3.6v-3.6c-55.5,1.9-105.7.7-145.1-3.5-30.5-3.3-55.1-8.4-73.1-15.2-20.7-7.8-32.8-17.7-35.8-29.6-2.3-8.9.5-19.5,8.3-31.6,12.1-18.7,35.9-40.5,70.8-64.8"/>
          <path class="cls-1" d="M140.5,331.8l-2.2-2.8c-5.2,4-23.1,18.2-38.2,36.2-7.6,9-14.4,18.9-18.6,29-4.2,10.1-5.7,20.3-2.7,29.9.5,1.6,2.8,8.3,9.7,15.2,10.1,10,27.4,17.9,48.1,24,20.7,6.2,44.7,10.6,68.3,13.8,47.1,6.4,92.3,7.9,104.8,8.3v-3.6c-20.7-.6-61.9-2.5-104.4-8.3-26.6-3.6-49.4-8.2-67.7-13.7-22-6.6-37.7-14.3-46.6-23.1-5.9-5.8-8.1-11.5-8.8-13.7-2.6-8-1.7-17.2,2.5-27.4,3.6-8.7,9.7-18.1,18-28.1,13.4-16,29.4-29.2,37.7-35.7"/>
        </g>
        <g>
          <g class="cls-5">
            <text class="cls-4" transform="translate(325.6 446.3)"><tspan x="0" y="0">My P</tspan></text>
            <text class="cls-4" transform="translate(624.9 446.3)"><tspan x="0" y="0">o</tspan></text>
          </g>
          <text class="cls-2" transform="translate(701.7 446.3)"><tspan x="0" y="0">r</tspan></text>
          <text class="cls-3" transform="translate(752.7 446.3)"><tspan x="0" y="0">tfolio</tspan></text>
          <rect class="cls-1" x="325.6" y="458.1" width="376.1" height="7.8"/>
          <rect class="cls-1" x="701.7" y="458.1" width="51" height="7.8"/>
          <rect class="cls-1" x="752.7" y="458.1" width="335.1" height="7.8"/>
        </g>
      </g>
    </g>
  </g>
</svg>