<?xml version="1.0" encoding="UTF-8"?>
<svg id="Layer_2" xmlns="http://www.w3.org/2000/svg" viewBox="0 0 120 68.58">
  <g id="Layer_1-2" data-name="Layer_1">
    <path d="M111.51,10.85c-.55-1.28-1.38-2.67-2.49-3.44-3.53-2.43-7.53-2.44-11.63-1.74-2.43.42-4.99,1.62-7.23-.5-.88-.84-1.52-1.95-2.46-2.71-4-3.24-14.13-4.06-16.94,2.37-.34.78-1.22,1.34-1.91,1.94-1.14.99-2.13,1.33-3.65.21-2.37-1.76-4.89-3.68-7.66-4.48-7.82-2.26-15,.93-22.19,3.43-.08.03-.15.07-.22.12-3.56,2.37-7.18,4.67-10.67,7.14-1.77,1.26-3.68,2.58-4.88,4.32-2.1,3.03-3.91,6.31-5.48,9.65-1.8,3.81-5.64,6.4-6.19,11.01-.32,2.65-1.54,5.18-2.37,7.77-.14.45-.23.96-.51,1.32-1.65,2.1-3.35,4.15-5.03,6.22v2.97c.72-.32,1.53-.52,2.15-.98,1.38-1.03,2.77-3.21,3.96-3.09,2.64.28,2.53-1.79,3.57-2.86.61-.64,1.02-1.63,1.76-1.96,2.22-.97,4.54-1.69,6.95-2.55.28,2.25.63,3.94-2.21,5.15-2.35,1-4.14,3.33-6.14,5.11-.27.24-.47.73-.44,1.07.27,2.76,4.38,4.84,6.07,2.84,2.28-2.68,4.79-2.81,7.83-2.34,1.25.19,2.06.39,2.12,1.79.12,2.53.19,5.06.48,7.58.1.86.85,2.39,1.18,2.36,2.58-.25,5.15-.71,7.68-1.31.95-.22,1.81-.91,2.67-1.46.49-.31.89-.77,1.33-1.17-.43-.41-.79-1-1.3-1.2-1.51-.6-3.12-.96-4.63-1.57-1.11-.45-2.13-1.13-3.19-1.71.09-.22.18-.44.28-.66.63-.05,1.26-.16,1.87-.13,4.03.25,7.97-.16,11.58-2.02,2.57-1.32,5.71-2.44,7.26-4.6,3.08-4.28,13.36-7.29,18.99-3.73,1.95,1.23,4,2.34,6.09,3.33,2.68,1.26,4.7,2.82,4.71,6.14,0,1.5,1.31,2.01,2.1.78,1.43-2.2,3.44-1.74,5.45-1.96,1.19-.13,2.44-.68,3.44-1.35,1.45-.98,2.75-2.19,4.02-3.41.79-.76,1.4-1.7,2.09-2.57-.2-.15-.4-.31-.6-.46-3.17,1.06-6.29,2.36-9.54,3.07-1.77.39-4.07.31-5.58-.53-3.24-1.79-6.34-3.98-9.06-6.48-1.59-1.46-2.84-3.73-3.31-5.84-.56-2.52-.13-5.25-.13-7.56,1.69-.97,3.06-1.88,4.54-2.59,2.45-1.17,3.97-3.08,4.95-5.53,1.63-4.06,2.71-8.17,1.67-12.59-.11-.48.42-1.16.78-1.66.08-.11.75.08,1.06.27,3.62,2.15,7.19,4.39,10.85,6.45,1.66.94,3.52,1.54,5.11,2.23.25-1.86.5-3.32.63-4.78.07-.81.26-1.86-.15-2.43-.78-1.11-1.68-2.22-.17-3.03.48-.26,2,.9,2.74,1.69.97,1.05,1.59,2.4,2.43,3.57,1.31,1.82,2.68,3.59,4.14,5.53,1.67-.18,3.93-.52,6.21-.63,1.2-.06,2.49.59,3.62.35.8-.17,1.4-1.28,2.09-1.97-.64-.44-1.26-1.24-1.92-1.27-3.43-.14-5.3-2.04-6.57-4.99Z"/>
  </g>
</svg>